<svg version="1.1" xmlns="http://www.w3.org/2000/svg" xmlns:xlink="http://www.w3.org/1999/xlink" width="800" height="800" viewBox="0,0,800,800"><g fill="none" fill-rule="none" stroke="none" stroke-width="1" stroke-linecap="butt" stroke-linejoin="miter" stroke-miterlimit="10" stroke-dasharray="" stroke-dashoffset="0" font-family="none" font-weight="none" font-size="none" text-anchor="none" style="mix-blend-mode: normal"><g><path d="M0,140c0,-110.45695 89.54305,-200 200,-200c110.45695,0 200,89.54305 200,200c0,110.45695 -89.54305,200 -200,200c-110.45695,0 -200,-89.54305 -200,-200z" fill="#008080" fill-rule="nonzero"/><path d="M225.4165,235.513c-1.73505,2.20635 -3.5526,4.39725 -4.85625,6.54195c-1.3038,2.14455 -2.09415,4.24365 -3.12075,6.2649c-3.92055,7.71915 -5.6079,14.65425 -4.677,21.10845c0.47475,3.2913 1.5546,6.426 3.2115,9.40905c1.4769,2.65935 2.69895,6.1374 5.5374,8.06745c2.8389,1.93005 7.2957,2.3133 10.5321,4.51365c1.8123,1.2324 2.66385,3.48465 3.9798,5.57595c1.72245,-0.46395 2.7987,-0.3171 3.45495,0.22575c0.8709,0.7209 0.5409,2.1852 0.92895,3.7539c0.29017,1.17367 0.50047,2.11923 0.34043,4.11125c74.20966,-18.25535 129.25237,-85.24237 129.25237,-165.0853c0,-93.88841 -76.11159,-170 -170,-170c-93.88841,0 -170,76.11159 -170,170c0,36.82667 11.70986,70.91835 31.60928,98.75475c2.39413,-2.68968 5.23357,-5.1848 7.90217,-7.8748c2.6331,-2.65425 4.93485,-5.6658 7.54845,-8.1684c2.7153,-2.59995 5.4495,-4.4421 7.61265,-7.3353c4.7847,-6.39825 5.45775,-14.97975 10.2426,-21.37845c-0.9072,-2.97135 -0.70305,-5.4933 -1.69815,-7.7568c-1.12755,-2.56515 -3.14835,-4.65975 -4.7994,-6.6312c-1.30575,1.53345 -2.1324,3.37905 -2.6388,5.43195c-0.9669,3.92025 0.32535,8.9355 -0.5124,13.3131c-0.108,1.6437 -0.7677,2.7453 -0.9555,3.89775c-0.1947,1.1955 -0.11295,2.54505 -0.3987,3.2808c-0.9336,2.40345 -2.5404,1.9293 -3.17955,-0.96585c-0.26655,-1.20795 0.2172,-3.3213 0.0471,-5.40255c-0.0693,-1.4964 -0.92805,-2.12835 -1.6143,-3.53145c-0.53355,-1.09155 -0.9306,-2.9496 -0.9843,-4.11315c-0.1581,-3.42045 0.22875,-7.97835 1.7523,-10.5984c-3.77565,-0.1122 -7.6707,5.44725 -11.7888,5.89905c-1.6491,0.18075 -3.3033,-1.4319 -5.0415,-1.79865c-1.1907,-0.25125 -2.2857,0.58725 -3.52485,0.4359c-1.40505,-0.1716 -2.961,-1.36395 -4.4007,-2.25945c-3.76515,-0.6174 -5.5932,-1.2609 -5.75175,-1.926c-0.2037,-0.85515 2.3517,-1.74645 7.0983,-2.6661c2.7978,-0.38865 5.3016,-1.3674 8.0997,-1.7562c3.8337,-0.53235 7.9626,-0.47565 11.7966,-1.0083c-2.32785,-1.8327 -5.24475,-3.45555 -7.5726,-5.2881c-4.14975,-3.26745 -7.7115,-6.7455 -11.86155,-10.0125c-4.62735,-4.5192 -4.2453,-7.4817 -3.39405,-8.0001c0.71535,-0.4359 2.1207,1.15275 5.64435,3.75585c1.224,0.90405 3.33255,1.48665 4.8954,2.75745c2.17155,1.6137 6.0018,2.25375 9.03315,3.34365c1.4601,0.525 2.47725,1.2849 3.52305,2.0619c2.0736,1.54125 2.45895,3.7941 3.8313,5.76375c1.4607,2.097 3.90675,3.91395 6.11475,5.5551c-1.7244,-2.5989 -4.7106,-4.94535 -6.43545,-7.54395c-1.2582,-1.8963 -1.25535,-4.0455 -2.514,-5.9418c0.00915,-0.3189 0.0309,-0.59865 0.0636,-0.8388c0.3186,-2.31675 1.74105,-0.9105 4.26855,4.58205c0.79155,3.08385 2.47815,5.69025 6.63615,6.97575c1.0125,-4.0359 -0.6894,-4.01895 -1.1979,-5.997c-0.7932,-3.0852 -2.3427,-5.9358 -5.23815,-8.17155c-4.37955,-3.3813 -10.5558,-6.74205 -12.681,-11.9091c-0.996,-2.4222 -1.82805,-5.1906 -2.23095,-7.9233c-0.53055,-3.60075 -0.0159,-7.8327 -0.42015,-11.42415c-0.37965,-3.3741 -1.65,-6.1245 -2.97765,-9.0474c-4.5405,-7.0746 -1.30425,-7.8684 2.8581,-0.85035c1.38765,2.33955 3.14835,5.52855 5.2992,9.60465c1.4196,2.34765 3.13695,5.283 3.9594,8.1342c1.2024,4.16715 1.19775,8.75505 2.9043,12.9219c1.03965,2.5383 2.6673,5.58135 4.8822,7.6164c2.0019,1.053 4.17915,1.33365 6.74145,-0.08505c-1.23405,-2.4039 -2.12985,-4.79865 -2.79045,-7.1865c-1.0992,-3.97365 -2.3064,-7.61925 -2.78145,-11.4873c-0.3465,-2.82225 -0.30375,-5.76345 0.45525,-9.03645c-1.07895,-2.7345 -2.79495,-4.7019 -3.3801,-6.48975c-1.7184,-5.25045 -0.4956,-6.9387 2.11875,-4.04985c0.8712,0.96315 1.15035,2.9223 2.52255,4.7775c1.2666,1.71285 3.3468,3.56625 4.9662,6.0681c2.2602,2.2041 2.41845,5.6724 2.7441,8.5926c0.69105,6.1968 -3.49575,11.8884 0.3075,18.75945c0.07995,-2.3394 1.7307,-4.9848 2.1774,-7.43865c0.6123,-3.3612 0.50325,-6.2484 1.2387,-8.9919c0.39015,-1.4559 1.35555,-0.7152 1.7598,-2.1678c0.40935,-5.2023 2.93085,-5.9931 3.558,-5.44545c0.5541,0.48405 0.58725,2.59815 0.0408,5.96235c-0.24525,1.51035 -0.13185,3.22425 0.2076,5.3358c3.32355,6.2157 -0.08175,11.4627 -2.77185,15.3609c-2.3727,3.43815 -3.50265,7.92705 -2.2257,12.33255c1.0899,3.05955 1.85115,6.29895 4.25565,8.63925c0.8823,-6.5451 2.4726,-12.8832 4.5708,-18.957c0.9459,-2.7384 2.37435,-5.382 3.5094,-8.00805c2.7912,-6.45825 5.7204,-12.6021 9.27255,-18.26685c4.46955,-7.128 9.1911,-13.92015 15.0789,-19.87545c5.06955,-5.12805 10.9566,-10.7085 17.23425,-13.83855c-0.2736,-1.44645 0.45495,-2.42955 1.63995,-3.20235c0.1593,-26.7282 17.3046,-42.13425 30.438,-46.386c9.1203,-2.95215 19.70565,-2.02335 30.70275,5.0898c3.77355,2.44065 5.7309,6.52305 8.8707,10.4847c3.04305,3.84 7.56585,7.73655 18.8331,9.75075c3.8394,0.4476 2.4366,2.71395 -0.43335,3.20115c-2.47245,0.42 -6.3795,0.98145 -9.7917,1.70565c-3.37125,0.71565 -5.91525,2.18325 -8.10195,2.32305c2.66655,2.2446 -0.5823,5.5185 -2.42265,9.9129c-1.10385,2.63655 -2.06325,5.5254 -1.9488,8.41395c0.52695,3.71985 2.7564,7.68915 4.1589,11.4048c1.4655,3.8817 2.92935,7.94955 2.9505,12.0342c0.0816,15.66315 -7.43115,30.99045 -13.629,41.4174c-4.29375,7.2228 -10.31745,13.94535 -17.02755,20.151c-4.30125,3.97755 -8.63805,8.1396 -13.7949,10.78335c-9.03255,4.63065 -20.85255,6.7677 -30.417,7.78125c2.5563,4.0665 3.68685,8.2356 5.6274,12.3282c2.41725,5.09865 4.52595,10.27545 4.79715,15.91875c5.1711,2.1756 11.7207,6.7029 15.45075,11.7468c2.799,3.78465 6.1506,5.55765 4.08555,1.1232c-0.2589,-0.55575 -0.5943,-1.20885 -1.0125,-1.9653c-0.90435,-2.0517 1.31055,-1.5024 3.20655,0.04875c1.7553,1.4358 3.0288,3.36735 3.8118,5.3892c1.14495,2.95545 1.5792,6.10665 3.7038,8.19495c3.0114,2.9595 5.4372,6.234 11.01975,7.1394c0.981,-2.1771 1.96245,-4.35405 2.9439,-6.531c-2.68455,-5.6328 -6.87585,-0.35625 -9.58005,-2.15355c-2.3853,-1.58565 -4.2354,-4.34865 -5.13885,-9.18075c-2.2926,-1.0113 -3.70875,-2.30325 -3.19635,-4.21335c-1.15635,-2.90775 -1.1499,-5.71695 -0.4842,-7.9221c0.6657,-2.20485 1.65465,-5.57565 4.47945,-5.30835c1.67835,-4.2552 6.087,-1.8147 12.02745,4.3821c5.0361,0.4995 4.875,5.976 4.7943,11.37645c1.0407,1.64085 0.6045,3.97305 -0.042,6.40455c5.29665,-4.3365 1.08165,-5.3646 1.4952,-8.2764c0.2652,-1.8657 -0.16695,-3.10755 1.95315,-5.1225c-0.0414,-1.7616 0.4881,-3.12735 1.1775,-4.3821c0.53265,-2.87925 -1.37385,-5.84265 -0.67275,-8.0055c-3.19665,-2.11275 -5.1735,-4.3779 -5.67735,-6.8259c-2.50965,-1.08225 -4.24815,-2.31795 -5.6352,-3.6237c-2.9517,-2.262 -3.63885,-5.3241 -2.7759,-8.93265c-0.0465,-1.5738 0.273,-3.10545 3.15435,-4.3398c0.35685,-2.10015 1.59,-3.60315 4.75215,-3.79215c1.0608,-0.5775 3.38355,-3.93645 4.73865,-3.96615c1.1958,-0.02625 2.22405,3.14955 2.9151,3.79755c1.8564,-1.12815 1.0665,-3.07395 1.80555,-3.73815c0.73935,-0.66435 1.66185,-0.5532 2.9046,0.91515c1.17285,-2.2014 2.22795,-3.1158 3.16395,-2.74305c0.6411,0.2556 0.6378,1.28235 1.7562,2.5746c2.4252,-2.3184 7.0032,-0.2994 8.48595,2.6175c1.01445,1.9962 1.5054,4.7877 1.69125,8.04255c0.64485,-0.4356 1.1775,-0.30915 1.5981,0.37935c0.6234,2.41185 -0.7506,5.69115 -3.49035,9.5643c2.1447,-1.49835 4.28865,-3.51345 6.43425,-7.3734c0.3423,-2.1489 -0.70965,-4.8879 -0.6537,-7.33185c0.05595,-2.4438 0.33735,-4.8876 0.6957,-7.3311c-0.64545,-3.5706 -0.82815,-7.1754 -0.79905,-10.91295c0.5349,-5.43975 -0.372,-8.38425 -0.17865,-12.71205c0.17235,-3.85755 1.149,-7.6938 1.59135,-11.64825c0.26985,-2.4093 0.81645,-4.9302 1.02435,-7.3755c0.32415,-3.81435 0.30795,-7.5681 0.84315,-11.3682c0.45795,-1.5765 1.17585,-2.0427 1.88715,-1.8306c0.9153,0.27285 1.8201,1.6674 2.1501,3.2631c0.1647,2.5845 -0.3282,5.12235 0.0069,7.7739c0.237,1.8744 1.0824,3.31365 1.4949,5.2491c0.49785,2.33595 0.5382,5.18445 0.3792,7.6257c-0.36825,5.65425 -2.61165,11.60295 -4.2063,17.7006c-0.9363,3.57975 -1.6485,7.2111 -1.62765,10.86435c2.12925,-4.64895 3.33615,-9.5817 4.8534,-14.0766c0.5055,-1.49835 0.99045,-2.29305 1.4421,-3.8235c0.76305,-2.5845 0.8142,-5.57355 1.72845,-8.09565c1.55835,-4.29795 4.33725,-8.09115 5.8959,-12.38925c0.165,-2.6985 1.48215,-5.1294 2.12355,-7.3521c0.38475,-1.33305 -0.03795,-2.59245 0.483,-3.78885c0.4002,-0.9186 1.25805,-1.5489 1.725,-2.40075c0.66915,-1.2201 0.7476,-2.8983 1.48935,-4.03185c0.6813,-1.0413 1.4415,-1.0005 2.24505,-1.92915c0.54555,-0.63 1.06995,-1.94565 1.64625,-2.65215c1.59405,-1.95495 2.8041,-3.8418 4.83855,-5.1906c1.6854,-1.14675 2.6214,-1.06875 3.2811,-0.60825c1.56375,1.09125 0.8094,5.30355 -0.7578,7.47615c-1.6143,3.82035 -4.6587,7.17765 -6.273,10.998c-1.7919,4.2411 -2.15445,8.9463 -3.9462,13.1874c-0.7326,2.4504 -1.38105,4.94325 -2.44995,7.2669c-3.17595,6.906 -7.76625,13.70985 -11.5623,20.53095c-1.48545,2.6691 -2.8494,5.34135 -3.95895,8.0226c-1.2081,2.91855 -3.0408,5.68095 -2.5515,8.8005c0.7899,-1.5213 1.5072,-3.0978 2.20515,-4.67535c0.36165,-0.8172 1.51815,-1.1298 1.87695,-1.94025c0.5835,-1.31685 0.59895,-2.72865 1.08705,-4.0635c0.29205,-0.79935 0.8169,-0.8658 1.2186,-1.6155c0.71565,-1.3365 1.4091,-3.28755 2.31195,-4.33665c1.2606,-1.46415 2.6859,-2.71935 4.33725,-3.67785c1.0602,-2.0217 3.82155,-3.56625 7.347,-4.8963c5.03115,-1.89795 11.50425,-0.4701 16.9809,-3.65865c1.137,-0.6618 1.7259,-1.85955 3.25965,-2.6529c4.74525,-1.0761 1.6089,3.26085 -0.46245,4.55055c-2.94675,2.1393 -5.3475,5.75415 -8.2941,7.8933c-4.50075,3.2679 -10.3317,4.53825 -15.42735,6.7905c-2.48895,1.09995 -4.5468,2.75565 -6.68385,4.3716c-2.45145,1.85355 -4.5657,4.2114 -6.09795,7.44735c6.92955,-1.86375 12.8499,-5.70885 19.61145,-8.12025c1.13745,-0.4056 2.30385,0.0252 3.4857,-0.3222c1.59405,-0.46845 2.62995,-1.49895 4.25625,-2.0493c3.10515,-1.05105 6.7248,-1.8201 9.6546,-2.86485c2.7426,-1.2318 5.0937,2.1426 0.71475,4.0449c-3.30135,1.66425 -7.1922,2.90715 -10.5141,4.69785c-3.3219,1.7907 -6.07635,4.1295 -9.2934,5.2881c-3.94335,1.31745 -8.2245,2.76165 -11.57925,4.66905c-2.67675,1.52175 -5.3421,3.1878 -7.8495,5.0472c-1.7154,1.272 -3.3573,2.63535 -4.8786,4.10415c3.117,-1.1613 4.46865,-0.8019 6.6264,-1.3251c1.0536,-0.2556 2.0163,-0.6597 3.04905,-0.83535c1.28595,-0.2187 1.69185,0.32205 2.9793,0.20385c2.1459,-0.19665 5.17545,-1.01475 7.3209,-1.3722c6.621,-2.6865 10.25175,0.684 1.2618,3.66585c-2.5314,0.4056 -5.1312,1.71705 -7.4688,2.36685c-2.3373,0.64965 -4.41375,0.63885 -6.23475,1.93845c-1.9074,1.3614 -3.44385,3.19185 -4.422,5.72265c-0.4599,1.39875 -1.31775,2.52015 -2.43255,3.46125c-1.65015,1.39275 -4.3281,2.8554 -6.6543,3.7758c-2.80755,1.11105 -4.47375,0.84495 -7.6506,3.0861zM211.14625,308.1562c-1.0884,-0.14295 -2.0682,-0.6369 -2.9667,-1.3854c-0.64605,-0.53835 -0.8208,-1.48575 -1.2339,-2.41185c-0.53085,-1.1904 -1.23795,-2.4561 -1.5285,-3.9339c-0.2898,-1.47375 -0.2139,-3.0228 -0.84075,-4.34835c-0.636,-1.3446 -1.9269,-1.1985 -3.099,-2.1441c-1.32825,-1.07175 -2.55345,-3.2118 -3.37755,-4.3896c-1.55895,-2.7315 -4.2702,-2.4486 -7.1223,-2.23005c-2.2179,0.17025 -4.6053,0.15225 -6.066,-0.3867c-2.5968,-0.95835 -3.9744,-2.9469 -5.04495,-3.9465c-1.26945,-1.1853 -2.32365,-4.53345 -0.4896,-5.82315c1.34175,-0.9435 5.10495,3.54255 8.16135,-0.8025c-2.5269,-2.48145 -3.4143,-5.3004 -5.94105,-7.78185c-4.35435,-4.2762 -11.2956,-7.07925 -14.70405,-12.4935c-5.1651,-0.68085 -6.85695,-0.231 -8.99715,-1.81665c-1.73475,-1.2855 -2.41755,-4.29885 -2.91045,-7.00215c-0.24075,-1.32 -0.78885,-1.76475 -0.71145,-3.44775c-3.01155,-0.3993 -4.83885,-1.4379 -4.9344,-3.4101c-2.48325,-0.261 -3.91425,-1.33005 -3.03255,-4.1751c-3.20775,-0.05145 -3.5583,-1.7805 -3.50115,-3.7485c-2.7255,-1.54545 -5.08065,-4.9749 -7.7985,-6.53295c-1.26345,-0.72405 -2.70165,0.16815 -4.06725,-0.1137c-1.5474,-0.31935 -2.83725,-2.56485 -4.4883,-2.6271c-2.19825,3.06135 -3.9753,6.2964 -5.6259,9.5793c-2.262,4.4994 -4.2864,9.08955 -6.8313,13.44885c-2.64135,4.5252 -6.0789,8.6469 -8.34945,13.3458c-0.92835,1.8684 -1.9788,3.32595 -3.0573,4.5969c-4.1868,4.9341 -9.9552,4.5174 -8.6232,0.82095c0.23835,-0.66225 0.61455,-1.4841 1.1373,-2.4756c-1.68,0.65115 -2.50065,1.7964 -3.59685,2.42385c-1.41015,0.8073 -2.6508,1.31625 -3.7215,1.5267c-0.43296,0.08509 -0.85799,0.12145 -1.26461,0.10909c30.09378,26.99747 69.8695,43.41941 113.48076,43.41941c5.15508,0 10.25657,-0.22946 15.29482,-0.67871c-1.97267,-0.67036 -3.62007,-1.14435 -4.14857,-1.16509zM83.09455,263.24215c-0.03686,0.0257 -0.07355,0.0512 -0.11008,0.0765c0.03905,0.03706 0.07811,0.07411 0.11719,0.11113c-0.0036,-0.06164 -0.00598,-0.12419 -0.00711,-0.18764zM0,140c0,-110.45695 89.54305,-200 200,-200c110.45695,0 200,89.54305 200,200c0,110.45695 -89.54305,200 -200,200c-110.45695,0 -200,-89.54305 -200,-200z" fill="#ff0000" fill-rule="evenodd"/><path d="M0,140c0,-110.45695 89.54305,-200 200,-200c110.45695,0 200,89.54305 200,200c0,110.45695 -89.54305,200 -200,200c-110.45695,0 -200,-89.54305 -200,-200zM200,310c93.88841,0 170,-76.11159 170,-170c0,-93.88841 -76.11159,-170 -170,-170c-93.88841,0 -170,76.11159 -170,170c0,93.88841 76.11159,170 170,170z" fill="#87ceeb" fill-rule="nonzero" visibility="hidden"/></g></g></svg>
