<svg
   width="150.32378mm"
   height="190.18684mm"
   viewBox="0 0 150.32378 190.18684"
   version="1.1"
   id="svg5"
   inkscape:version="1.1.2 (0a00cf5339, 2022-02-04)"
   sodipodi:docname="hex-frame.svg"
   xmlns:inkscape="http://www.inkscape.org/namespaces/inkscape"
   xmlns:sodipodi="http://sodipodi.sourceforge.net/DTD/sodipodi-0.dtd"
   xmlns="http://www.w3.org/2000/svg"
   xmlns:svg="http://www.w3.org/2000/svg">
  <sodipodi:namedview
     id="namedview7"
     pagecolor="#ffffff"
     bordercolor="#666666"
     borderopacity="1.0"
     inkscape:pageshadow="2"
     inkscape:pageopacity="0.0"
     inkscape:pagecheckerboard="0"
     inkscape:document-units="mm"
     showgrid="false"
     fit-margin-top="0"
     fit-margin-left="0"
     fit-margin-right="0"
     fit-margin-bottom="0"
     inkscape:zoom="1.2984952"
     inkscape:cx="386.21629"
     inkscape:cy="688.87432"
     inkscape:window-width="1594"
     inkscape:window-height="882"
     inkscape:window-x="0"
     inkscape:window-y="0"
     inkscape:window-maximized="0"
     inkscape:current-layer="layer3" />
  <defs
     id="defs2" />
  <g
     inkscape:groupmode="layer"
     id="layer7"
     inkscape:label="slice4"
     style="display:inline"
     sodipodi:insensitive="true">
    <path
       id="path31-0"
       style="color:#000000;display:inline;fill:#000000;fill-opacity:0.0767944;fill-rule:evenodd;stroke:#000000;stroke-width:1.00193;stroke-linecap:round;stroke-opacity:1;-inkscape-stroke:none"
       d="M 142.32617,0.50195312 0.578125,246.15625 142.32617,491.8125 h 283.5 L 567.57422,246.15625 425.82617,0.50195312 Z M 159.7793,30.746094 H 408.375 l 124.29688,215.410156 -35.33985,61.24609 c -7.30879,-4.41658 -17.45761,-9.13189 -27.64648,-9.1875 -26.41327,-0.14415 -73.64511,27.37878 -86.57813,26.37305 -14.33471,-1.11474 -24.23638,12.92006 -48.45703,17.7168 -2.70837,-6.91805 -3.59445,-15.7456 -3.25195,-22.73633 0.77392,-8.29975 1.48614,-17.51812 6.67578,-24.24024 6.43004,-5.66966 12.39361,-13.80756 22.0957,-9.47656 6.6443,-1.77498 16.32365,-2.66464 15.87696,7.18946 -0.27882,7.87056 6.91635,12.80715 14.02148,13.64843 12.95161,2.42457 24.195,-6.4234 33.72852,-13.89843 6.62468,-4.38951 5.62798,-13.31107 -2.65626,-14.74805 -5.03308,-8.40975 16.72895,-3.58585 10.25586,-12.99805 -3.6689,-3.57823 -20.73736,-9.32432 -10.49023,-14.28711 6.84076,2.1442 15.38924,-4.01213 5.99023,-8.55664 -9.94038,-3.72468 -3.93825,-13.47496 2.29688,-17.46289 5.94259,-7.16001 -1.02125,-17.79694 -7.91016,-21.55273 -9.10227,-5.69466 -14.13128,12.21108 -22.6582,6.92968 -0.22904,-3.652 -0.47633,-14.03195 -5.75977,-7.40039 -8.09397,7.15994 -7.83305,-9.422 -7.57226,-14.35742 -2.41792,-8.13048 -7.71195,-17.007 -16.15625,-19.92578 -8.71911,5.68309 -16.52145,-2.35882 -22.44531,-8.67187 -2.01138,-2.11125 -3.97621,-2.94845 -5.92579,-3.01172 -0.0914,-0.003 -0.18212,-0.004 -0.27343,-0.004 -5.75334,0.0227 -11.3867,6.59619 -17.70313,6.84375 -2.82549,0.48068 -5.5744,1.45425 -8.09179,2.80664 -2.20116,-4.19202 -5.62354,-7.64173 -10.31641,-9.40234 -25.26809,-9.77987 -52.81172,-9.24866 -79.04883,-14.73438 -3.14311,5.46187 3.93946,23.64096 -7.32226,18.48047 -8.83634,-8.0349 -5.7809,8.76902 -7.08008,13.60156 -0.6299,10.47973 11.88484,5.75955 16.89062,9.04297 -7.14935,6.40112 -22.22316,3.38278 -24.30273,15.17774 -4.73358,6.54799 1.98322,15.55473 -7.37305,18.35351 -10.11294,4.17933 0.9328,11.2576 2.49219,15.87891 -12.21142,-0.12548 13.25763,9.3124 2.33203,15.01367 4.34442,1.41906 21.36922,-0.23811 12.1543,7.11719 -7.86367,1.04681 -16.32256,2.18437 -20.33789,10.08203 -3.51039,4.89562 -14.58683,11.93019 -3.30078,14.10742 3.80167,5.45639 -11.12591,0.6207 -6.59766,8.53125 2.53444,6.47618 2.6161,16.35842 11.05469,18.09961 7.72502,2.73404 20.89817,7.79938 25.45703,-2.08594 1.27781,-2.93193 3.81143,-19.07863 5.91211,-9.49609 0.42091,4.31917 2.20335,16.92718 7.96679,9.44727 3.35011,-6.97463 -2.01941,-24.60777 10.64063,-21.87891 4.66722,7.26652 -2.99464,17.82536 -2.88086,26.58789 -0.17227,10.73807 19.67092,4.80748 17.68945,-5.14258 -0.25685,-8.23978 7.39059,-23.37252 13.69532,-11.0039 11.7952,13.77488 6.94771,28.6805 5.26757,41.35937 -14.52629,-4.39617 -28.78407,-8.33539 -40.03125,-7.2168 -32.16099,3.19861 -57.16852,35.2069 -89.41992,33.10743 -19.50667,-1.26984 -48.567603,-20.26617 -66.804686,-33.63086 L 35.482422,246.15625 Z M 306.74414,201.23047 c 1.7645,3.68303 4.02025,7.14806 6.50391,10.20898 5.08924,1.97987 17.08986,11.50398 5.49023,12.86914 -10.36749,-2.92989 -12.94942,11.09333 -3.32617,14.23438 4.85372,1.10207 17.43856,2.29113 8.87305,9.21484 -1.8555,1.12369 -3.94554,1.99323 -6.06055,2.85157 -2.01918,-8.74523 -13.44229,-12.6146 -12.21484,-23.42579 0.40526,-7.88405 -6.68545,-13.82738 -7.9043,-20.22461 2.955,-1.75203 5.93731,-3.6003 8.63867,-5.72851 z m 5.65625,75.03711 c 5.38884,1.43966 11.41383,1.51835 11.55273,6.16797 -2.97436,19.33066 4.01956,45.32454 -1.99609,60.0664 -0.3219,0.28527 -0.31155,0.75537 -0.13476,1.21485 -9.07951,-0.21345 -19.63869,-2.90661 -30.50391,-6.10938 -10.2024,-21.17356 7.43101,-42.73333 15.51953,-56.11914 2.19401,-1.56007 4.03717,-3.31147 5.5625,-5.2207 z m 34.23242,2.43164 c 0.20386,-0.004 0.40303,1.3e-4 0.59571,0.0156 0.77071,0.0616 1.45014,0.28384 2.01953,0.72461 -1.33017,1.30269 -3.11976,3.07984 -6.17578,3.87891 -0.48412,-1.36804 0.95722,-2.95077 1.58593,-4.36719 0.7031,-0.15023 1.36305,-0.24118 1.97461,-0.25195 z m -4.24804,0.55078 c -2.74166,5.94448 -6.38173,11.06378 -9.97657,16.22461 -3.89851,-8.74639 2.58803,-15.41999 9.97657,-16.22461 z m -38.44727,0.50781 c -3.55524,4.95156 -6.74486,11.97863 -10.50391,17.01953 -3.26558,4.36449 -5.10635,9.39687 -7.30664,6.74024 -0.99266,-6.50264 -1.00594,-14.84673 2.03321,-18.89453 7.06746,1.77517 3.9552,-4.58199 6.41406,-3.46094 4.1573,1.89536 5.54257,0.83073 9.36328,-1.4043 z m 43.53125,4.56055 c -2.24946,1.86327 -4.55481,3.63711 -7.13281,4.97461 1.62131,-3.73346 3.37995,-4.3223 7.13281,-4.97461 z"
       transform="scale(0.26458333)" />
  </g>
  <g
     inkscape:groupmode="layer"
     id="layer6"
     inkscape:label="slice3"
     style="display:inline"
     sodipodi:insensitive="true">
    <path
       id="path2586-1"
       style="color:#000000;display:inline;fill:#000000;fill-opacity:0.0767944;fill-rule:evenodd;stroke:#000000;stroke-width:1.00193;stroke-linecap:round;stroke-opacity:1;-inkscape-stroke:none"
       d="M 142.32617,0.50195312 0.578125,246.15625 142.32617,491.8125 h 23.19531 10.3379 46.35546 10.33594 46.35742 10.33594 46.35547 10.33789 46.35547 10.33789 23.19336 L 561.91406,255.96484 567.57422,246.15625 433.23828,13.349609 425.82617,0.50195312 Z M 159.7793,30.744141 h 188.66797 c -11.71526,7.49003 -20.70762,23.936455 -15.0918,37.152343 -9.25797,-20.698947 -30.56596,-19.848941 -38.91211,1.421875 6.50695,8.653078 23.94171,31.050691 -2.26953,23.691407 -25.74334,-9.795122 -18.45548,20.676844 -8.72852,32.361324 10.26401,20.78692 -23.33928,28.35487 -33.87304,13.93164 -13.22403,-25.40853 -43.77379,3.59143 -15.94336,13.76368 19.09944,8.56921 -5.25644,6.82101 -12.66016,6.42187 -28.60383,-3.73952 -44.91417,28.92502 -44.58984,53.26953 0.65636,8.02427 3.09916,12.5458 6.65625,14.76953 10.74472,6.71714 31.68165,-7.56915 44.45703,-9.91601 21.03376,12.67303 -17.35326,22.59029 -26.52344,29.16015 -0.44997,0.53757 -0.83539,1.04947 -1.20313,1.55274 -6.91364,9.46181 0.36578,12.90701 9.70118,12.0625 8.99631,-0.81384 19.88011,-5.60351 21.76758,-12.8418 21.42944,-18.67383 11.23243,20.68071 -5.2793,18.71289 -15.69318,4.94103 11.11533,12.3887 16.21484,0.87891 19.86318,-14.854 -0.71845,20.46275 10.20313,23.97266 2.05379,-12.2687 5.35677,-28.99554 21.78906,-33.84766 17.69785,-8.07573 45.92539,-14.41442 62.06836,-0.0723 14.63962,16.39601 34.0061,21.20996 50.86133,34.20313 14.89993,20.30227 20.1075,45.57433 25.37695,69.98633 -19.50045,2.03432 -38.45393,16.16781 -58.48242,16.24804 -20.89711,0.0837 -61.1875,-13.65039 -61.1875,-13.65039 -51.04414,-11.38683 -113.22755,25.20925 -172.64258,28.92188 L 35.482422,246.15625 Z m 211.55859,0 h 10.99414 c 3.97215,9.153314 4.35972,18.027237 -6.2793,6.109375 -1.39661,-2.550886 -2.98809,-4.563892 -4.71484,-6.109375 z m 43.25,190.757809 c 8.10648,1.02758 7.98647,6.34036 9.35742,10.87696 -4.88224,16.31955 -11.66915,28.26671 -20.71093,43.08203 -2.56245,-14.56979 3.91915,-27.98057 2.00781,-44.67188 4.17033,-2.69361 7.21412,-5.81586 9.3457,-9.28711 z m 51.38477,5.65821 c -3.53866,16.73697 -11.02161,31.71908 -18.19141,47.08789 -1.72067,6.95184 -6.6107,7.26577 -12.83789,9.67578 -9.57279,3.41556 -12.22742,9.42673 -17.09375,17.80078 -5.45503,-5.7185 -6.38245,-11.82373 -7.24414,-18.93164 11.24179,-18.42804 19.64628,-33.76572 25.89648,-52.62109 8.69923,4.29082 17.96696,5.90129 29.47071,-3.01172 z m -92.99414,3.00195 c 10.11852,0.57782 16.06689,4.7492 19.63476,13.75391 0.085,0.68108 -0.73242,16.07617 -0.73242,16.07617 0,0 -2.21707,-2.88959 -3.30274,-4.35157 -4.49395,-9.25394 -10.38385,-12.28231 -18.18164,-14.45507 -3.28962,-6.01107 -3.63948,-8.95173 2.58204,-11.02344 z m -45.67579,3.95312 c 7.97783,1.64573 15.94984,3.11015 23.99219,7.34375 3.09,-3.48458 6.61153,-5.61141 10.86328,-5.42968 0.0605,12.46079 3.27576,6.20858 16.5918,17.41601 7.80151,9.6731 11.1482,17.62886 9.04297,29.16016 -15.5206,-5.31305 -29.03048,-11.24615 -40.45899,-24.41211 l -15.61914,-11.53711 z m -8.00976,0.30469 h 0.002 c 0.58324,0.002 1.18448,0.0162 1.79688,0.043 0.25791,4.65853 2.63676,7.98318 4.62109,11.55664 -8.96639,-4.43344 -18.44009,-3.09914 -27.85156,-2.46875 -0.68747,-1.41154 -0.96591,-2.90853 0.66992,-4.81055 6.41257,-1.85175 12.01175,-4.35588 20.76172,-4.32031 z m 160.28711,1.98242 c 9.4395,0.19002 -0.33671,13.29595 -0.54883,19.4375 9.79011,22.75449 29.20739,0.24987 43.0625,6.71485 0.2042,0.3353 0.40056,0.56948 0.60352,0.88672 l -64.34375,111.50781 c -6.1503,-3.69696 -14.35494,-7.78852 -23.91016,-10.6836 -0.0175,-0.0711 -0.0373,-0.14175 -0.0547,-0.21289 -3.69392,-21.76426 -17.20122,-55.91986 8.52149,-68.84375 23.78007,-9.28052 21.79975,-39.06705 31.36328,-58.03906 2.21668,-0.55798 3.95814,-0.79472 5.30664,-0.76758 z"
       transform="scale(0.26458333)" />
  </g>
  <g
     inkscape:groupmode="layer"
     id="layer5"
     inkscape:label="slice2"
     style="display:inline"
     sodipodi:insensitive="true">
    <path
       id="path31-5"
       style="color:#000000;display:inline;fill:#000000;fill-opacity:0.0767944;fill-rule:evenodd;stroke:#000000;stroke-width:1.00193;stroke-linecap:round;stroke-opacity:1;-inkscape-stroke:none"
       d="m 142.32617,0.5 v 0.001953 l -18.30273,31.71875 -53.187502,92.175777 -18.626954,32.28125 -4.726562,8.19141 -3.353516,5.8125 -12.65625,21.93359 -0.302734,0.52539 -30.591797,53.01563 67.972656,117.79883 29.726563,51.51758 4.509766,7.8164 39.53906,68.52344 h 23.19531 v 10.33594 h 10.3379 V 491.8125 h 46.35546 v 10.33594 h 10.33594 V 491.8125 h 46.35742 v 10.33594 h 10.33594 V 491.8125 h 46.35547 v 10.33594 H 345.9375 V 491.8125 h 46.35547 v 10.33594 h 10.33789 V 491.8125 h 23.19336 0.002 L 567.57422,246.15625 464.88867,68.197266 463.37891,65.582031 425.82617,0.50195312 425.82422,0.5 Z m 24.12891,30.246094 h 70.69726 c -1.93689,3.154276 -4.22788,6.311232 -6.27734,8.408203 -3.43854,3.518298 -6.25195,8.567342 -6.25195,11.220703 0,2.653353 -1.46143,6.038432 -3.24805,7.521484 -1.78662,1.483064 -5.39556,6.924752 -8.01953,12.091797 -2.62398,5.16703 -6.95156,11.813736 -9.61719,14.771485 -2.66566,2.957722 -5.89523,7.127444 -7.17773,9.265625 -4.06383,6.775389 -5.8913,0.948933 -1.98047,-6.314453 2.05814,-3.822494 3.35597,-8.111486 2.88281,-9.53125 -0.47312,-1.419757 -5.29456,6.146518 -10.71289,16.8125 -5.41833,10.665962 -11.13388,20.726172 -12.70117,22.357422 -3.40728,3.54636 -6.52966,1.36479 -3.43555,-2.40039 1.18571,-1.44292 1.72789,-7.25585 1.20703,-12.91797 -0.52089,-5.662122 -1.05017,-13.461444 -1.17773,-17.332031 -0.12775,-3.870607 -1.9297,-8.735934 -4.00391,-10.810547 -2.07424,-2.074647 -3.77148,-5.418759 -3.77148,-7.431641 0,-2.012882 -1.26476,-5.486987 -2.81055,-7.720703 -4.53853,-6.558297 -1.51363,-25.679687 4.0625,-25.679687 1.12114,0 1.89043,-0.940192 2.33594,-2.310547 z m 80.65039,0 h 58.37305 l 0.0605,0.765625 c 0.33071,4.246598 -0.1943,7.720703 -1.16601,7.720703 -0.97168,0 -1.10671,1.069562 -0.29883,2.376953 0.91733,1.484587 0.56582,1.817204 -0.93945,0.886719 -1.3256,-0.819428 -1.7888,-2.495462 -1.0293,-3.72461 0.75953,-1.229137 0.46933,-1.67095 -0.64453,-0.982422 -1.11383,0.68854 -6.3298,-0.04358 -11.58985,-1.626953 -5.79038,-1.742991 -10.03795,-2.111247 -10.76562,-0.933593 -0.661,1.069797 1.39972,1.957917 4.58008,1.974609 3.18036,0.01633 8.0992,1.392791 10.92968,3.056641 2.83049,1.663842 6.76671,3.609781 8.74805,4.326172 4.40765,1.593637 4.7572,4.941406 0.51563,4.941406 -1.6983,0 -4.83229,1.743942 -6.96485,3.876953 -2.55428,2.554775 -5.89224,3.595068 -9.77929,3.048828 -5.65792,-0.795107 -5.7096,-0.728459 -1.25391,1.591797 3.53556,1.841091 6.54615,1.849904 12.58984,0.03906 16.28092,-4.878856 23.9725,-2.657133 31.18164,9.009766 3.7745,6.108518 4.50001,10.230114 4.37891,24.822266 l -0.14453,17.498046 10.21289,12.67578 c 6.12011,7.59657 10.21289,14.73288 10.21289,17.80664 0,4.95218 0.10542,4.99148 3.02344,1.13282 4.05891,-5.36742 4.04575,-0.3724 -0.0195,7.49023 -1.74456,3.37429 -2.60278,7.05642 -1.90625,8.18359 0.69656,1.12724 0.28007,1.79553 -0.92578,1.48438 -1.20575,-0.31121 -9.14898,6.79026 -17.65235,15.78125 -14.73052,15.57527 -15.60371,16.15846 -18.48828,12.35352 -1.66515,-2.19645 -2.59088,-5.22622 -2.05664,-6.73438 0.5342,-1.50814 0.97266,-3.56564 0.97266,-4.57227 0,-1.62851 17.18525,-10.50888 24.39062,-12.60351 1.52742,-0.44403 4.04549,-3.82604 5.5957,-7.51367 3.01886,-7.18118 0.32735,-7.20414 -4.84179,-0.041 -1.45448,2.01543 -7.01291,5.73203 -12.35157,8.25781 -5.33869,2.52578 -10.40085,4.94756 -11.25,5.38282 -0.84914,0.43524 -1.54296,-0.67577 -1.54296,-2.46875 -1.6e-4,-1.793 1.15653,-3.25977 2.57226,-3.25977 1.41577,0 6.62764,-3.70663 11.58203,-8.23633 4.95447,-4.5297 10.30348,-8.23437 11.88672,-8.23437 1.58325,0 3.78253,-2.37647 4.88672,-5.28125 2.6863,-7.06689 2.68364,-7.07713 -2.62305,-7.04102 -6.53442,0.0444 -10.07505,2.75592 -13.77343,10.55274 -3.6076,7.60542 -15.38385,16.51434 -19.66016,14.87304 -2.01309,-0.77266 -3.21188,1.6306 -4.24414,8.51563 -0.79094,5.27535 -2.52818,10.00981 -3.86133,10.52148 -1.33319,0.51166 -5.95385,5.80277 -10.26758,11.75782 -6.60544,9.11865 -9.755,11.4981 -19.96093,15.07421 -8.32517,2.91709 -11.39585,3.37381 -9.8086,1.46094 1.40092,-1.68834 1.50029,-2.7832 0.25195,-2.7832 -2.96946,0 -6.92408,5.29521 -6.23632,8.34961 0.37152,1.64934 -2.32875,2.92119 -7.35352,3.46484 -5.33102,0.5768 -7.48905,0.13053 -6.56836,-1.35937 0.75413,-1.22051 0.11186,-2.21875 -1.42773,-2.21875 -3.88256,0 -13.87691,4.8124 -13.89649,6.6914 -0.008,0.84932 -0.96473,1.54297 -2.12304,1.54297 -1.15828,0 -0.71909,-2.11668 0.97656,-4.70508 2.85256,-4.35445 2.78058,-4.70703 -0.98047,-4.70703 -2.4181,0 -3.47266,0.62094 -3.47266,2.65821 -1.03397,0.52595 -2.33979,0.98982 -3.50195,1.49023 -0.13506,-0.1542 -0.36719,-0.28516 -0.36719,-0.28516 0,0 0.67136,-0.51443 0.51953,-0.72461 -0.28174,-0.39014 -1.45312,0.23438 -1.45312,0.23438 0,0 0.0142,-0.46761 -0.16016,-0.55469 -0.27401,-0.13682 -0.875,0.3086 -0.875,0.3086 -0.46136,0.30504 -1.00689,0.21958 -1.58203,-0.008 l -0.53711,-1.19922 c -1.09978,-2.98757 0.47454,-10.74307 3.82227,-13.28906 1.41766,-1.12869 3.07254,-0.95922 5.20508,-1.70898 1.53767,-0.54061 3.11676,-2.47152 3.25781,-4.51172 -0.20568,-0.57101 -1.14809,-0.47763 -1.63867,-0.84375 -2.47836,-2.21548 -3.71881,-3.06203 -7.29883,-2.87891 -0.4045,-1.11834 -0.66786,-2.13481 -1.75195,-2.77539 0.0213,1.09956 0.2173,2.06458 -0.34571,3.01758 -1.7595,1.26567 -4.18775,3.42197 -7.34765,3.5332 -3.48252,0.0548 -5.78625,0.51586 -9.20704,1.28711 -6.53741,1.13637 -9.53851,7.05608 -9.48828,14.59571 -0.96487,-0.80544 -2.21344,-1.37538 -3.34765,-3.43555 -0.39076,-2.69135 -0.17831,-5.57457 -1.3086,-8.05078 -3.22277,-7.06046 -9.07313,-6.97971 -16.60937,-2.77539 -2.92959,2.7705 -5.29501,6.70375 -5.9082,10.62304 -0.59405,-1.2962 -1.33119,-2.64759 -1.76954,-3.82422 -1.89845,-5.09587 -5.03125,-11.583 -6.96289,-14.41406 -4.5696,-6.69743 -10.28984,-29.25713 -8.09179,-31.91211 0.93747,-1.13242 6.41739,-3.88627 12.17773,-6.11914 5.76038,-2.23287 12.81743,-6.07573 15.68359,-8.53906 2.94894,-2.53443 6.87589,-4.04391 9.04493,-3.47656 5.75225,1.50453 11.61839,-2.50753 18.68554,-12.78125 3.4938,-5.07894 7.58776,-9.23438 9.09961,-9.23438 1.51185,0 3.30754,-2.08485 3.99024,-4.63281 2.00099,-7.46817 1.50095,-8.77709 -1.72461,-4.51172 -1.66228,2.19819 -3.05187,2.95266 -3.08789,1.67578 -0.085,-3.01377 5.07256,-7.29493 6.75781,-5.60937 1.94929,1.94966 15.77737,-9.282665 18.33203,-14.89063 1.22657,-2.692576 3.94333,-5.43884 6.03711,-6.103515 5.05225,-1.603843 8.97576,-8.933848 6.24414,-11.666016 -1.37114,-1.371386 -3.25238,-0.233437 -5.64062,3.41211 -1.97118,3.009014 -4.72436,5.034606 -6.11719,4.5 -1.39287,-0.534615 -3.57161,0.06774 -4.8418,1.33789 -1.27018,1.270439 -2.31055,1.483725 -2.31055,0.47461 0,-1.009138 -1.31223,-0.03788 -2.91796,2.158203 -1.60574,2.196381 -3.47963,3.434555 -4.16407,2.75 -1.4866,-1.486897 10.56071,-28.996492 13.49219,-30.808594 1.12324,-0.694375 1.78035,-2.102212 1.46094,-3.130859 -0.7392,-2.380668 6.89264,-15.253907 9.04297,-15.253907 0.73642,0 1.25939,-1.954912 1.45117,-4.36914 z m 60.36914,0 h 44.9375 c -1.31479,2.382809 -2.54163,4.268774 -3.4668,4.853515 -1.3186,0.833384 -3.12044,5.003101 -4.0039,9.265625 l -1.60547,7.75 -1.47266,-6.177734 c -1.24634,-5.228202 -1.55066,-5.464123 -1.97461,-1.542969 -0.27553,2.547954 -0.73254,5.558981 -1.01562,6.691407 -0.28309,1.132421 -0.68899,6.923909 -0.90235,12.86914 -0.28497,7.947617 -0.83568,9.699376 -2.08398,6.619141 -0.93377,-2.304151 -3.18167,-5.419304 -4.99414,-6.923828 -1.81247,-1.504532 -2.84298,-3.468071 -2.29102,-4.361329 0.55193,-0.893245 -2.15746,-3.488447 -6.01953,-5.767578 -6.46324,-3.814161 -10.00036,-9.296493 -15.10742,-23.27539 z m 49.4043,0 H 408.375 l 25.66406,44.474609 c -3.42304,0.846054 -7.60126,0.887201 -12.43359,-0.01953 -9.33834,-1.752227 -18.35541,3.038179 -28.98828,15.402344 -2.38632,2.774827 -7.34966,8.244001 -11.0293,12.154293 -3.67962,3.91032 -6.68945,7.8477 -6.68945,8.74805 0,3.58964 -10.28342,12.42874 -16.55078,14.22656 -3.6593,1.04967 -6.08042,1.33442 -5.38086,0.63477 0.69951,-0.69967 -2.08113,-4.98401 -6.17969,-9.52149 l -7.45117,-8.25 1.19922,-18.533199 c 0.66032,-10.193605 2.04276,-19.084494 3.07226,-19.755859 1.02951,-0.671343 1.94347,-4.141952 2.0293,-7.712891 0.0858,-3.570928 1.95055,-10.056068 4.14453,-14.412109 2.44445,-4.853432 4.89095,-11.099006 7.09766,-17.435548 z m -200.85743,6.511718 c -0.51901,1.869757 -1.3,3.872367 -2.51367,5.605469 -1.75151,2.501148 -2.91532,5.721568 -2.58593,7.15625 0.32953,1.434679 -1.54254,5.616071 -4.16016,9.292969 -3.06349,4.303102 -5.77616,6.645893 -7.30078,6.644531 z m 0.26954,28.53711 c 1.32348,-0.308699 3.46929,2.047967 5.97265,6.61914 4.99964,9.129294 2.20009,9.889345 -4.30859,1.169922 -2.60901,-3.495197 -3.41126,-6.25844 -2.17774,-7.492187 0.15419,-0.154218 0.32461,-0.252775 0.51368,-0.296875 z m -5.27149,4.412109 7.23242,7.234375 7.23438,7.234375 -3.63672,8.066407 c -3.07457,6.819537 -3.27652,9.491572 -1.30859,17.308592 3.55952,14.13892 2.85934,15.10893 -3.72657,5.16406 -3.32931,-5.02732 -8.88767,-11.23734 -12.35156,-13.79882 -4.99635,-3.694728 -6.29687,-4.004895 -6.29687,-1.505864 0,1.732544 -1.28136,3.148434 -2.84766,3.148434 -3.2082,0 -5.80861,-9.79056 -3.05274,-11.494137 0.98037,-0.606051 1.78321,-2.899645 1.78321,-5.097656 0,-2.198015 1.0263,-3.996094 2.28125,-3.996094 1.4059,0 1.78609,1.974871 0.99023,5.146485 -0.74481,2.968285 -0.40302,5.148437 0.80664,5.148437 1.15378,0 2.09766,-2.824055 2.09766,-6.275391 0,-4.126703 1.84869,-7.988885 5.39844,-11.279296 z m 284.04492,6.791016 0.45899,0.794922 13.93945,24.162111 c -0.54844,-0.0106 -0.84395,-0.0937 -1.48047,-0.0801 -3.95936,0.0851 -7.20175,0.76778 -7.20508,1.51758 -0.004,0.74978 -3.71141,1.99056 -8.24023,2.75586 -4.52878,0.76526 -8.23438,2.213 -8.23438,3.21679 0,1.00381 -2.61953,3.17943 -5.82226,4.83594 -4.59833,2.37836 -7.62303,2.55552 -14.38086,0.83985 -4.70687,-1.19495 -8.05267,-2.98959 -7.43555,-3.98829 0.61712,-0.99863 -1.65814,-1.8164 -5.05468,-1.8164 -3.39663,0 -6.74753,0.92617 -7.44727,2.05859 -0.69974,1.13243 -2.25209,2.0586 -3.44922,2.0586 -1.19713,0 1.05643,-3.57853 5.00781,-7.95313 3.95142,-4.37461 7.99608,-9.239895 8.98828,-10.812499 0.99217,-1.572609 5.14131,-5.721043 9.22071,-9.21875 6.57573,-5.638092 9.35511,-6.509917 24.49609,-7.677735 2.33133,-0.179814 4.54434,-0.421691 6.63867,-0.693359 z M 223.67383,89.208984 c 0.0988,0.007 0.1851,0.04446 0.25586,0.115235 0.5661,0.566207 -0.048,3.041175 -1.36328,5.5 -1.31566,2.458821 -2.85578,4.007621 -3.42188,3.441406 -0.5661,-0.566211 0.048,-3.041179 1.36328,-5.5 1.1512,-2.151478 2.47409,-3.60595 3.16602,-3.556641 z m -18.35156,2.009766 c 0.75494,0.09866 0.69733,1.606261 -0.10547,4.841797 -0.81453,3.28306 -5.99229,10.402803 -11.50586,15.820313 -5.51358,5.41749 -10.60213,11.67012 -11.3086,13.89648 -1.2768,4.02363 -5.125,5.70141 -5.125,2.23438 0,-2.32653 23.83062,-34.46476 27.01563,-36.433595 0.43443,-0.268549 0.77765,-0.392261 1.0293,-0.359375 z m 9.80859,0.195312 c 0.73817,-0.124129 1.25976,0.329083 1.25976,1.228516 0,1.199256 -0.92639,2.181641 -2.05859,2.181641 -1.13219,0 -2.05859,-0.408792 -2.05859,-0.908203 0,-0.499363 0.9264,-1.481763 2.05859,-2.181641 0.28305,-0.174975 0.55277,-0.278935 0.79883,-0.320313 z m -50.08398,0.722657 c 1.01442,0.04815 2.31153,1.890188 3.66601,5.636719 1.86728,5.164822 1.9049,8.302252 0.14844,12.759762 -2.15588,5.47177 -2.45565,5.60328 -4.01758,1.79102 -0.92795,-2.26485 -1.75052,-7.53704 -1.83008,-11.7168 -0.10715,-5.629437 0.72889,-8.532609 2.03321,-8.470701 z m 24.1914,5.86914 c 0.22449,-0.0279 0.35266,0.130298 0.35742,0.494141 0.0442,3.35703 -6.36216,13.26119 -7.70703,11.91602 -0.55396,-0.55408 0.94545,-4.0573 3.33203,-7.78516 1.78991,-2.795892 3.3441,-4.541315 4.01758,-4.625001 z m -49.20508,8.251951 c 4.32153,-0.21177 12.54297,8.37132 12.54297,13.57422 0,2.65766 -1.5025,3.81641 -4.94531,3.81641 -3.66495,0 -5.62888,-1.73199 -7.58594,-6.69141 -1.45234,-3.68038 -2.97238,-7.27264 -3.37695,-7.98242 -0.40458,-0.70978 0.74634,-1.85794 2.55664,-2.55273 0.24985,-0.0959 0.52049,-0.14995 0.80859,-0.16407 z m 312.19532,0.48633 80.44336,139.41211 -93.10157,161.34766 C 371.2513,396.95192 290.13405,370.95159 255.18555,389.40039 c -43.94933,23.2002 -81.99019,16.41895 -122.94727,24.43555 L 87.003906,335.44336 c 6.012209,-6.89825 6.601181,-10.45399 5.917969,-27.88281 -0.268951,-6.86073 0.547315,-9.07157 4.033203,-10.9375 2.403201,-1.28642 6.405502,-2.00535 8.894532,-1.59766 2.83369,0.4638 9.39054,-2.57845 17.53711,-8.13867 7.15576,-4.88398 13.86068,-8.3556 14.90039,-7.71289 1.03971,0.64278 1.36107,-0.2079 0.71484,-1.89258 -0.77948,-2.03169 1.63998,-4.84105 7.1875,-8.34375 4.59942,-2.90404 9.37377,-5.2793 10.60938,-5.2793 1.23553,0 3.73044,-1.48589 5.54492,-3.30078 2.24629,-2.2467 5.43594,-2.95107 9.99609,-2.21094 8.74776,1.41988 15.23047,-0.37495 15.23047,-4.21484 0,-2.08258 1.1585,-2.61915 3.60352,-1.66992 1.98134,0.76885 10.08631,1.92565 18.01172,2.56836 7.9254,0.64278 17.65255,2.76172 21.61523,4.70898 11.76231,5.77983 22.27265,6.40753 38.25586,2.28711 17.33465,-4.46882 18.57856,-5.11462 29.69336,-15.42187 8.34985,-7.74319 8.85527,-7.91351 16.51172,-5.61914 5.26726,1.57843 10.66452,1.74313 16.20508,0.49804 10.1362,-2.2779 26.17744,-11.42504 29.57422,-16.86523 1.44464,-2.31369 4.78079,-3.99805 7.91992,-3.99805 2.98269,0 8.21496,-0.55769 11.62695,-1.24023 5.30098,-1.06041 6.38919,-2.39981 7.47656,-9.20117 0.98688,-6.17279 2.99417,-9.1298 8.94141,-13.17188 4.21784,-2.86665 9.2284,-5.21289 11.13672,-5.21289 1.96649,0 5.10437,-3.34471 7.24219,-7.7207 2.43148,-4.97715 5.08486,-7.61419 7.46679,-7.41993 4.11545,0.3357 19.97852,-19.57454 19.97852,-25.07617 0,-2.73301 -1.06365,-2.4721 -5.9082,1.45508 -3.24945,2.63408 -5.60142,5.33793 -5.22657,6.00781 0.37493,0.66987 -2.56519,4.36617 -6.5332,8.21289 -5.89138,5.71129 -7.55501,6.44176 -9.07227,3.98633 -1.58007,-2.55711 -2.06198,-2.47595 -3.21875,0.53906 -0.74815,1.95 -2.92804,3.54493 -4.8457,3.54493 -2.09548,0 -5.29097,3.71349 -8.00781,9.30664 -2.48625,5.11848 -6.8396,10.36267 -9.67383,11.65429 -2.83427,1.29165 -5.18302,2.89495 -5.2207,3.5625 -0.12813,2.27341 -8.26514,11.0671 -9.29102,10.04102 -2.21461,-2.21506 9.64421,-23.56 15.99805,-28.79492 l 6.74219,-5.55469 -5.79297,0.42188 c -4.97998,0.36215 -7.04509,2.73052 -14.72071,16.8789 -7.90172,14.56524 -9.66273,16.53055 -15.30859,17.10156 -3.50861,0.35486 -6.37891,-0.0185 -6.37891,-0.83007 0,-3.05934 12.41574,-27.61133 13.96289,-27.61133 0.88952,0 3.25923,-2.77851 5.26563,-6.17578 3.61499,-6.12096 10.58781,-8.33708 12.08594,-3.8418 0.50252,1.5079 2.02709,1.08466 4.30664,-1.19531 3.50819,-3.5089 2.89478,-8.46316 -0.76758,-6.19922 -1.05396,0.6515 -1.91602,-0.3084 -1.91602,-2.13281 0,-1.83448 2.76038,-4.27987 6.17579,-5.47071 6.9236,-2.41408 8.24746,-5.86718 2.25,-5.86718 -2.99815,0 -3.68373,-1.09357 -2.90821,-4.63282 0.79945,-3.64844 0.56002,-3.9845 -1.12305,-1.58398 -1.74145,2.48379 -2.71208,1.7203 -5.24414,-4.11914 -2.53765,-5.85227 -3.12169,-6.30955 -3.1875,-2.49414 -0.0661,3.82037 -0.93565,4.45853 -4.76953,3.49609 -3.91527,-0.98288 -4.76012,-0.29257 -5.13086,4.1875 -0.64289,7.76916 -4.43319,13.88192 -7.80468,12.58789 -2.33141,-0.89482 -2.43972,-0.37491 -0.55079,2.65039 2.48614,3.98175 1.40548,9.65445 -5.64648,29.62891 -2.81174,7.96415 -4.92023,10.47433 -10.93164,13.02148 -10.89868,4.61793 -22.88477,5.53329 -22.88477,1.74805 0,-1.65961 1.54272,-3.01758 3.42969,-3.01758 1.88701,0 2.82116,-0.60838 2.07617,-1.35351 -2.77043,-2.77098 3.47726,-6.8871 10.69922,-7.04883 l 7.4668,-0.16797 -5.69922,-2.52539 -5.70117,-2.52539 5.05859,-4.75196 c 8.08453,-7.59648 21.90558,-33.17414 24.28321,-44.93945 2.1479,-10.62858 4.27726,-13.31645 6.52929,-8.23633 0.62748,1.41553 0.93767,0.72182 0.6875,-1.54296 -0.31332,-2.8379 0.61655,-3.9412 2.99219,-3.54883 1.896,0.31313 4.03559,-0.38512 4.75586,-1.55078 0.81456,-1.31828 6.26925,-1.63643 14.42773,-0.84375 13.37983,1.29996 19.05174,-0.82516 29.61329,-11.09375 1.5612,-1.51793 3.96006,-2.32932 5.33203,-1.80274 1.37193,0.52652 3.76851,0.16999 5.32617,-0.79297 1.58963,-0.98265 3.82862,-0.9257 5.10156,0.13086 1.42197,1.18034 3.94172,0.70919 6.75781,-1.26367 0.71521,-0.50105 1.00471,-0.85088 1.53907,-1.28711 z m -321.66993,3.26953 c 0.38462,-0.10061 1.10781,1.38781 2.54688,4.67188 4.2268,9.64588 12.27606,15.19337 20.1543,13.89257 l 6.52148,-1.07617 -10.23633,9.39844 c -5.63001,5.16884 -10.40365,9.39648 -10.60742,9.39649 -0.20375,0 -2.31282,-6.39714 -4.6875,-14.2168 -2.37467,-7.81966 -4.24274,-16.38965 -4.15039,-19.04492 0.0662,-1.90348 0.15983,-2.94323 0.45898,-3.02149 z m -18.48828,3.41211 c -0.19835,3.03224 -0.21539,5.54847 0.0625,6.61133 1.08327,4.14329 -0.029,4.52781 -4.28906,0.71484 z m 89.3086,4.04688 c 1.27793,0 -8.06583,13.10313 -10.6211,14.89453 -2.58996,1.81571 -5.24609,2.02246 -5.24609,0.4082 0,-1.31701 14.50172,-15.30273 15.86719,-15.30273 z m -76.31446,4.83007 c 0.31202,-0.0472 0.52616,0.70598 0.58789,2.20508 0.0893,2.17047 -0.39794,3.38534 -1.08203,2.70117 -0.68404,-0.68418 -0.75692,-2.45901 -0.16211,-3.94531 0.24643,-0.61593 0.46904,-0.93258 0.65625,-0.96094 z M 106,123.94922 c 4.95152,4.5163 10.6085,9.26315 14.03516,11.53125 8.61362,5.70136 14.8376,13.99615 12.8789,17.16601 -2.47177,4.00022 -8.11917,0.89831 -8.77929,-4.82226 -0.3583,-3.10449 -1.60222,-5.64453 -2.76368,-5.64453 -1.16146,0 -4.467,-1.85234 -7.3457,-4.11719 -2.87871,-2.26485 -7.47338,-4.11914 -10.20898,-4.11914 -1.2314,0 -2.2309,-0.29451 -3.1543,-0.74805 l 1.80078,-3.11914 z m 66.39062,1.79297 c 1.28164,-0.27204 1.44456,2.59923 -0.29492,7.6875 -2.16899,6.3448 -4.2373,8.30062 -11.5957,10.97461 -4.92499,1.78968 -9.33134,2.95582 -9.79297,2.59179 -0.46159,-0.36404 2.07773,-3.44999 5.64258,-6.85742 3.56485,-3.40742 7.38369,-6.19531 8.48633,-6.19531 1.10267,0 2.99711,-1.85234 4.20898,-4.11719 1.40515,-2.62607 2.57676,-3.92076 3.3457,-4.08398 z m 208.14258,21.08008 c 0.98103,-0.0969 1.96608,0.47015 2.79883,1.78515 2.42317,3.82655 2.3096,5.92578 -0.32031,5.92578 -1.19902,0 -1.62826,-1.15868 -0.95313,-2.57422 0.6751,-1.41553 0.0395,-0.95244 -1.41211,1.0293 -3.53535,4.82631 -5.61272,4.56067 -4.27734,-0.54687 0.90293,-3.45346 2.52902,-5.45759 4.16406,-5.61914 z m -273.67187,5.70703 c 1.82816,-0.40968 4.53465,2.74215 4.47851,5.72851 -0.0576,3.05683 -0.4315,2.99718 -3.0664,-0.48633 -1.65061,-2.18217 -2.60992,-4.35873 -2.13086,-4.83789 0.21475,-0.21479 0.45758,-0.34577 0.71875,-0.40429 z m -18.933596,2.73632 c 0.622272,0.44059 0.833985,1.30612 0.833985,2.74805 0,2.62569 -0.884509,3.43257 -4.324219,3.30274 z m 285.777346,10.50782 c 0.22957,-0.008 0.41683,0.14618 0.54297,0.48437 0.99224,2.66013 -3.20636,11.87012 -4.72071,10.35547 -0.50604,-0.50613 0.14246,-3.59596 1.44141,-6.86719 0.97413,-2.45342 2.0476,-3.94854 2.73633,-3.97265 z m -261.24805,3.70117 c 1.37,-0.15731 4.2331,1.05309 6.86328,2.9707 3.00591,2.1916 6.96707,4.54322 8.80274,5.22461 1.83566,0.68138 3.98303,3.86078 4.77148,7.06641 0.78847,3.20562 2.98406,8.1455 4.87891,10.97656 4.98654,7.45028 4.82764,12.34688 -0.40235,12.38477 -3.60471,0.0265 -3.82206,0.39134 -1.26367,2.1289 2.1501,1.46022 -1.44381,1.68303 -11.83594,0.73242 -8.24536,-0.75422 -14.92411,-0.55676 -14.92382,0.44336 2.8e-4,0.99565 4.35254,1.90362 9.67382,2.01758 5.3213,0.11384 9.99886,1.1741 10.39258,2.35547 0.39369,1.18137 2.52426,1.67572 4.73438,1.09766 6.42129,-1.67956 4.99243,6.16889 -2.07422,11.39453 -6.55186,4.84496 -10.37695,5.74762 -10.37695,2.44726 0,-3.65791 -3.60486,-2.18393 -4.67579,1.91211 -0.59776,2.28628 -6.37619,6.66727 -13.61914,10.32422 -6.920189,3.49402 -12.582026,7.26665 -12.582028,8.38281 0,3.20473 -8.235805,2.36113 -9.515624,-0.9746 h -0.002 c -1.906537,-4.96938 2.901962,-16.0688 10.578125,-24.42188 7.138228,-7.76771 7.375351,-7.85064 19.037107,-6.625 l 11.80859,1.24023 -7.95117,-2.99218 c -4.37327,-1.64585 -9.69907,-2.65573 -11.83594,-2.24414 -4.237484,0.81622 -4.800908,-0.55647 -2.02539,-4.93946 1.06423,-1.68051 2.93929,-2.18703 4.59961,-1.24218 2.20818,1.25662 2.27971,1.02875 0.33594,-1.07227 -1.92487,-2.08059 -1.79816,-3.96461 0.58008,-8.56445 1.67686,-3.24332 3.18463,-11.02921 3.34961,-17.30078 0.16486,-6.27158 1.14921,-11.92655 2.1875,-12.56836 0.12978,-0.0802 0.29452,-0.13183 0.49023,-0.1543 z m -27.691405,1.75977 c 1.579038,-0.16258 1.922457,1.65127 0.996094,5.43359 -1.175188,4.79818 -9.299502,18.98758 -10.896485,19.03125 -0.283048,0.009 -0.513671,-3.65701 -0.513672,-8.14258 0,-5.73841 1.333953,-9.39968 4.503907,-12.35352 2.705431,-2.52096 4.682015,-3.84233 5.910156,-3.96874 z m 3.462891,11.86718 c 0.736306,0.3948 -0.22094,5.84786 -2.738282,16.91797 -2.965111,13.03915 -3.688465,14.28193 -7.720703,13.29297 -2.446616,-0.60006 -3.290248,-0.5583 -1.875,0.0918 1.415248,0.65017 2.574219,2.6035 2.574219,4.33984 0,2.26913 -1.303703,2.80639 -4.632812,1.91406 -2.547447,-0.68286 -5.813497,-1.25407 -7.257813,-1.26953 -3.705109,-0.0397 2.422618,-11.57641 7.628906,-14.36328 2.161901,-1.15723 6.288045,-6.97571 9.167969,-12.92969 2.683754,-5.5484 4.280833,-8.3012 4.853516,-7.99414 z m 221.828124,0.25782 c 0.41329,0 0.6727,2.77851 0.57617,6.17578 -0.14551,5.11022 -1.03404,6.17773 -5.14843,6.17773 h -4.97461 l 4.39843,-6.17773 c 2.4186,-3.39727 4.73519,-6.17579 5.14844,-6.17578 z m 100.94727,0.87695 c 0.27458,-0.017 0.50421,0.0511 0.66797,0.21484 0.65498,0.65516 -0.1726,2.05196 -1.8379,3.10547 -4.35787,2.75654 -4.92668,2.41876 -1.95703,-1.16016 1.07414,-1.29449 2.30319,-2.10922 3.12696,-2.16015 z m -345.257816,9.47265 c -0.747157,3.58493 -1.610098,5.11904 -3.300782,5.71875 z m -2.527344,8.33985 c 0.556983,0.16018 0.01644,1.21579 -1.509766,3.66015 -2.21918,3.5542 -4.159576,4.88296 -5.160156,3.93946 l 3.966797,-6.87696 c 0.214742,-0.0788 0.274336,-0.0675 0.490234,-0.15039 1.149015,-0.441 1.878701,-0.66837 2.212891,-0.57226 z m 239.87305,1.90039 c 2.26443,0 3.54544,0.92617 2.8457,2.05859 -0.69974,1.13243 -3.12428,2.0586 -5.38867,2.0586 -2.26443,0 -3.54541,-0.92617 -2.84571,-2.0586 0.69975,-1.13242 3.12429,-2.05859 5.38868,-2.05859 z m -17.10352,2.12305 c 3.00053,0.056 2.91215,0.49678 -0.63672,3.18164 -2.26439,1.7131 -6.09575,2.61748 -8.51367,2.01171 -2.56218,-0.64188 -5.45745,0.18027 -6.94141,1.96876 -1.40039,1.68764 -4.05377,3.03763 -5.89648,3 -2.57136,-0.0522 -2.18381,-1.04105 1.66602,-4.2461 3.22771,-2.68713 6.66747,-3.76052 9.65039,-3.01172 2.54963,0.64006 5.21175,0.23421 5.91406,-0.90234 0.70235,-1.13658 2.84329,-2.03797 4.75781,-2.00195 z m -80.20703,3.42578 c 0.82566,0.0548 1.35423,0.53681 2.57422,0.0215 l 0.0742,0.80664 c 0.34605,0.7806 0.83186,1.19356 1.27148,1.72656 1.37945,1.33177 2.88923,2.22353 4.07227,4.21485 0.84775,0.0984 1.79005,0.23729 2.71094,0.23828 -4.01781,1.53136 -8.03293,2.78623 -12.22266,3.9707 0.048,-0.17391 0.0744,-0.37455 -0.0293,-0.45703 -0.31893,-0.25382 -1.18555,0.36524 -1.18554,0.36524 -0.63256,0.12453 -1.05734,-0.10809 -1.35547,-0.55665 1.69825,-2.24944 3.29317,-3.90406 4.09765,-6.71874 -0.0736,-1.1752 -0.49866,-2.20523 -0.008,-3.61133 z m -26.43555,0.004 c 1.57281,2.41971 5.07924,5.17209 7.61524,6.06641 1.5734,0.78843 5.88292,2.21174 8.84375,3.02539 0,0 0.43498,1.63345 0.83203,2.12305 0.44323,0.54654 1.73242,1.22851 1.73242,1.22851 0.0268,0.019 0.0557,0.0363 0.0859,0.0527 -2.51956,0.64475 -5.56765,1.50597 -7.42188,1.94531 l -6.55078,1.16211 c -3.73324,0.20042 -7.30674,-0.31501 -10.44922,-2.75586 0.94351,-0.0379 1.99562,-0.19554 3.17774,-0.49219 4.01433,-2.14146 4.71141,-8.2195 2.13476,-12.35547 z m 117.22071,0.90039 c 0.58375,-0.0742 1.11183,0.0395 1.48047,0.40821 1.47454,1.47486 -1.12398,5.49218 -3.55274,5.49218 -1.06537,0 -1.9375,-0.87191 -1.9375,-1.9375 0,-1.82195 2.2585,-3.74033 4.00977,-3.96289 z m 52.91601,2.65821 c 0.67789,-0.0234 1.22754,0.34875 1.70117,1.11523 0.74514,1.20589 2.21749,1.65935 3.27149,1.00781 5.1414,-3.1782 0.94245,2.59312 -6.66211,9.15625 -12.43166,10.72919 -21.41189,13.43555 -26.04688,7.84961 -1.20608,-1.45349 -1.55198,-3.55908 -0.76757,-4.67968 2.32973,-3.3283 12.35858,-9.14844 15.76367,-9.14844 1.73813,0 3.16015,-0.98239 3.16015,-2.18164 0,-1.19926 0.96861,-1.58206 2.15039,-0.85157 1.18182,0.73056 3.41503,0.2771 4.96289,-1.00781 0.98393,-0.81674 1.78891,-1.23639 2.4668,-1.25976 z m -63.24414,1.18164 c 2.14556,0 4.2013,10.11213 2.79883,13.76758 -1.2147,3.16609 -4.71484,3.64628 -4.71484,0.64648 0,-1.13243 -1.35717,-2.05859 -3.01563,-2.05859 -1.65846,0 -3.93665,-1.72207 -5.0625,-3.82618 -1.66639,-3.11426 -1.0866,-4.26377 3.11328,-6.17773 2.8376,-1.29317 5.93394,-2.35156 6.88086,-2.35156 z m -48.11133,4.11914 c 1.63147,0 2.9668,0.92617 2.9668,2.05859 0,1.13243 -1.90902,2.0586 -4.24023,2.0586 -2.33122,0 -3.66459,-0.92617 -2.96485,-2.0586 0.69978,-1.13242 2.60681,-2.05859 4.23828,-2.05859 z m -186.775388,0.29492 c 0.924996,1.10729 1.828025,2.3392 2.667969,3.83398 2.549035,4.53627 5.155994,7.41095 5.792969,6.38868 1.06114,-1.70304 7.124867,-3.0932 10.988281,-2.51953 3.516628,0.52212 -4.96968,12.59179 -8.853515,12.59179 -2.235334,0 -4.064452,1.16556 -4.064454,2.5918 0,1.42624 -1.987699,3.83475 -4.416015,5.35156 -4.224669,2.63887 -4.359467,2.4822 -3.138672,-3.62305 0.728784,-3.64449 0.415885,-6.38085 -0.730469,-6.38086 -1.103894,0 -2.007812,1.44547 -2.007812,3.21094 0,1.76547 -0.926395,2.63738 -2.058594,1.9375 -1.132199,-0.6999 -2.058594,-3.01725 -2.058594,-5.14844 0,-1.57169 -0.21884,-2.71468 -0.611328,-3.52343 l 4.386719,-7.60157 2.425781,-4.20312 -0.01172,5.32812 c -0.006,2.99302 1.375922,5.97511 3.074219,6.62696 1.698297,0.65181 3.087891,0.85826 3.087891,0.45703 0,-0.40123 -1.384849,-3.38334 -3.076172,-6.62695 l -3.042969,-5.83985 z m 192.095708,7.99805 c 3.54085,0.0624 7.69258,0.76796 10.13281,2.07422 2.18997,1.17226 3.98047,3.48506 3.98047,5.14062 0,1.65555 2.84205,4.17106 6.31445,5.58984 l 6.3125,2.58008 -10.35938,0.43164 c -5.69839,0.23713 -10.91071,-0.45851 -11.58203,-1.54492 -0.67128,-1.0864 -0.23205,-1.97461 0.97657,-1.97461 1.4575,0 1.35931,-1.34336 -0.29102,-3.98633 -1.36838,-2.19159 -3.14393,-3.57671 -3.94726,-3.08007 -2.08551,1.28915 -8.00782,-1.26196 -8.00782,-3.44922 0,-1.26321 2.92985,-1.84368 6.47071,-1.78125 z m 27.39843,2.04101 c 4.67774,0.0208 9.54455,0.65044 10.29883,1.8711 0.64974,1.05145 -0.91816,2.21713 -3.48242,2.58984 -6.77461,0.98473 -15.98438,-0.55693 -15.98438,-2.67578 0,-1.21733 4.49024,-1.80593 9.16797,-1.78516 z m -32.38867,6.32617 c 1.70392,-0.36724 4.69531,2.12544 4.69531,4.30274 0,1.3653 -1.18227,1.208 -3.13867,-0.41602 -1.72565,-1.43245 -2.71345,-3.02669 -2.19531,-3.54492 0.17845,-0.17848 0.39525,-0.28933 0.63867,-0.3418 z m -202.974608,11.13477 3.810547,4.63281 c 2.095676,2.54794 5.051536,4.64683 6.568359,4.66406 2.087422,0.0234 2.007095,0.52393 -0.330078,2.05665 -0.983115,0.64467 -1.89186,1.03157 -2.755859,1.28711 z m 19.947266,3.36719 c 0.383329,0.0217 0.394531,1.05014 0.394531,3.10351 0,2.29262 -0.618211,4.78415 -1.373047,5.53907 -1.849588,1.84998 -4.817478,1.74372 -4.736328,-0.16993 0.0359,-0.84931 1.425616,-3.34279 3.08789,-5.54101 1.489019,-1.96904 2.24362,-2.95336 2.626954,-2.93164 z m 128.853512,0.35742 c 0.36721,0.0523 0.65334,0.16111 0.83008,0.33789 0.44591,0.44606 0.20165,1.80006 -0.54492,3.00781 -1.63276,2.64233 -9.34961,2.95314 -9.34961,0.37696 0,-1.66062 6.49402,-4.089 9.06445,-3.72266 z m -138.074216,9.98828 c 0.447664,0.0936 1.207027,0.95973 2.476563,2.63867 3.93383,5.20203 3.891145,8.55277 -0.06641,5.26758 -1.698297,-1.40976 -3.057492,-4.071 -3.021485,-5.91406 0.02763,-1.40763 0.163665,-2.08583 0.611328,-1.99219 z m 8.345704,5.84766 c 0.434059,0 1.273065,1.85227 1.865234,4.11718 0.592161,2.26484 0.237102,4.11915 -0.789063,4.11914 -1.026202,0 -1.865234,-1.8543 -1.865234,-4.11914 0,-2.26491 0.35504,-4.11718 0.789063,-4.11718 z"
       transform="scale(0.26458333)" />
  </g>
  <g
     inkscape:groupmode="layer"
     id="layer4"
     inkscape:label="slice1"
     style="display:inline"
     sodipodi:insensitive="true">
    <path
       id="path31-6"
       style="color:#000000;display:inline;fill:#000000;fill-opacity:0.0767944;fill-rule:evenodd;stroke:#000000;stroke-width:1.00193;stroke-linecap:round;stroke-opacity:1;-inkscape-stroke:none"
       d="M 142.32617,0.50195312 0.578125,246.15625 142.32617,491.8125 h 283.5 L 567.57422,246.15625 425.82617,0.50195312 Z M 159.7793,30.746094 H 408.375 L 532.67188,246.15625 427.51953,426.98047 c -13.66973,-0.65273 -0.11243,-0.28066 -14.06055,-1.04297 l -0.14843,-0.4082 c 0.32579,-0.43313 0.56715,-0.55831 0.59179,-1.07422 0.43514,-0.47939 -0.21522,-0.95796 -0.71484,-1.35352 -0.0718,-0.52298 -0.54168,-0.99488 0.34375,-1.49023 -0.0896,-0.53249 -0.10641,-0.99857 -0.67773,-1.98047 -0.77875,-1.32823 -1.5549,-2.67909 -2.40821,-3.625 -0.19767,-0.91623 -0.19531,-1.67042 0.14258,-2.33398 2.30355,-1.51778 0.11305,-2.59554 -0.41797,-4.19141 0.17462,-0.52735 -0.13885,-1.19841 0.76563,-1.83594 0.66833,-1.32904 1.56933,-2.25672 0.98047,-4.45898 1.57626,-3.13349 3.17372,-6.24488 3.63671,-10.5586 -0.86649,-3.25229 0.89542,-7.52361 0.95899,-10.04297 -0.58915,-0.82364 -0.23723,-1.72727 0.49219,-2.66406 -0.0877,-0.56107 0.0935,-1.21982 -0.22852,-1.68164 -0.72677,-1.04183 -0.93937,-1.50118 -0.56641,-1.86523 0.62918,-0.6141 -0.37376,-3.09752 0.83204,-3.83789 -0.20747,-2.94391 0.50727,-5.57142 -0.2461,-6.78711 -1.1636,-1.87725 0.83854,-3.12596 1.18946,-5.51563 0.0597,-0.59918 0.16476,-1.81652 0.57031,-2.68945 0.41034,-0.88285 1.1222,-1.42598 1.16797,-2.60938 0.14135,-3.65242 1.64955,-6.76398 3.67382,-8.49218 l 0.26172,-5.07227 c 0.10167,-2.10327 -0.25842,-4.77026 0.72657,-6.12305 -0.29708,-1.47507 -0.19939,-2.55051 -0.043,-3.56836 -0.65738,-1.16798 -0.84831,-2.20632 -0.84571,-3.2207 0.38654,-0.71077 0.93217,-0.3351 1.27539,-0.49023 0.57128,-2.18565 0.11307,-4.26233 -0.44336,-6.33008 0.0302,-0.28943 -0.78559,-1.00415 0.13672,-0.9043 -0.86173,-3.13135 -1.07318,-2.81706 -1.67968,-4.00781 1.07652,-1.29787 0.94348,-1.96143 -0.45899,-1.87305 -0.29707,-1.46484 -0.18941,-2.98552 -1.60937,-4.4414 0.3651,-2.0906 -0.1,-4.53442 -0.80078,-6.24024 1.34782,-3.84209 -1.02868,-6.65716 -0.15625,-8.88672 1.45335,2.85773 2.73769,4.92877 4.77539,7.67188 0.94964,3.16602 1.70139,6.67175 2.68554,8.29492 1.75461,5.21296 2.32884,10.39471 2.63868,15.57031 -0.63972,0.39703 -1.22017,0.8817 -1.56641,1.7168 -1.14701,3.21771 -0.46491,6.10347 -0.53906,9.12695 0.69354,0.39595 1.29877,0.77375 1.59179,1.98242 0.15383,0.63447 1.00234,-0.0221 1.47852,-0.17578 0.20636,-0.0664 0.26203,0.68777 0.70703,0.50977 0.36359,-0.23085 0.7762,-0.44928 0.97266,-0.77344 0.17461,-0.28812 0.13087,-0.68501 0.42968,-0.86719 0.24643,-0.15028 0.69345,-0.13143 0.98829,-0.41211 0.24491,-0.23305 0.33179,-0.75375 0.5996,-1.00976 0.32391,-0.3095 0.96287,-0.3312 1.37696,-0.65039 0.38838,-0.29937 0.56828,-0.84187 0.83594,-1.40235 0.14891,-0.31151 0.65698,-0.29315 0.97265,-0.4707 0.33978,-0.19117 0.47731,-0.62022 0.73828,-0.88867 -0.002,-2.63283 -1.01329,-4.59614 -1.96093,-6.60156 0.0151,-3.91104 -0.75999,-7.71442 -1.24415,-11.55664 -0.99964,-9.43834 -1.57619,-14.4599 -5.28515,-18.6543 -1.54288,-2.28282 -3.00219,-4.75268 -4.48633,-7.13477 -0.0726,-0.11603 0.0147,-0.002 -0.0488,-0.12304 -3.63541,-6.86758 -7.72906,-13.46846 -12.15625,-19.34961 -2.37143,-0.75947 -4.25039,-0.53095 -5.7539,-0.16797 -1.57425,0.21279 -3.38124,-0.49692 -5.46875,-0.73047 l -1.96094,-1.76953 c -0.84015,-3.95652 -0.68923,-4.71516 0.45703,-5.7832 2.2295,-2.07733 1.53872,-2.98669 1.9375,-4.35547 2.59007,-8.05459 -2.99392,-13.44679 -3.875,-15.00586 -1.69807,-0.86308 -1.32873,-2.47669 -1.99219,-3.71485 -0.43228,-0.0407 -0.86142,-0.0641 -1.28711,-0.0703 -6.39495,-0.0927 -12.03548,3.56789 -16.63086,6.7793 -3.13832,0.87549 -4.94049,1.3926 -5.53125,3.22656 0.68725,1.32951 0.86203,3.03174 3.05078,3.26758 0.86642,0.0596 1.26085,0.54678 1.32032,1.0293 0.3713,2.85774 0.50372,3.7854 0.375,4.39843 1.06879,0.22821 1.79243,0.51678 1.45117,0.99414 l -0.9082,0.86719 0.95898,-0.45117 c 0.34197,0.98266 0.53568,1.23033 0.2207,1.68164 -0.40337,1.1707 -1.25671,3.4344 -0.68164,3.29687 0.90898,0.84638 1.20281,0.39549 1.76563,0.51172 -0.31079,1.30605 -0.14829,1.83006 0.0293,2.32813 0.49655,0.30293 0.8409,0.62774 0.59961,1.03515 -0.35603,-0.0836 -0.33395,0.3985 -0.14648,1.12891 0.3137,0.18542 0.70777,0.40917 0.77539,0.47852 0.36737,0.28407 0.61449,0.55008 0.4375,0.75 -0.19389,0.8076 -0.17178,1.38242 0.0879,1.70312 0.1251,0.27617 0.25489,0.5379 0.4707,0.40625 1.30447,0.43784 1.91921,0.2475 2.68555,0.19531 l 2.05859,-0.45117 0.4043,2.09375 c -0.0265,0.75619 -0.074,1.50159 -0.47851,2.03516 -0.37531,1.12232 -1.3347,1.45548 -2.2168,1.89258 -1.3553,-0.25568 -2.63344,-0.63578 -4.43359,-0.15235 -1.42133,0.60129 -2.36632,1.59985 -2.96094,1.43946 -0.54785,-0.14774 -0.37258,1.10078 -0.70508,1.53515 -0.27731,0.36223 -0.74171,1.25737 -1.07813,0.91407 -0.44764,-0.45682 -0.86591,-0.16433 -1.18945,0.5664 -0.5022,1.6253 -1.7281,1.20512 -2.82812,2.93555 -0.8561,1.34671 -3.57884,0.98754 -3.12305,2.03515 0.22567,0.51882 -0.95616,1.15636 -1.89844,1.58204 l -1.26172,0.78125 c -2.55142,1.50168 -3.61614,2.10198 -7.74218,4.55859 -4.65811,-0.72213 -9.20716,0.0909 -13.80079,0.33789 -3.11151,-0.0951 -6.30497,0.0976 -9.14062,-0.95313 -0.61142,-0.22771 -1.27176,-0.28659 -1.74219,-0.99609 -2.01802,-1.02882 -3.04471,-3.27535 -5.25976,-4.57617 l -4.80469,-4.43945 c -0.31125,0.56073 -0.47094,1.17637 -0.0117,2.01171 0.28339,1.86739 1.45768,3.00047 2.54492,4.20508 0.0996,0.47008 -0.0366,0.65708 -0.23047,0.77539 l -5.54297,-5.3789 -0.71484,-11.86524 -1.57812,0.0176 -0.36914,11.46094 -8.19532,-0.68359 0.0195,1.98437 9.34571,0.71875 4.41992,4.60352 c -2.68826,0.53448 -5.79159,0.40751 -7.61133,2.17382 -0.24079,1.04155 1.13395,1.03852 2.11719,1.28711 3.01656,0.34185 6.52952,-0.0875 9.27734,1.13282 0.28793,0.094 0.58467,0.17309 0.87696,0.25976 l 11.56836,13.34237 c 0.62228,-0.46568 1.42255,-1.07682 2.36328,-1.80273 l -7.91407,-9.4244 c 9.69288,2.13077 16.69661,2.86672 25.05274,3.55273 1.04424,-0.0501 2.06192,0.0934 3.19336,-0.60156 3.72446,-1.88882 7.71716,-4.13256 10.58789,-5.33399 1.32871,0.64137 2.63485,1.16301 2.63867,2.16993 0.54031,0.12131 1.07761,0.22993 1.47266,-0.16602 0.56861,-0.89114 1.38338,-1.88368 2.01171,-2.50586 1.02437,3.59221 2.04882,6.72057 3.36524,9.91797 1.79467,5.48869 3.05777,10.74784 3.53516,15.66601 0.52213,0.39227 1.05443,0.6859 1.64843,0.36524 0.13944,0.56333 0.29665,1.13556 -0.25781,1.33984 -0.0722,0.33626 -0.27436,0.52527 -0.59766,0.30469 -0.23433,1.28448 -0.59028,2.38671 -0.85742,3.21094 -0.30878,0.95223 -0.17136,2.07761 -0.95508,2.92969 -0.18255,0.19853 0.0717,0.77642 -0.10937,1.01367 -0.84952,1.11343 -1.19348,2.39537 -1.45703,3.5039 0.33638,0.31986 0.29138,0.70795 0.23242,1.09961 -0.16705,0.34303 -0.14723,1.13957 -0.77148,0.68555 -0.1372,0.74577 0.48827,2.16067 -0.23438,2.27148 l -0.66406,2.22266 c 0.0801,0.88479 -0.33934,0.66965 -0.65039,0.58984 0,0 0.15949,1.1874 0.32617,1.51953 0.0537,0.10707 -0.57832,1.88188 -0.72852,3.98829 -0.12719,1.78319 -0.73474,3.44342 -1.15625,4.95312 -0.45102,1.61537 -0.3859,3.25768 -0.61328,4.47461 -0.26056,1.39471 -0.77929,2.25391 -0.77929,2.25391 -0.1191,0.92911 -0.0297,1.79908 0.22656,2.62109 -0.53555,1.343 -1.90636,2.38767 -1.91602,3.58008 l -0.0195,2.54297 c 0.35702,0.7584 -2.39416,3.28774 -2.54687,3.54687 -0.0759,0.12888 0.47362,1.30593 -0.15235,1.7168 -0.63007,0.4136 -1.01211,1.43179 -0.82031,1.67773 -2.1102,5.61131 -2.96495,10.87961 -3.20898,15.98243 -0.92254,4.21841 -2.36105,9.11418 -2.65821,12.51171 -0.49106,1.45002 -2.43968,3.53376 -1.8789,4.92383 0.78293,1.94075 1.374,3.24367 1.05859,3.99024 -0.42062,0.45415 -0.82727,0.93908 -0.97656,2.01367 -0.4744,0.47883 -1.16293,0.47593 -1.41992,0.33008 -0.80806,0.77106 -2.7086,1.80534 -2.70508,2.96289 l 0.002,0.6582 c -0.59072,0.30576 -0.78234,0.64817 -0.75391,1.01172 -3.13934,0.78206 -5.67975,1.49279 -6.71289,2.75976 0.0175,0.92442 -0.9234,1.83237 -0.63867,2.76172 -40.07429,-1.47521 -80.51481,-1.47538 -120.34766,2.46094 -0.14927,-0.43309 -0.15992,-0.75371 -1.25,-1.23437 -0.48825,-0.26237 -1.12353,0.10703 -0.88281,0.73632 -0.80487,0.91642 -1.56702,1.09979 -2.53906,-0.27929 -0.62727,-0.13572 -3.9819,-4.35274 -3.72852,-6.15039 -1.52874,-1.51404 -2.45751,-3.78499 -2.41015,-4.42774 -1.75991,-1.24727 -4.42756,-10.95673 -4.38477,-12.16601 0.16235,-4.58724 -0.26742,-9.12007 -0.33398,-13.56055 l -0.6836,-4.30078 c -0.87961,-2.9701 0.25957,-5.57699 0.94922,-8.26563 2.41584,-7.93162 3.11879,-9.79339 6.48243,-13.7207 2.05993,-2.17351 4.51521,-2.67896 6.77734,-4 1.16739,-1.72154 2.50033,-1.9639 3.82812,-2.26172 1.05446,-0.797 2.16893,-1.56063 2.23243,-2.91211 -0.0227,-1.14069 -0.008,-2.28433 -1.91211,-3.20117 -2.21347,-0.10005 -4.38469,0.49486 -6.56446,0.94141 -1.78435,0.85685 -2.12359,-0.61385 -2.39258,-0.64258 l -3.94335,-0.71875 c -1.292,0.24181 -2.49045,0.14195 -3.6211,-0.20508 -0.40002,-1.96608 -2.06832,-2.20108 -0.24023,-4.7207 l -0.0371,-0.7168 c -0.9853,0.23782 -1.30889,1.24777 -1.56445,1.99609 -0.2792,0.81756 -1.02739,1.04678 -0.93165,1.69532 -0.53126,-0.22401 -0.95671,-0.54101 -0.9707,-1.22071 -1.23286,-1.27299 -1.84108,-2.84955 -4.03515,-3.63672 -1.21741,0.83169 -1.65719,2.18139 -1.62696,3.84376 -0.11781,1.34292 1.71416,1.74969 2.23047,2.49804 0.47617,0.69014 0.41428,1.24004 0.95703,2.41211 -1.35726,2.53155 -0.25633,2.92592 0.30274,4.90235 -0.60223,1.98968 -1.61358,4.44117 -3.81836,5.95703 -1.82643,1.03767 -1.71969,2.83694 -2.12696,4.43359 -1.45847,0.67472 -2.59659,2.27693 -4.09961,2.9707 -2.32715,1.07413 -4.96578,1.33648 -7.10546,2.63868 -7.31967,1.76349 -22.1687,-0.8332 -31.82422,4.70703 -14.93547,11.72947 -14.97363,28.40782 -27.25391,33.10547 -1.33624,0.51114 -2.0307,-1.09465 -3.8125,-1.03711 -0.37381,0.0121 -0.98039,0.60616 -1.26172,1.3125 L 130.36143,410.2754 35.482422,246.15625 Z M 400.25586,351.2793 c 0.16441,1.21074 1.14917,2.14434 0.49414,3.9375 1.67191,3.15108 0.43265,5.22716 0.31836,7.59765 0.0775,1.27752 0.009,2.58329 0.5625,3.76953 -0.034,2.58943 1.10553,5.68653 -0.14258,7.75 -0.0854,1.68057 0.51562,2.52525 0.56445,4.58985 L 401.5,381.53516 c 0.96007,2.26107 1.34821,4.67336 1.24023,7.21679 0.49104,0.41673 -0.41946,3.80266 -1.33789,6.69532 -0.69294,2.18253 -0.42598,5.9782 -0.74414,6.43945 -0.85716,1.24271 1.81399,6.75499 0.4336,7.54492 -1.99261,0.28762 -2.46428,1.99774 -2.71875,2.95313 l 1.07422,2.38476 c 0.79371,1.41048 0.73732,3.00255 1.0957,4.50586 -0.093,0.73305 0.0982,1.53638 0.11523,2.22852 0.90448,1.13087 1.08331,1.92745 1.54297,2.85351 L 402,425.31445 c -10.30017,-0.554 -20.65593,-1.09102 -31.04688,-1.5664 1.65701,-0.3089 3.27489,-0.53614 4.78907,-0.55078 -0.85207,-2.75478 -0.49172,-5.24667 -0.0449,-7.72071 l 1.47851,-1.75195 c 0.16672,-2.51667 0.74453,-4.94516 2.29102,-5.97852 0.28807,-2.60689 -2.16605,-4.60032 -0.79492,-6.01757 2.30535,-5.15928 3.87298,-10.44728 5.48242,-15.78125 0.0264,-0.0907 0.068,-0.17776 0.082,-0.27149 0.12699,-0.85909 0.69888,-1.92994 0.44531,-2.72266 -0.37606,-1.1752 0.43375,-1.37714 0.85547,-2.14843 0.26532,-0.4854 -0.18863,-1.13751 0.15039,-1.61524 0.4803,-0.67646 1.30022,-1.56492 1.4082,-2.80468 0.50971,-0.73274 1.1602,-1.31279 1.17188,-2.58985 0.92553,-0.86423 1.53785,-1.96567 1.58203,-3.5 1.77177,-4.05192 3.42071,-6.93631 4.88672,-11.32031 1.76107,-2.69435 3.37397,-5.6357 5.51953,-7.69531 z m -220.75781,43.03125 c 1.97889,0.0306 4.1086,0.55579 6.28515,2.05078 1.94215,0.7119 3.89967,1.37976 5.50977,3.07812 3.00191,0.56759 4.06092,1.81668 5.3457,2.98633 3.73057,4.24356 7.00412,9.22222 10.48047,13.875 0.5708,1.10528 0.37228,1.98311 1.96094,3.38867 0.0549,2.15076 0.7129,4.19261 1.51367,6.20899 v 0.002 l 0.66406,2.19141 c -14.79156,2.01259 -29.47526,4.62211 -43.98242,8.08593 -1.37781,-2.09051 -2.24108,-4.14181 -1.82617,-6.09961 1.39599,-4.04053 2.29393,-7.43421 6.24023,-10.02148 5.26873,-3.45421 7.91069,-10.6724 8.5293,-14.64453 -1.27546,-3.64159 -2.06532,-7.30746 -2.64453,-10.98438 0.62228,-0.0821 1.26419,-0.12736 1.92383,-0.11718 z m -25.80469,0.74609 c 2.83103,4.15806 6.35947,8.07216 7.19922,12.92578 -0.63718,1.78264 -0.65001,3.80936 -2.15235,6.01563 -1.35299,1.98694 -3.71067,4.55421 -7.26757,8.88672 0.82077,3.7556 2.52196,7.49147 3.78125,11.30078 -0.6314,1.48728 0.29564,2.67797 1.4707,3.82226 l -0.0449,0.85742 c -8.91693,2.3663 0.51249,-0.37443 -8.25196,2.66211 l -16.51367,-28.5664 0.60352,-0.38477 c 3.95332,0.73279 7.61714,0.0485 13.95898,-5.66406 2.6555,-3.76313 5.01201,-7.75267 7.2168,-11.85547 z m 55.68945,3.21484 c 0.81176,1.34018 0.28965,3.34729 0.4375,5.52344 5.13097,6.6563 9.06448,13.76826 12.09961,20.60156 l 0.98828,0.004 1.89453,2.01172 c -2.6226,0.29553 -5.24254,0.60633 -7.85937,0.93555 l -0.95117,-1.42188 -2.19141,-2.8418 c -1.36436,-2.53323 -1.58756,-5.23804 -2.34375,-7.86328 -2.95283,-5.26 -6.327,-8.65218 -7.75976,-15.02734 -0.12964,0.0975 2.33016,-0.73833 5.68554,-1.92188 z m -41.76953,12.24024 c 0.62122,1.06063 0.38228,2.60245 0.20899,3.78125 -1.56347,5.62243 -10.78412,14.76864 -9.44141,15.45508 1.6209,2.5177 3.06825,4.98605 4.79687,7.44531 l -1.76562,-1.28516 -1.22266,-1.01367 c -1.44228,-2.26171 -2.52761,-3.62245 -3.35742,-6.60937 -0.83198,-0.56916 -0.12302,-3.58459 0.43945,-6.28711 3.28169,-3.91431 6.41639,-7.90323 10.3418,-11.48633 z m 196.31641,3.99414 c 0.15375,0.23471 0.47849,0.40258 0.10351,0.8418 -0.44299,0.54671 -0.97925,0.90024 -1.64453,0.99023 -0.0801,-0.23774 -0.21432,-0.40395 -0.0625,-0.94922 0.51969,-0.45831 1.04567,-0.85208 1.60352,-0.88281 z"
       transform="scale(0.26458333)"
       sodipodi:nodetypes="ccccccccccccccccccccccccccsccccsccccccccccccccccccsccssssscsccccccccccsccccccccccccccccccccccccccccssscssccccccccccccccccccccccccccccccccccccccscccccccssssccccsscccscccsccccccccccsccccccccccccccsccccsccccsccssccccccccccccssccccccccccccccccsccccccsccccccccccsccsccscccccccccccccccccccccccccccccccccc" />
  </g>
  <g
     inkscape:label="slice0"
     inkscape:groupmode="layer"
     id="layer1"
     style="display:inline"
     transform="translate(26.535916,-75.969784)"
     sodipodi:insensitive="true">
    <path
       style="color:#000000;fill:#000000;fill-opacity:0.0767944;fill-rule:evenodd;stroke:#000000;stroke-linecap:round;stroke-opacity:1;-inkscape-stroke:none"
       d="M 41.228516,288.17383 -100.28711,533.28711 41.228516,778.40039 H 324.25977 L 465.77539,533.28711 324.25977,288.17383 Z m 17.423828,30.17773 H 306.83789 L 430.92969,533.28711 306.83789,748.2207 H 58.652344 L -65.439453,533.28711 Z"
       id="path31"
       transform="matrix(0.26502005,0,0,0.26516892,0.19503247,-0.31240416)"
       sodipodi:nodetypes="cccccccccccccc" />
  </g>
</svg>
