<svg version="1.1" xmlns="http://www.w3.org/2000/svg" xmlns:xlink="http://www.w3.org/1999/xlink" width="800" height="800" viewBox="0,0,800,800"><defs><clipPath id="clip-1"><rect x="521.05263" y="389.47368" transform="scale(0.38,0.38)" width="800" height="800"/></clipPath><clipPath id="clip-2"><rect x="558.33334" y="365.11308" transform="scale(0.36,0.36)" width="799.99991" height="391.9961"/></clipPath><clipPath id="clip-3"><rect x="286.11111" y="230.87302" transform="scale(0.72,0.72)" width="400" height="377.14286"/></clipPath><clipPath id="clip-4"><rect x="145" y="51.5" transform="scale(1.4,1.4)" width="210" height="297"/></clipPath></defs><g fill="none" fill-rule="nonzero" stroke="none" stroke-width="1" stroke-linecap="butt" stroke-linejoin="miter" stroke-miterlimit="10" stroke-dasharray="" stroke-dashoffset="0" font-family="none" font-weight="none" font-size="none" text-anchor="none" style="mix-blend-mode: normal"><g><path d="M200,400v-300h300v300z" fill="#ffa500"/><path d="M200,400v-300h300v300zM350,290c44.18278,0 80,-35.81722 80,-80c0,-44.18278 -35.81722,-80 -80,-80c-44.18278,0 -80,35.81722 -80,80c0,44.18278 35.81722,80 80,80z" fill="#008080"/><path d="M200,400v-300h300v300zM485,385l0,-183.77162c-7.5596,0.36645 -7.76576,-5.36114 -19.70232,-6.11387c-2.24966,-1.41103 -7.44862,-1.03322 -10.77391,-1.24292c-3.14677,-0.19845 -3.39098,1.70012 -5.35296,3.60939c-4.23368,4.11977 -11.86896,-4.69498 -15.74054,-4.93913c-1.00262,0.97579 -5.92913,4.70068 -6.95472,4.636c-4.41841,-0.27863 -8.05301,-3.32783 -12.71281,-3.62169c-2.63883,-0.16641 -5.06774,2.50016 -8.38068,2.29123c-1.38255,1.34537 -5.9182,0.19052 -7.74619,0.07524c-2.30301,-0.14523 -5.50751,0.78051 -7.7773,0.63738c-2.70904,-0.17084 -5.23927,0.79733 -7.77586,0.63738c-2.25506,-0.14221 -5.09949,0.8062 -7.77658,0.63738c-2.50614,-0.15805 -4.00532,-4.76347 -7.47923,-4.98254c-0.06592,-0.00413 -6.26551,3.96459 -6.95544,4.636c-1.16942,-0.07375 -2.08616,1.04956 -2.67105,2.43014c-12.04538,-1.62132 -22.58318,-2.36441 -30.30688,-1.30876c0.11543,-2.18471 1.97841,-16.79126 3.97836,-16.66513c0.68939,-0.67088 6.88805,-4.63947 6.95399,-4.63527c3.47392,0.21907 4.97453,4.82449 7.48068,4.98254c2.67708,0.16882 5.52076,-0.77959 7.77586,-0.63738c2.53659,0.15996 5.06681,-0.80894 7.77585,-0.6381c2.26978,0.14313 5.4733,-0.78261 7.77658,-0.63738c1.828,0.11527 6.36436,1.27017 7.74692,-0.07524c3.31313,0.20893 5.74091,-2.45693 8.37995,-2.2905c4.66029,0.29388 8.29435,3.34233 12.71281,3.62097c1.02559,0.06467 5.9528,-3.66077 6.95544,-4.636c3.87157,0.24415 11.50683,9.05962 15.74054,4.93985c1.96202,-1.90926 2.20551,-3.80782 5.35223,-3.60939c3.32531,0.2097 8.5243,-0.16866 10.77392,1.24292c14.41913,0.9093 11.72179,9.07725 25.54573,4.99411c7.3637,-2.17521 16.13971,-1.07494 23.15761,1.90678v-71.47237h-270l0,31.16057c2.89566,0.82035 4.34678,4.69417 6.64165,4.8389c2.67708,0.16882 5.5215,-0.77959 7.77658,-0.63738c2.53659,0.15996 5.06682,-0.80893 7.77586,-0.6381c2.26979,0.14314 5.47331,-0.78261 7.77658,-0.63738c1.82801,0.11528 6.36364,1.27017 7.74619,-0.07524c3.31313,0.20893 5.74164,-2.45693 8.38068,-2.29051c4.6603,0.29389 8.29436,3.34233 12.71281,3.62097c1.0255,0.06467 5.95145,-3.66035 6.95472,-4.63599h0.00073c3.8718,0.24515 11.50636,9.05937 15.73981,4.93985c1.96202,-1.90926 2.20624,-3.80782 5.35296,-3.6094c3.32531,0.2097 8.52429,-0.16866 10.77391,1.24292c14.41914,0.9093 11.72107,9.07725 25.545,4.99411c11.70279,-3.45695 26.97341,1.35905 33.08429,8.85238l0.00289,0.00073c1.21552,2.53365 1.32503,3.59886 1.23641,5.69226c-1.8235,0.16925 -3.61178,0.49302 -5.32257,0.99839c-13.82394,4.08313 -11.12588,-4.08554 -25.545,-4.99484c-2.24965,-1.41104 -7.44862,-1.03321 -10.77392,-1.24292c-3.14676,-0.19844 -3.39098,1.70013 -5.35295,3.60939c-4.2337,4.11977 -11.86897,-4.69498 -15.74054,-4.93913c-1.00262,0.97579 -5.92984,4.70068 -6.95544,4.63599c-4.41841,-0.27863 -8.05302,-3.32711 -12.71281,-3.62097c-2.63884,-0.16641 -5.06703,2.49943 -8.37995,2.29051c-1.38255,1.34542 -5.91891,0.19053 -7.74692,0.07524c-2.30302,-0.14523 -5.50679,0.78051 -7.77658,0.63738c-2.70904,-0.17084 -5.23927,0.79734 -7.77586,0.63738c-2.25509,-0.14221 -5.09949,0.80692 -7.77658,0.6381c-2.50615,-0.15804 -4.00531,-4.76419 -7.47923,-4.98326c-0.06593,-0.00413 -6.26551,3.96459 -6.95544,4.63599c-1.16943,-0.07375 -2.08688,1.04956 -2.67178,2.43014c-6.72404,-0.90506 -12.9783,-1.53645 -18.5355,-1.73405v42.65231c0.744,-0.10679 1.42393,-0.16287 2.05196,-0.17533c7.15882,-0.14199 7.57506,5.38898 19.29061,6.12779c2.24965,1.41102 7.44862,1.03321 10.77392,1.24292c3.14677,0.19844 3.39026,-1.70012 5.35223,-3.60939c4.2337,-4.11976 11.86897,4.69498 15.74054,4.93913c1.00262,-0.97577 5.92985,-4.69995 6.95544,-4.63527c4.41841,0.27863 8.05302,3.32711 12.71281,3.62097c2.63884,0.1664 5.06702,-2.50015 8.37995,-2.29123c1.38256,-1.3454 5.91891,-0.19046 7.74692,-0.07524c2.30302,0.14522 5.50679,-0.78052 7.77658,-0.63738c2.70903,0.17083 5.23999,-0.79733 7.77658,-0.63738c2.25508,0.14221 5.09877,-0.80619 7.77585,-0.63738c2.50615,0.15805 4.00604,4.76347 7.47996,4.98254c0.06593,0.00413 6.26478,-3.9646 6.95472,-4.636c1.16943,0.07374 2.08688,-1.04955 2.67177,-2.43013c12.04538,1.62132 22.58316,2.3644 30.30688,1.30876c-0.11546,2.1847 -1.9784,16.79127 -3.97836,16.66513c-0.6894,0.67088 -6.88878,4.6402 -6.95472,4.636c-3.47393,-0.21909 -4.9738,-4.82449 -7.47996,-4.98254c-2.67708,-0.16883 -5.52078,0.77886 -7.77586,0.63665c-2.53659,-0.15995 -5.06682,0.80893 -7.77586,0.6381c-2.26979,-0.14314 -5.47404,0.78262 -7.7773,0.63738c-1.82801,-0.11531 -6.36364,-1.27019 -7.74619,0.07524c-3.31313,-0.20893 -5.74091,2.45694 -8.37995,2.29051c-4.6603,-0.29389 -8.29508,-3.34233 -12.71354,-3.62097c-1.02559,-0.06468 -5.95208,3.66077 -6.95472,4.636c-3.87158,-0.24415 -11.50684,-9.05962 -15.74054,-4.93985c-1.96202,1.90926 -2.20624,3.80783 -5.35296,3.60939c-3.3253,-0.20969 -8.52429,0.16864 -10.77391,-1.24292c-14.41914,-0.9093 -11.72107,-9.07724 -25.545,-4.99411c-7.94943,2.34823 -17.54511,0.87918 -24.79786,-2.65331v161.60757z" fill="#ffffff"/><path d="M200,400v-300h300v300zM485,115h-270v122.33677c0.08964,-0.14672 0.1637,-0.3 0.20094,-0.46649c-0.06865,-0.28563 0.2178,-0.44071 0.35922,-0.64719c0.3476,-0.43596 0.93765,-0.75899 1.49328,-0.53141c0.48729,0.25782 1.04365,0.14816 1.56973,0.15215c0.03326,0.29527 0.03634,0.59529 0.08832,0.88766c0.29064,0.08119 0.61776,-0.0157 0.91734,-0.05047c0.1775,-0.36375 0.34815,-0.73061 0.53957,-1.0873c0.22688,-0.41315 0.49423,-0.95704 1.02273,-0.9975c0.24451,-0.08354 0.43423,0.07457 0.63309,0.19222c0.14826,0.17254 0.22705,0.40799 0.43121,0.54031c0.36065,-0.1364 0.75046,-0.12507 1.12219,-0.2041c0.64784,-0.20104 1.29086,-0.45629 1.98016,-0.46461c0.2193,0.093 0.36388,0.36725 0.61898,0.43047c0.95409,0.27232 1.93236,-0.19242 2.89898,-0.03416c0.14159,0.02451 -0.15089,-0.22227 -0.15215,-0.3414c-0.3561,-0.01434 -0.71145,-0.05513 -1.06727,-0.07942c0.11702,-0.39014 0.23387,-0.78034 0.35105,-1.17043c0.5128,-0.38803 1.17015,-0.48079 1.76566,-0.68504c-0.42228,-0.12507 -0.72231,-0.46786 -0.98637,-0.80082c-0.36659,-0.41495 -0.47905,-1.10576 -0.05641,-1.52445c-0.19634,-0.15008 -0.4136,-0.33128 -0.56258,-0.54625c-0.40712,-0.48739 -0.4097,-1.31652 0.14695,-1.69442c0.5941,-0.44004 1.36581,-0.24295 2.04547,-0.25902c0.11577,-0.16037 0.18155,-0.3555 0.27609,-0.53066c0.25746,-0.49868 0.46476,-1.17419 1.0732,-1.32629c0.33604,-0.08361 0.69576,0.08821 0.86762,0.38297c0.40367,-0.16377 0.83132,-0.30964 1.27359,-0.27312c0.42929,-0.00027 0.98857,0.20835 1.29066,-0.21524c0.11947,-0.20161 0.30603,-0.27903 0.53438,-0.28055c1.45806,-0.34595 2.89478,-0.78954 4.30469,-1.29734c-0.47038,-0.15661 -0.94618,-0.29602 -1.41981,-0.44235c-0.9801,-0.32661 -2.03622,-0.57401 -2.85371,-1.23871c-0.66357,-0.52063 -0.64249,-1.62578 -0.03266,-2.17387c0.59033,-0.5396 1.44114,-0.37153 2.16719,-0.45942c0.17591,0.01156 0.25375,-0.13439 0.23676,-0.29168c-0.2957,-0.23802 -0.6184,-0.44373 -0.88914,-0.71176c-0.49751,-0.42676 -0.73665,-1.18873 -0.3941,-1.78199c0.03628,-0.51602 0.20036,-1.06713 0.6175,-1.4109c0.46059,-0.42483 1.10898,-0.46727 1.69887,-0.5366c0.08869,-0.28535 0.00213,-0.62914 0.02747,-0.93738c-0.00588,-0.60963 0.42888,-1.27468 1.08656,-1.27582c0.66465,-0.02129 1.16494,0.5674 1.33445,1.16152c0.4181,0.18828 0.78515,0.51355 1.0168,0.91586c0.09149,0.18192 0.14225,0.4061 0.3941,0.29242c0.00486,-0.4279 -0.04055,-0.85872 0.01854,-1.28547c0.04591,-0.53788 0.47352,-1.03428 1.03313,-1.045c0.49706,0.03211 0.99408,0.04324 1.49254,0.01706c0.0258,0.27424 0.04359,0.54941 0.07422,0.82309c0.25252,0.17733 0.57207,0.30596 0.75332,0.57816c0.37037,0.42145 0.26489,1.00905 0.39633,1.51109c0.51525,0.05747 1.03463,-0.02902 1.55117,-0.04007c-0.05618,0.39101 -0.03273,0.79847 -0.14399,1.17859c-0.34402,0.79684 -0.98294,1.41553 -1.51851,2.08481c0.53582,-0.12819 1.07347,-0.24945 1.61574,-0.34735c0.74166,-0.10358 1.56936,-0.29517 2.26367,0.08461c0.15625,0.14226 0.33747,0.20263 0.54922,0.22117c0.62745,0.16575 1.275,0.14351 1.91633,0.10688c0.02483,0.47129 0.04977,0.94259 0.07496,1.41387c0.32226,-0.03834 0.6463,-0.13712 0.97226,-0.08312c0.61631,0.06739 0.98366,0.67521 1.045,1.24613c0.01222,0.25269 0.04479,0.40592 0.14695,0.09129c0.20398,-0.57561 0.79003,-0.98775 1.40719,-0.9218c0.84238,0.11283 1.69068,0.61235 2.05289,1.40348c0.24928,0.53379 0.05473,1.17441 -0.38668,1.54301c-0.84661,0.72412 -1.92244,1.09335 -2.93758,1.51406c-1.16029,0.47467 -2.37431,0.83212 -3.48383,1.42203c-0.05894,0.5173 -0.2505,1.00611 -0.35996,1.51258c-0.02491,0.16559 -0.12964,0.46165 0.14621,0.44234c0.64236,-0.53603 1.46803,-0.77876 2.2711,-0.95668c1.17942,-0.22479 2.3903,-0.34463 3.58996,-0.2657c0.32178,-0.02066 0.46745,0.30484 0.68875,0.48168c0.88408,0.09162 1.77591,-0.07277 2.65777,0.04379c0.46283,0.0543 0.90232,0.41859 0.89582,0.90992c0.21735,0.70951 1.00504,1.01733 1.34039,1.64988c0.20658,0.39298 0.02426,0.92395 -0.38594,1.09695c-0.68932,0.52497 -1.41609,1.01066 -2.12488,1.51406c0.18589,0.40193 0.01082,0.88521 -0.30949,1.16598c-0.4708,0.47809 -1.36745,0.60831 -1.82356,0.04156c-0.14262,-0.01557 -0.41797,0.0105 -0.48687,0.18109c-0.05828,0.38974 0.03151,0.82836 -0.2375,1.16301c-0.2251,0.38906 -0.7437,0.40251 -0.99602,0.75629c-0.11829,0.24397 -0.38521,0.15645 -0.60562,0.17219c-0.98896,-0.08922 -1.7815,-0.76245 -2.65406,-1.16894c0.12355,0.77416 0.28165,1.55792 0.21449,2.34531c-0.02771,0.64092 -0.44719,1.32721 -1.13035,1.39902c-0.55611,0.10321 -1.2144,-0.19232 -1.33223,-0.78301c-0.0703,-0.11293 0.02044,-0.45745 -0.0616,-0.42082c-0.44914,0.41787 -1.10158,0.20539 -1.61574,0.04973c-0.66703,0.22154 -1.45339,0.42095 -2.09668,0.02599c-0.67831,0.88576 -1.30697,1.80952 -1.89184,2.75945c-0.34357,0.43515 -0.38928,0.99967 -0.45867,1.52965c-0.20973,2.2174 0.09829,4.4534 0.35402,6.63144c0.00168,0.80121 0.4296,1.51254 0.87801,2.14641c0.47865,0.62616 1.00995,1.28717 1.7575,1.5957c0.89511,0.04849 1.79876,0.01695 2.69711,0.03488c-0.28267,0.184 -0.56565,0.36819 -0.84832,0.55219c-0.49915,0.29625 -0.96132,0.66134 -1.47176,0.93738c12.20487,-1.35576 23.63021,-3.02329 27.79641,-5.24059c4.83261,-2.57197 8.96124,-9.40088 16.50832,-12.28603c6.17239,-2.35963 13.01388,-9.15726 20.52282,-16.56751c7.50693,-7.40827 16.24609,-11.50884 21.67868,-18.63128c5.22769,-6.85379 11.5232,-11.65133 16.85748,-16.22381c16.41872,3.46131 10.00594,2.00584 24.48031,-0.3659l-0.00001,-0.00007c6.00695,12.5877 19.3478,22.72272 27.26615,34.25076c11.45394,16.67537 21.08679,23.18526 29.55943,28.37428c5.67132,3.47337 18.60478,6.73072 31.83985,8.31621c-0.10067,-0.412 -0.26023,-0.81323 -0.32434,-1.23351c-0.18072,-0.69518 0.12628,-1.36701 0.29391,-2.0284c0.0808,-0.26195 -0.0267,-0.59486 -0.06383,-0.80602c-0.21804,-1.10445 -0.53654,-2.19306 -0.63086,-3.31832c-0.136,-0.33147 0.11443,-0.3372 0.38223,-0.32805c0.27373,-0.05987 0.62765,0.07016 0.82383,-0.18035c0.80037,-0.84654 1.40099,-1.86629 1.90594,-2.91086c-0.55382,0.055 -1.12824,0.09787 -1.63875,0.33695c-0.17603,0.21737 -0.44989,0.29234 -0.70434,0.39113c-0.58954,0.24951 -1.23656,0.25948 -1.86289,0.19c-0.32926,0.27365 -0.76282,0.37155 -1.17711,0.43121c-0.63549,0.11361 -1.22927,0.03887 -1.84211,0.2464c-0.17038,0.09796 0.0836,0.52951 -0.14918,0.55368c-0.63389,0.03878 -1.23916,0.22358 -1.85324,0.36812c-0.32821,0.04369 -0.68326,0.16384 -1.00418,0.07496c-0.29445,-0.19022 -0.64007,-0.10162 -0.94777,-0.00152c-0.72582,0.24744 -1.49595,0.15871 -2.23993,0.0668c-0.6969,-0.11898 -1.38951,0.03905 -2.07367,0.15808c-0.56715,0.03031 -1.11443,0.17902 -1.66101,0.32285c-0.37235,0.05685 -0.78615,0.22543 -1.14074,0.03785c-0.36655,-0.02962 -0.67748,0.23741 -1.00047,0.37481c-0.57475,0.35261 -1.25932,0.23674 -1.89629,0.29613c-0.52086,0.00853 -0.87951,0.41569 -1.18156,0.7882c-0.41848,0.02604 -0.83941,0.03151 -1.25504,-0.03192c-0.53969,-0.1169 -1.08845,-0.1321 -1.63875,-0.1232c0.04133,-0.4189 -0.04079,-0.86274 0.13063,-1.25875c0.46452,-0.90665 1.60285,-1.11879 2.20504,-1.90074c0.39962,-0.83173 1.07528,-1.49129 1.52371,-2.2941c0.01794,-0.22372 0.05149,-0.42364 0.24789,-0.57297c0.31278,-0.4203 0.84167,-0.77133 1.38047,-0.58188c0.34211,0.18812 0.73311,0.12641 1.10586,0.12246c0.33189,-0.11623 0.22627,0.25748 0.2709,0.46312c-0.07657,0.32216 0.22305,0.21009 0.42156,0.18258c0.20435,-0.41244 0.38864,-0.84046 0.66055,-1.21422c0.19172,-0.28092 0.52143,-0.41095 0.85426,-0.39039c0.16863,0.07085 0.39602,0.1581 0.4891,0.3325c0.06035,0.20443 0.21675,0.2413 0.40004,0.15735c0.55139,-0.01182 1.04085,-0.29361 1.57863,-0.37777c0.22273,0.00466 0.50685,-0.1486 0.67094,0.05344c0.33027,0.40225 0.88619,0.28818 1.33668,0.24047c-0.25432,-0.02004 -0.50865,-0.04009 -0.76297,-0.06012c0.35258,-0.35259 0.70503,-0.70503 1.05762,-1.05762c0.23725,-0.32275 0.65112,-0.38044 1.00715,-0.50469c-0.33492,-0.30731 -0.6855,-0.68744 -0.70063,-1.16746c-0.05702,-0.18728 0.16073,-0.41865 0.08684,-0.54254c-0.46957,-0.37983 -0.72852,-1.12286 -0.3184,-1.63652c0.41376,-0.53085 1.15165,-0.47159 1.75007,-0.42082c0.26631,-0.48333 0.41421,-1.12877 0.96485,-1.36785c0.29724,-0.12383 0.66183,-0.042 0.8691,0.20856c0.41488,-0.1762 0.88656,-0.19568 1.32851,-0.13285c0.28155,0.0828 0.44984,-0.1707 0.60859,-0.35328c1.02435,-0.1738 2.01122,-0.51929 2.99918,-0.83348c-0.90517,-0.30026 -1.87834,-0.49926 -2.66668,-1.06207c-0.53346,-0.3576 -0.66962,-1.11291 -0.37183,-1.66473c0.28235,-0.5775 0.97938,-0.71703 1.56527,-0.69617c0.13545,-0.01107 0.52252,0.03094 0.24344,-0.11801c-0.5066,-0.33876 -1.00003,-0.89351 -0.87726,-1.54969c0.08001,-0.23895 0.14601,-0.47003 0.17664,-0.72141c0.15797,-0.71299 0.8749,-1.15612 1.57567,-1.16969c0.23637,0.04484 0.08875,-0.25704 0.12098,-0.38965c-0.05448,-0.57838 0.29494,-1.26031 0.92625,-1.30773c0.5637,-0.07406 1.04923,0.384 1.22609,0.88766c0.18492,0.15759 0.44401,0.27879 0.59672,0.49355c0.18001,0.32095 0.12163,-0.00048 0.13656,-0.19074c-0.0124,-0.52472 0.31604,-1.10007 0.87652,-1.1541c0.40863,-0.02208 0.81971,0.03794 1.23055,-0.00152c0.28538,-0.06798 0.13699,0.36355 0.21449,0.53512c-0.04763,0.22223 0.20083,0.23773 0.32285,0.35773c0.42746,0.2954 0.51838,0.83524 0.53883,1.31813c0.39935,-0.00468 0.79862,-0.02851 1.19789,-0.04082c0.07757,0.13312 -0.03827,0.44687 -0.03192,0.64644c0.00553,0.68031 -0.50408,1.18842 -0.89656,1.68774c0.60338,-0.12456 1.21474,-0.26407 1.83469,-0.23899c0.31861,-0.00154 0.61867,0.13791 0.87356,0.30133c0.54655,0.14625 1.11002,0.1437 1.66992,0.10168c0.17436,0.0595 0.0545,0.44301 0.11058,0.63234c0.03283,0.1719 -0.0719,0.50893 0.20187,0.38297c0.5586,-0.12094 1.14982,0.24142 1.28176,0.80007c0.22196,-0.33115 0.62716,-0.51168 1.02125,-0.49207c0.78339,0.07259 1.59518,0.58267 1.82059,1.36711c0.1651,0.60334 -0.26537,1.16229 -0.76,1.45469c-1.38336,0.84598 -2.9903,1.21253 -4.44051,1.91781c-0.04979,0.35732 -0.17788,0.6971 -0.2568,1.04797c0.26413,-0.14697 0.65821,-0.35145 1.00418,-0.44457c1.08832,-0.30613 2.23471,-0.41785 3.36211,-0.35402c0.27003,-0.02905 0.40611,0.20868 0.58113,0.36887c0.56598,0.04409 1.13352,-0.03074 1.69961,0.00228c0.48818,-0.00959 1.04753,0.28737 1.07543,0.82234c0.13802,0.47767 0.65829,0.70597 0.92402,1.10363c0.24111,0.32747 0.20081,0.81258 -0.1039,1.08508c-0.55637,0.37436 -1.09864,0.79125 -1.66027,1.1682c0.18474,0.86331 -0.91275,1.59548 -1.66918,1.20308c-0.11763,-0.03733 -0.32086,-0.3098 -0.36219,-0.07719c0.05844,0.49243 -0.1786,1.0204 -0.65758,1.20902c-0.24641,0.03936 -0.32308,0.35247 -0.53586,0.40226c-0.78343,0.0968 -1.46362,-0.36467 -2.11598,-0.72438c0.0683,0.40704 0.12215,0.81855 0.11652,1.23203c0.02038,0.60556 -0.30145,1.30833 -0.95074,1.42129c-0.54769,0.1401 -1.20942,-0.17703 -1.29957,-0.76743c-0.34889,0.13111 -0.72446,0.02474 -1.06652,-0.07793c-0.48554,0.15585 -1.03216,0.2836 -1.52,0.06605c-0.30416,0.36196 -0.58255,0.79176 -0.85574,1.19418c-0.26319,0.46169 -0.6746,0.87061 -0.73848,1.41758c-0.26143,1.75923 0.00404,3.53994 0.20113,5.2918c0.00481,0.4609 0.17186,0.89713 0.42453,1.27879c0.37528,0.56527 0.80948,1.15989 1.44132,1.45098c0.86821,0.02155 1.74051,0.01611 2.61027,0.02747c-0.30646,0.19798 -0.61311,0.39651 -0.91957,0.59449c-0.02369,0.0139 -0.04624,0.03028 -0.06976,0.04453c4.46024,0.42077 8.70389,0.73849 12.36467,0.97466zM239.14537,255.57035c-0.00464,-0.00718 -0.0111,-0.01273 -0.01558,-0.02003c-0.06318,-0.21878 -0.09051,-0.48271 0.02599,-0.69617c0.33086,-0.60847 1.1308,-0.85419 1.35301,-1.54004c-0.0203,-0.8528 -0.44107,-1.63356 -0.56109,-2.47223c-0.18477,-0.79673 0.13862,-1.56937 0.35402,-2.32231c0.18483,-0.51791 0.03421,-1.05541 -0.07941,-1.56973c-0.28977,-1.43703 -0.69438,-2.85706 -0.80676,-4.32473c0.39704,-0.02524 0.79415,-0.05003 1.19121,-0.07496c0.29584,-0.12375 0.49897,-0.41502 0.71769,-0.64496c0.9711,-1.18788 1.77197,-2.51915 2.38094,-3.92691c-0.49894,0.03716 -0.99887,0.07788 -1.49254,0.1618c-0.48121,0.11011 -1.05452,0.14714 -1.40274,0.53734c-0.30862,0.20809 -0.69513,0.3097 -1.04945,0.43492c-0.68553,0.23788 -1.41318,0.15957 -2.12043,0.10984c-0.36591,0.36071 -0.89197,0.47616 -1.38121,0.56406c-0.92538,0.18632 -1.92411,0.02974 -2.7973,0.44012c-0.10965,0.17076 -0.01852,0.45329 -0.05195,0.66649c-0.32436,0.03963 -0.65407,0.04551 -0.97449,0.11207c-0.55352,0.12165 -1.10218,0.30354 -1.68773,0.40301c-0.32892,0.02569 -0.68772,0.16383 -0.99898,0.02227c-0.48999,-0.28362 -1.03878,-0.04648 -1.53484,0.08164c-0.95341,0.29 -1.94636,0.08942 -2.91309,0.00304c-0.92263,-0.142 -1.82602,0.13372 -2.73273,0.25457c-0.97291,0.02841 -1.87519,0.44893 -2.83738,0.54773c-0.23776,0.06188 -0.45126,-0.00457 -0.66797,-0.09722c-0.57631,-0.04468 -1.05612,0.36743 -1.56305,0.57965c-0.76344,0.42498 -1.65692,0.19931 -2.48039,0.33621c-0.00638,0.00063 -0.01275,0.0013 -0.0191,0.00201l0,14.87589c5.41407,-0.71301 14.51968,-1.49324 24.14537,-2.44338z" fill="#808080"/><path d="M200,400v-300h300v300zM485,115h-270v202.09394c43.82632,6.63159 93.47884,-54.58904 170.93812,-63.4149v-15.20156l-1.41609,-0.02953c-2.20783,-0.04746 -4.7659,-0.46359 -5.93579,-0.9661c-0.49034,-0.21061 -0.41008,-0.23095 1.47094,-0.36844c5.57403,-0.40746 9.62416,-1.78218 12.78703,-4.33969c1.34624,-1.08858 2.10693,-1.94989 3.85032,-4.36078l0.57656,-0.79594v-7.6725l-1.06594,0.04641c-2.99987,0.12837 -3.89503,0.06842 -4.86422,-0.32344l-0.45282,-0.18281l0.93797,-0.03094c4.49643,-0.14701 9.1949,-3.39515 11.41172,-7.88906c0.42203,-0.8555 0.42388,-0.87881 0.06468,-1.22625c-0.96431,-0.93297 -0.9995,-2.3289 -0.08438,-3.31594l0.37969,-0.40922l-0.03657,-0.49359c-0.05354,-0.7303 0.12302,-1.15149 0.57516,-1.37531v-0.00141c0.2269,-0.11228 0.45953,-0.14799 0.67782,-0.12375c0.65485,0.07273 1.17892,0.69037 1.02375,1.43016c-0.08184,0.3904 -0.04436,0.49083 0.38953,1.07016c0.88101,1.17689 0.88486,2.22405 0.01125,3.13031c-0.36383,0.37744 -0.3613,0.41752 0.10406,1.34719c0.98902,1.97567 3.04723,4.30578 5.13,5.80922c1.54824,1.11779 4.13914,1.97794 6.19453,2.05594l0.89016,0.03375l-0.5386,0.20812c-0.98109,0.37916 -1.95648,0.43116 -5.16656,0.27l-0.68906,-0.03516v7.99172l0.80016,1.07156c4.00938,5.37295 9.25662,7.89214 16.99312,8.15906c1.36911,0.0472 1.39591,0.05603 0.92672,0.27563c-1.18866,0.55619 -3.55977,0.9594 -5.94422,1.0111l-1.44282,0.03094v15.26062c18.93312,2.19207 39.35271,7.75961 61.50375,17.99688zM403.0311,221.78388c-0.6293,0.58263 -0.63886,0.64785 -0.67219,4.39031l-0.02672,2.90109l2.39344,-0.01406l2.39203,-0.01406l0.01688,-1.43016c0.01732,-1.51917 -0.0652,-4.22986 -0.14625,-4.78406c-0.11542,-0.78953 -0.70146,-1.3826 -1.69312,-1.71563c-0.19067,-0.06399 -0.37956,-0.09809 -0.56812,-0.10266c-0.56572,-0.01369 -1.12541,0.24103 -1.69594,0.76922zM401.84703,243.21373c-0.29812,0.59651 -0.36072,1.6031 -0.405,6.46031l-0.02813,2.98547c2.17887,-0.04023 4.37809,-0.03766 6.59953,0.01125l-0.02812,-2.24156c-0.07033,-5.57218 -0.13254,-6.73528 -0.38532,-7.25484c-0.30989,-0.6371 -1.41254,-1.44868 -2.25984,-1.66218c-0.15451,-0.03895 -0.31627,-0.06065 -0.48094,-0.0661c-1.15264,-0.03811 -2.48388,0.71047 -3.01218,1.76766zM418.8064,243.48373c-0.66645,0.64675 -0.75934,1.44977 -0.76078,6.62203v3.09375c0.38573,0.03201 0.77317,0.06783 1.16016,0.10266h2.99532l-0.00141,-2.95313c-0.00106,-5.86277 -0.16173,-6.72453 -1.36547,-7.3139c-0.25641,-0.12558 -0.51386,-0.18272 -0.77062,-0.17156c-0.42793,0.0186 -0.85214,0.2271 -1.25719,0.62016zM388.62547,243.51889c-0.62798,0.64595 -0.73818,1.70739 -0.7425,7.12687l-0.0014,2.65641h1.72406c0.8076,-0.07372 1.61639,-0.14468 2.43,-0.20672v-3.12469c-0.00039,-5.61858 -0.14341,-6.35591 -1.34859,-6.93562c-0.26346,-0.12672 -0.52939,-0.18213 -0.79313,-0.16734c-0.43956,0.02465 -0.87223,0.24365 -1.26844,0.6511z" fill="#008000"/><path d="M200,400v-300h300v300zM485,385v-46.50307c-0.91236,0.51164 -2.19134,0.8737 -6.4906,2.81322c-3.44628,1.55478 -3.52232,2.84871 -4.48875,3.4868c-3.30328,2.18065 -3.65346,2.41066 -3.7575,2.46445c0.54649,2.18965 1.34224,3.95326 3.22664,11.39274c3.79326,14.97728 0.84985,22.93353 -3.71342,26.34586zM485,115l-49.24705,0c-0.01659,0.29413 -0.05605,0.63785 -0.11801,1.04016c-0.08739,0.56797 -1.02193,1.09441 -1.36476,1.22836c-0.97076,0.37931 -0.56233,0.87148 0.16031,0.82055c0.29419,-0.02074 0.57522,0.05022 0.85851,0.08297c0.64362,0.07442 1.10666,0.41901 1.33383,1.04273c0.98736,2.71079 0.4576,3.10591 -0.44578,3.38695c-0.63961,0.19899 -1.00769,0.2565 -0.6082,0.81c9.82594,13.61581 8.5568,17.67961 11.79562,19.30922c3.29577,1.65824 8.93987,4.58657 11.76961,6.02648c0.4491,0.22852 5.97242,1.85101 13.32492,-0.90633c2.82625,-1.05998 4.69266,-1.80532 4.1393,-0.6525c-0.74346,1.54881 0.81981,2.94801 1.94766,2.94047c1.56377,-0.0104 4.9009,-1.65254 5.76211,-1.61156c0.11899,0.00569 0.26475,-0.03577 0.35929,-0.10687c0.1105,-0.18489 0.22143,-0.35528 0.33264,-0.51187zM215,115v150.18687c0.79908,0.32598 1.20231,0.90099 1.05954,1.46266c-0.18954,0.74572 -0.76038,1.26636 -0.34945,1.60875c0.34737,0.28959 0.65249,-0.17258 1.71352,-0.54c1.28434,-0.44481 2.48968,-0.28464 3.65766,0.35367c0.71445,0.39031 0.86572,0.76831 0.57375,1.53703c-0.78945,2.07889 -1.9613,2.10462 -0.74461,2.66906c1.64859,0.76476 3.91205,1.59727 6.85336,4.7475c2.60368,2.7887 2.18048,3.49572 3.25477,2.98758c3.06797,-1.45134 7.01628,-1.28825 9.55266,-0.04289c1.78896,0.87828 0.77097,2.46237 -1.25648,4.86563c-3.69915,4.38482 -5.20936,3.1556 -4.55484,4.64976c7.0822,16.16818 8.36014,18.68955 12.38344,22.33477c0.28913,0.26206 1.57592,1.29557 2.12836,1.3725c2.08104,0.29015 3.13061,1.70621 3.7125,2.02922c0.57781,0.32075 0.79609,-0.34576 0.65039,-0.77063c-1.81638,-5.29494 4.52003,-5.14268 7.36594,-3.51562c2.80818,1.60554 -0.61837,4.52851 -2.53547,6.70359c-0.41727,0.47335 0.05946,0.90329 0.53508,0.67148c1.11439,-0.54326 2.1213,-2.89797 7.1782,-1.86187c0.89018,0.18241 0.51107,0.24344 7.82508,-5.91891c0.90819,-0.76521 4.70394,-6.0841 5.25094,-6.88148c0.46338,-0.67559 0.78637,-0.99386 0.70242,-1.67274c-0.12485,-1.00982 0.61363,-2.21561 1.34156,-1.98211c0.25617,0.08214 0.43862,-0.03848 0.5611,-0.26508c0.01945,-0.03603 0.01815,-0.04252 0.03726,-0.07805c-0.19542,-0.08718 -0.36854,-0.23475 -0.48164,-0.30305c-1.13478,-0.68488 -1.24749,0.19461 -1.95469,-0.29109c-0.44639,-0.30658 -1.29841,-0.40083 -1.16789,-1.47727c0.14207,-0.99327 0.054,-1.99603 0.09422,-2.99531c0.04691,-1.16481 0.58664,-0.44304 0.66164,-3.52336c0.08441,-3.46372 0.35318,-4.89529 -0.57234,-6.9539c-1.65618,-3.68352 -2.31733,-4.26119 -1.45899,-5.12157c1.14101,-1.14373 -0.66625,-2.91593 -0.79031,-7.56281c-0.138,-5.16714 -0.45016,-9.86 4.09781,-13.63359c1.41995,-1.17818 2.84088,-2.33922 4.55133,-3.09797c0.63888,-0.28347 1.18338,-0.76015 1.83586,-1.04203c0.21787,-0.09415 2.72879,-3.71396 3.32156,-4.0261c1.68099,-0.88519 2.37103,-2.74948 5.94,-3.57609c0.20336,-0.0471 0.41235,-0.07379 0.62649,-0.08297c3.21202,-0.13768 7.56452,3.72948 10.93008,3.76242c0.09539,0.00091 0.22333,-0.03144 0.26015,0.10407c0.03478,0.12791 -0.07069,0.17806 -0.16031,0.23062c-2.12534,1.24661 -1.82575,0.56418 -2.80758,1.14188c-1.02205,0.60126 -0.07821,0.8118 -1.39359,2.20218c-2.69488,2.84852 -2.65976,2.39142 -2.72672,2.95032c-0.14638,1.22111 -0.31377,2.44161 -0.19266,3.67734c0.17697,1.80414 -0.85126,1.72624 0.05274,5.7382c0.70812,3.14316 0.11725,2.65525 0.36843,4.15266c1.17085,0.29074 1.98759,1.04478 2.49469,2.20781c0.41127,0.94342 0.57398,0.98994 1.39289,0.37055c11.68138,-8.83638 18.17341,-3.24502 19.06664,-3.4868c0.03411,-0.00922 0.05314,0.01194 0.08227,0.01266c-0.16029,-0.37821 -0.24831,-0.72009 -0.23344,-1.00547c0.13461,-2.58125 -1.11478,-1.75339 -1.3289,-2.3175c-0.10967,-0.28868 -0.26848,-0.63951 -0.19336,-0.90281c0.43766,-1.53483 -0.68501,-2.64494 0.40922,-3.32789c1.86782,-1.16582 2.2166,-2.15471 2.69086,-3.38273c0.18592,-0.48117 -0.18225,-0.8382 -0.15961,-1.15101c0.09925,-1.36818 -1.44636,-0.43753 -1.83304,-2.21414c-0.23271,-1.06919 -0.90153,-1.91353 -1.73461,-2.60578c-1.00234,-0.83285 -2.65461,-0.59981 -3.74555,-1.08914c-0.24472,-0.1099 -0.5049,-0.20043 -0.70101,-0.50203c0.53408,-0.37716 2.97826,-0.40461 4.40648,-1.30781c1.96038,-1.23981 2.24367,-1.96193 4.36289,-2.43563c1.03285,-0.23088 1.94303,-0.31925 2.75625,-0.2925c5.6925,0.18729 6.64334,6.02782 11.80688,8.29266c3.33921,1.46459 4.08766,2.51595 4.67578,3.1282c0.61713,0.64251 -1.21533,0.42883 -0.17367,1.53563c0.91,0.96699 1.85974,1.90412 2.46656,3.11062c1.82895,3.63639 2.31029,6.10172 2.18883,6.4568c-0.20212,0.08248 -0.24554,-0.09996 -0.32836,-0.2025c-1.16867,-1.44635 -0.82377,0.54373 0.01406,2.46094c0.68975,1.57846 0.61812,3.68472 1.81125,5.27484c0.17007,0.22659 0.19084,0.50039 0.18562,0.77695c-0.04419,2.35817 0.17906,4.70683 0.24047,7.06149c0.02515,0.96427 0.35347,0.11308 0.3818,1.59398c0.00805,0.41784 -0.02348,2.88387 -0.49922,2.91094c-0.29978,0.01711 -0.23473,-0.34087 -0.29953,-0.53789c-3.69201,-11.22831 -2.59468,-8.61789 -3.47274,-5.77969c-0.36753,1.18758 -0.166,1.78089 1.14961,8.3025c1.10261,5.46557 1.9497,5.67622 0.16946,5.01117c-4.25306,-1.58877 -4.21503,-0.55692 -6.08625,-0.0225c-0.03326,0.0095 -0.05491,0.00935 -0.08227,0.01407c0.14998,0.27933 0.56645,0.02098 0.84727,-0.04641c1.123,-0.26942 1.02012,1.39905 8.65125,9.66656c0.17992,0.19487 0.37523,0.46842 0.66867,0.35297c0.28834,-0.11341 0.27799,-0.43661 0.26859,-0.71226c-0.03501,-1.01469 0.41028,-1.74848 1.27055,-2.2718c2.78564,-1.69458 3.83716,-0.22147 5.3993,1.94273c0.71683,0.99305 -0.95831,2.55043 -0.53016,3.02696c0.66097,0.73575 2.31603,-1.70087 4.51195,-0.33258c1.34699,0.83931 4.05045,2.55956 3.25477,3.59226c-1.82941,2.37437 -3.07071,1.88211 -5.1982,1.73742c-0.26716,-0.01813 -0.57171,-0.07231 -0.73758,0.20742c-0.38249,0.64534 1.02794,1.54 1.29656,2.14523c0.73394,1.65346 9.86822,8.25444 10.79578,8.16539c1.97318,-0.18944 8.17983,7.41011 10.20094,8.02406c1.41247,0.42917 0.15597,-1.33995 -3.28781,-7.07063c-9.75397,-16.23128 -14.57417,-23.55491 -18.86485,-28.28461c-1.52962,-1.68609 -8.9775,-7.33781 -8.9775,-7.33781c-0.09914,-0.24268 0.07937,-0.59845 0.135,-0.90492c0.32732,-1.8029 -0.23388,-2.77131 0.66094,-2.23383c1.06012,0.63696 2.10637,1.35777 2.7218,1.65234c1.4229,0.68103 -0.27782,-2.59134 2.92078,-2.7682c1.18101,-0.06526 2.37247,-0.12673 3.55359,0.10055c1.92129,0.36969 -0.00183,-10.38708 3.29274,-16.37438c0.09948,-0.18082 0.16578,-0.37935 0.40008,-0.39375c0,0 -1.74693,21.949 0.48797,27.47813c3.8257,9.46495 20.79916,33.11231 24.83016,28.1482c2.49673,-3.07477 -1.10349,-14.66588 -2.58609,-18.24188c-0.6024,-1.4527 -0.05154,-1.44907 -0.3375,-2.19445c-0.15363,-0.40062 -0.5884,-0.41967 -0.72141,-0.02109c-0.43597,1.3062 -2.00798,1.68257 -3.02414,1.55953c-2.436,-0.2948 -3.46808,-2.66693 -3.02203,-4.13719c0.29684,-0.97854 0.83659,-1.04111 2.17758,-1.51945c0.70052,-0.24993 0.54382,-0.92936 -0.18774,-0.87328c-2.17848,0.16734 -3.85701,0.66333 -5.16797,-0.74461c-1.19993,-1.28853 -0.77188,-3.44737 1.25297,-3.63375c0.99679,-0.09176 2.00232,-0.06961 3.00375,-0.01828c1.30382,0.06673 2.21309,1.75375 2.65008,1.37601c0.67446,-0.58291 -2.79658,-3.15723 -1.35,-4.45289c0.63446,-0.5683 0.38125,-0.51818 -1.91109,-5.69812c0.32459,0.03784 0.4456,0.19959 0.56672,0.3607c1.02511,1.36319 2.13987,2.66037 3.06211,4.09992c0.70573,1.10159 1.45301,-0.01535 3.1043,1.29164c0.91011,0.72034 0.4202,1.51058 0.21445,2.40891c-0.14094,0.6152 0.26804,0.83433 0.74672,0.53929c0.56467,-0.34793 1.85402,-1.39636 3.61477,-0.72633c1.9938,0.75875 2.72199,0.93947 1.35914,3.88758c-0.2778,0.60115 -1.48169,0.88692 -1.90406,0.92601c-1.19597,0.11069 -0.8995,0.78515 -0.08297,0.95906c0.33241,0.07081 0.62061,0.23907 0.9239,0.36563c0.68907,0.28755 1.09189,0.81675 1.14469,1.57992c0.22954,3.31677 -0.48286,3.58581 -1.57289,3.60914c-0.77178,0.01654 -1.19836,-0.03646 -0.93234,0.70383c6.54246,18.21058 3.84209,22.30609 6.90961,25.14305c3.12145,2.88681 8.43865,7.92873 11.11359,10.42523c0.42452,0.3962 6.02478,3.95318 15.04617,3.24281c2.46682,-0.19432 4.28216,-0.34551 4.80797,-0.03304c2.47118,-2.54953 1.50715,-5.78827 -1.95258,-17.25961c-2.21869,-7.35695 -8.95198,-15.43369 -8.83336,-24.69867c0.02164,-1.68609 1.13317,-2.58629 0.7193,-5.12789c-0.16235,-0.9969 -0.74583,-0.96089 -2.02008,-1.77187c-1.9827,-1.26202 -2.59262,-3.988 -2.86804,-6.45539c-0.18445,-1.65244 0.71466,-3.00541 -0.43735,-4.80797c-1.16888,-1.82907 -2.18665,-2.88894 -2.37937,-5.12859c-0.08645,-1.00381 0.07898,-1.17788 1.06172,-1.13414c0.7515,0.03342 1.38278,0.43282 2.04398,0.72773c3.42577,1.52793 1.91053,3.06587 5.97937,4.29469c0.48831,0.14751 0.99973,0.32787 1.5286,0.24539c5.70519,-0.88905 4.30338,-2.61242 5.82609,-5.83946c0.23274,-0.49324 0.50861,-0.67325 0.79875,-0.63211c0.87045,0.12343 1.87057,2.23453 2.2261,3.83414c0.9032,4.06408 -0.68422,5.50437 0.67851,10.48922c0.74572,2.72797 2.77861,1.84137 4.56961,4.82766c3.82287,6.37421 20.67808,6.345 31.39734,28.17633c2.60459,5.30468 2.17539,8.3805 2.65078,12.22523c0.02003,0.16204 0.02644,0.27494 0.04429,0.42891c0.10859,-0.12514 0.2331,-0.25008 0.39727,-0.37547c3.40074,-2.59733 9.43407,-8.36258 13.28701,-11.39142l0,-169.71045c-0.39109,0.0579 -0.83772,0.13648 -1.34795,0.23985c-3.4738,0.63425 -6.92956,1.35176 -10.36406,2.17266c-8.36621,1.99952 -0.9309,-1.2366 -14.47313,3.9368c-5.15252,1.96831 -43.39304,2.73132 -50.04281,2.87789c-1.00386,0.02218 -0.16474,0.34504 -1.95187,0.53719c-1.1243,0.12089 -2.29249,0.0824 -1.65164,1.11375c0.56331,0.90665 1.62539,1.28511 1.34859,3.06914c-0.52704,3.39683 -4.64249,4.02105 -6.38086,1.40414c-0.6279,-0.94515 -0.02318,-1.54958 -0.0225,-3.01148c0.00028,-0.58485 -0.58712,-0.74052 -0.81773,-0.21164c-0.97613,2.2391 -0.95978,2.52232 -1.66571,3.52547c-1.82231,2.58982 -5.71144,0.41744 -4.68914,-2.26196c0.81768,-2.14337 1.89053,-4.10594 4.17938,-4.10906c0.69077,-0.00108 0.93789,-0.84175 0.08648,-0.81914c-1.20442,0.032 -2.34593,0.26595 -3.61828,-0.03164c-1.16006,-0.27139 -0.93523,-0.68578 -1.65164,-0.76359c-8.37809,-0.9131 -9.75963,1.26242 -18.75445,10.49625c-1.43282,1.47087 0.54391,0.73722 0.63843,2.07914c0.0671,0.95195 -0.2082,1.13916 0.31078,1.35422c0.23462,0.09719 0.32058,-0.07301 0.42539,-0.22429c0.52699,-0.76067 1.25796,-1.04195 2.15718,-0.88875c1.38365,0.23568 1.01287,1.32578 0.77063,2.73515c-0.11427,0.66441 -0.94451,0.96215 -1.20094,1.17774c-0.22347,0.18789 -0.19209,0.44579 0.07524,0.5625c0.46333,0.20233 1.26202,0.03361 1.49625,1.01531c0.18162,0.76095 0.26463,1.5305 0.22219,2.31399c-0.02693,0.49757 -0.28468,0.82462 -0.7432,0.96117c-0.71445,0.21265 -1.59573,0.32741 -2.20711,-0.49922c-0.06247,-0.08432 -0.51911,-0.65793 -0.87398,-0.52102c-0.35083,0.13531 -0.25916,0.53007 -0.37055,1.29586c-0.20095,1.38133 -1.97157,1.89129 -2.61281,1.30149c-1.52823,-1.40575 -1.23393,-3.09561 -0.30867,-3.69703c0.41272,-0.26824 0.50965,-0.49839 0.35086,-0.72984c-0.30945,-0.45142 -0.96265,0.26088 -2.00179,0.45844c-1.1171,0.21242 -2.01311,-0.79464 -1.65586,-1.8675c0.46284,-1.39019 1.98239,-2.48534 3.27023,-1.88438c0.55669,0.25995 0.78044,-0.20578 0.48164,-0.58008c-0.632,-0.79154 -0.8399,-1.69864 -1.47797,-1.03992c-1.03785,1.07148 -0.95158,0.53374 -3.285,2.90461c-3.15161,3.20214 -3.76986,2.4624 -3.12328,3.46571c0.91656,1.42209 -0.86405,3.00722 -2.81812,3.00515c-1.05055,-0.00108 -3.24606,-0.65621 -3.00867,-2.04679c0.07033,-0.41185 1.95116,-4.24193 4.36992,-2.78227c0.60504,0.36513 0.19802,0.60816 5.29594,-4.9268c2.24731,-2.44 12.81124,-13.51284 10.01953,-14.37187c-6.3565,-1.95585 -9.52046,0.58627 -10.42102,1.04062c-0.25792,0.13007 -0.67234,0.31862 -0.60047,0.61242c0.18155,0.74265 2.33609,-0.26935 2.88985,1.39148c0.27628,0.82854 0.48927,1.66983 0.46195,2.55023c-0.02279,0.73383 -0.29765,1.08512 -0.9893,1.31977c-0.74548,0.25279 -1.51059,0.36887 -2.29851,0.32625c-1.72381,-0.09319 -2.93798,-3.04418 -3.17672,0.22078c-0.09061,1.23971 -1.55368,2.13545 -2.6093,2.21274c-0.98679,0.07231 -1.21844,-0.14045 -1.56375,0.42468c-2.71216,4.43978 -9.69537,15.01725 -15.68391,19.86047c-0.81489,0.65896 0.45183,1.02019 -0.47601,1.99617c-0.39659,0.41715 -0.49438,0.51107 -2.70422,1.78805c-0.48857,0.28239 -1.49697,0.15837 -1.97297,0.04359c-0.57574,-0.13887 -1.1804,0.19355 -0.86273,0.74532c0.52313,0.9085 0.7052,1.19215 -0.13571,2.10586c-2.00976,2.18381 -3.64404,3.48357 -5.11664,2.01515c-2.22805,-2.22168 3.99183,-3.40607 -16.83281,4.67789c-0.55684,0.21609 -1.15844,0.32689 -1.36758,1.13625c-0.12756,0.4935 -0.59481,0.80325 -0.91687,1.1918c-0.64426,0.77723 -1.45479,1.017 -2.42157,0.86555c-0.93674,-0.1467 -1.02738,0.22366 -0.86484,0.5414c0.24285,0.47488 1.62442,0.89924 1.215,2.14875c-0.29444,0.89866 -0.72126,1.73605 -1.30711,2.48696c-0.92443,1.18481 -2.65436,0.21465 -3.76523,-0.79735c-0.42985,-0.3916 -0.42889,-3.60555 -1.99688,-1.35562c-1.21133,1.73818 -4.23813,0.88368 -4.65047,-0.6075c-0.59738,-2.15999 0.49232,-3.65899 2.16985,-3.71953c0.81478,-0.02938 0.92294,0.07677 1.15383,-0.12727c1.57301,-1.38967 -4.68052,0.01025 -4.23282,-3.68438c0.08301,-0.68518 1.25334,-1.80739 2.03274,-1.75711c1.19082,0.07685 2.29746,0.38933 3.35953,0.89648c0.52363,0.25003 0.84229,0.97492 0.89859,1.06102c0.23587,0.36036 0.78226,0.25424 0.75305,-0.27352c-0.02592,-0.46754 -0.91737,-3.25584 1.31484,-3.31172c0.86764,-0.02167 1.73069,0.08666 2.48907,0.58219c2.3301,1.52242 -0.46768,2.7626 -0.08508,3.43265c0.17694,0.3098 0.5161,0.20125 1.04906,0.0443c2.11519,-0.62322 2.18531,0.74894 3.48609,0.07383c0,0 9.44659,-4.5783 9.61594,-4.66172c2.38569,-1.17494 2.63391,-1.23141 2.6325,-1.69383c-0.00446,-1.47801 0.71271,-2.56869 1.87383,-3.40453c1.94421,-1.39951 3.72759,-0.07714 3.88758,-0.98437c0.10942,-0.62014 -1.50373,-0.65561 -2.56571,-1.23891c-2.31495,-1.27133 0.87386,-4.64559 3.39117,-3.91711c1.73543,0.50224 2.57687,1.04049 2.45601,2.14383c-0.05426,0.49542 -0.12407,0.84642 0.19617,0.91406c0.9798,0.20705 0.57434,-3.39647 2.91094,-4.12383c1.53346,-0.4773 5.43895,0.85272 1.94555,3.23719c-0.69357,0.47336 -0.2479,0.95564 0.37758,0.66445c0.78003,-0.3631 1.18465,-0.74173 3.29062,-2.61c4.94948,-4.39084 9.05216,-13.64145 13.49649,-19.78945c0.35998,-0.49787 0.17878,-1.11566 1.43226,-1.72969c0.2672,-0.1309 0.44774,-0.36224 0.66445,-0.55055c0.13314,-0.11575 0.14571,-0.28813 0.06328,-0.44508c-0.40697,-0.77538 -3.00381,1.68199 -5.07657,0.87539c-1.90064,-0.7396 -1.7703,-3.00784 -0.37547,-3.7582c1.2919,-0.69495 3.6967,-1.50713 4.9943,-0.6075c0.30582,0.21205 0.67606,0.40323 0.86133,0.11461c0.34904,-0.54332 -0.78286,-0.73279 -2.03977,-2.36672c-1.32195,-1.71841 2.50122,-3.51072 4.43672,-2.53266c1.06675,0.53905 0.12792,2.33672 0.71578,2.59312c0.28639,0.12497 0.47246,-0.07623 0.64688,-0.26719c0.40796,-0.44661 1.3802,-1.86005 3.67312,-1.55109c1.83859,0.24778 1.25223,0.80423 1.95328,0.6075c5.8053,-1.62918 11.38511,-1.17703 13.995,-1.03008c9.18488,0.51693 9.98547,1.39371 10.63196,0.765c1.9018,-1.84972 3.26448,0.69899 3.67031,0.98016c0.49238,0.34128 0.75872,0.02913 0.69188,-0.39656c-0.30002,-1.91175 -0.05599,-3.30148 1.75289,-4.52742c0.84945,-0.57571 1.29154,-0.7253 2.06578,-0.18492c0.70638,0.49299 1.4579,1.68426 1.5525,1.79648c0.9893,1.17363 -0.67923,3.21093 -0.05836,3.58172c0.62529,0.37332 1.88502,-2.05995 3.50578,-1.27406c2.68022,1.29963 2.40143,2.03442 3.44602,2.04891c1.75467,0.02444 8.43928,0.66345 12.00164,-1.26844c2.49937,-1.35549 4.13292,-4.059 2.37304,-6.85336c-1.78433,-2.83316 -7.41835,-6.34059 -10.31273,-8.03742c-1.82629,-1.07067 -1.88131,-1.16424 -2.42086,-1.01531c-2.65519,0.73301 -3.84575,-0.05914 -4.61461,-0.70664c-0.41788,-0.35187 -0.41196,-0.79568 -0.37617,-1.40977c0.0256,-0.43961 -0.12237,-1.23332 -0.5611,-1.215c-0.29205,0.01213 -0.41502,0.0524 -0.99843,2.23383c-0.83475,3.12139 -5.27284,2.52283 -5.72203,0.60961c-0.12052,-0.51315 0.3237,-2.16313 1.16016,-3.18656c1.04791,-1.28214 3.08533,-1.01021 2.92711,-1.64039c-0.04456,-0.17726 -0.145,-0.29376 -0.33398,-0.29953c-0.94975,-0.02869 -5.74802,1.45082 -5.7368,-0.91898c0.01696,-3.58838 2.5644,0.73259 -6.9068,-7.15781c-2.36201,-1.96777 -2.19374,-1.98802 -2.68593,-1.6432c-1.98799,1.39267 -4.32632,1.07378 -6.22196,-0.12445c-0.92041,-0.5819 -1.06347,-1.23419 -0.54844,-2.20922c1.85237,-3.50704 3.37706,-1.38744 -1.89773,-5.80992c-2.18896,-1.8353 -4.02553,-3.32554 -5.6651,-4.40883l-10.43452,0c-2.79906,2.12445 -6.1381,5.98595 -10.87999,11.92805c-1.44873,1.8154 -3.48543,4.77335 -4.33125,6.99961c-0.84191,2.21591 -1.56877,2.36121 -1.62422,4.03734c-0.02221,0.67035 0.55772,0.62288 0.72352,0.16523c0.71532,-1.97508 0.25064,-2.6844 4.22648,-4.32984c1.57492,-0.6518 3.15699,0.42953 3.08531,2.14031c-0.10597,2.52904 -2.28443,3.0471 -3.96843,3.82922c-0.68008,0.31582 -1.12947,0.43557 -1.06594,0.79172c0.23971,1.34523 3.08027,-1.41057 4.41844,1.57359c0.26562,0.59241 0.24496,1.54875 0.19476,2.19727c-0.13927,1.80011 -1.73553,3.04395 -3.46429,3.13664c-0.92599,0.0496 -1.30603,-0.41279 -1.78242,-0.86344c-2.32318,-2.19797 -1.03905,1.39857 -2.5657,2.9707c-0.93673,0.96462 0.06663,0.75298 1.65938,1.42312c3.68589,1.55099 -1.44859,7.79946 -4.07391,9.93023c-2.07022,1.68007 -2.03921,-0.76921 -2.85539,0.12164c-0.12235,0.13362 -1.30563,1.72964 -3.14508,4.15477c-0.64937,0.85614 0.18528,2.43012 -2.26898,3.75258c-1.95704,1.05446 -5.83913,0.37537 -6.01664,1.24242c-0.04601,0.22503 0.13237,0.37239 0.60539,0.50133c1.56089,0.42571 2.39089,0.04705 3.15492,0.90351c1.53729,1.72305 0.7429,3.06421 0.45211,4.03313c-0.52046,1.73426 -2.5029,3.23087 -5.56242,2.66906c-1.4535,-0.26694 -1.74969,-1.6845 -2.37024,-2.43422c-0.86643,-1.04664 -1.2829,0.02168 -2.29289,1.89211c-0.66711,1.23537 -3.02612,1.97548 -4.35867,2.11149c-1.04152,0.10637 -1.52675,-0.1945 -1.93711,-1.1686c-0.43271,-1.0273 -0.65084,-2.10514 -0.78398,-3.20414c-0.12626,-1.04235 0.17403,-2.11031 2.64164,-3.18586c0.67148,-0.29268 0.87815,-0.96351 -0.20039,-0.92812c-2.00604,0.06588 -2.97342,-0.06865 -3.5107,-0.98719c-0.58837,-1.00574 -1.72907,-0.26706 -4.03734,-2.59383c-2.14804,-2.16521 -1.70042,-2.83601 -2.76047,-1.82812c-1.7383,1.6528 -3.60498,2.86973 -5.59547,1.62844c-0.9295,-0.57969 -2.72287,-1.72308 -3.28711,-3.20062c-0.68995,-1.8067 0.85401,-3.15806 2.58891,-3.74695c3.09993,-1.05209 3.56181,-0.94889 3.07195,-1.69734c-0.05774,-0.08835 -3.2581,-5.16444 -6.52219,-9.39234c-0.95087,-1.23164 -1.65993,0.66729 -4.15054,-0.77836c-3.01653,-1.75087 -2.9894,-2.19533 -2.17477,-4.34109c0.14984,-0.39474 0.14616,-0.47017 -0.19406,-0.73687c-3.02584,-2.37194 -5.54653,-3.42714 -6.75211,-3.68859c-1.71433,-0.37162 1.40614,3.13074 -3.5557,3.0375c-1.6474,-0.031 -2.45833,-2.60168 -2.92219,0.15047c-0.2171,1.28827 -1.84383,2.04853 -3.13313,1.97086c-1.35368,-0.08145 -2.29056,-1.40301 -2.19867,-2.37023c0.10391,-1.09467 0.73286,-1.27624 1.59117,-1.87312c0.58411,-0.40616 0.284,-0.86442 -0.32133,-0.64898c-1.16148,0.41332 -1.9687,0.84793 -2.94961,0.89156c-1.07153,0.0476 -2.0405,-0.63756 -2.0461,-1.58625c-0.00994,-1.68832 1.84377,-2.27869 4.06125,-2.62547c0.50271,-0.07858 1.02131,0.14685 1.47164,0.28406c0.33315,0.10147 0.60639,-0.30781 0.33188,-0.56672c-1.30967,-1.23561 -2.02162,-2.10706 -0.45141,-3.03188c2.09016,-1.23107 3.82421,-0.708 3.85453,0.26086c0.02088,0.66734 -0.33062,1.23904 0.09422,1.42594c0.35916,0.15814 0.50345,-0.30031 1.30008,-0.86133c0.96426,-0.67913 2.00806,-0.8349 3.13523,-0.58289c0.68945,0.15402 0.90557,0.43289 0.84657,1.14398c-0.15943,1.92304 -1.13037,2.22528 0.01968,2.40398c1.55829,0.24211 3.6453,0.39355 6.85407,2.31469c2.84045,1.70068 2.65734,2.39225 3.43125,1.7107c2.21009,-1.94652 5.5426,-2.75858 7.95656,-2.32875c1.70259,0.30309 1.23279,1.86874 0.11883,4.35937c-2.03248,4.54424 -3.58609,3.88077 -2.68172,4.96969c9.78591,11.78311 11.4562,13.57941 15.68601,15.65367c0.30399,0.14914 1.62531,0.70194 2.10446,0.63352c1.80501,-0.25744 3.02036,0.67185 3.58312,0.80156c0.5588,0.12881 0.58064,-0.47942 0.35719,-0.79875c-2.78536,-3.97958 2.53508,-5.37284 5.29875,-4.69898c2.72705,0.66495 0.57115,3.92418 -0.50555,6.19805c-0.23417,0.49496 0.2665,0.73917 0.6075,0.43172c0.79893,-0.72046 1.07361,-2.92561 5.53922,-3.27516c0.78611,-0.06152 0.48434,0.08073 5.10469,-6.81328c0.57371,-0.85606 2.46265,-6.2027 2.72742,-6.99891c0.22429,-0.67458 0.41713,-1.01779 0.18422,-1.56375c-0.34645,-0.81213 -0.0204,-1.9944 0.64266,-1.97437c0.23333,0.00702 0.35727,-0.13741 0.405,-0.35578c1.41031,-6.4528 -0.31946,-4.12337 0.50484,-9.83953c0.28719,-1.99173 0.34811,-2.30495 0.90703,-2.4975c3.38713,-1.16677 1.90225,1.05165 4.13086,-3.645c3.73373,-7.86855 4.01004,-5.80564 1.27055,-6.72328c-0.64195,-0.21507 -0.1142,-0.23753 0.92672,-2.33086c0.57315,-1.15269 1.17054,-2.85328 0.58711,-4.00008c-0.05579,-0.10988 -0.12335,-0.22566 -0.05976,-0.37266v-0.0007c1.27721,-0.22525 2.28416,0.24174 3.09375,1.21992c0.56936,0.68802 0.71592,0.68771 1.25016,-0.02531c0.70663,-0.94321 1.40581,-1.77226 2.0934,-2.50055zM215,385h242.27691c-1.37104,-1.12425 -2.24461,-2.63714 -2.27017,-4.36899c-0.01371,-0.93074 1.46454,-2.07771 4.38047,-0.74601c1.68326,0.76872 4.41069,0.8915 6.84703,-0.3593c2.20374,-1.1315 2.79276,-3.32735 3.11203,-5.63555c0.54458,-3.93499 -0.92193,-15.03482 -3.97828,-23.34867c-3.75403,0.85419 -6.24059,1.9973 -9.19969,3.43406c-0.69078,0.33536 -0.54298,0.03514 -6.91594,-0.07101c-6.51481,-0.10854 -10.43292,1.21358 -13.57804,0.89929c-4.04924,-0.40469 -8.10518,-0.71102 -12.17039,-0.89648c-9.90251,-0.45194 -0.63653,-1.6665 -17.28282,-0.25312c-6.33354,0.53771 -48.92679,-10.80404 -56.33789,-12.76102c-1.11881,-0.29536 -0.29272,0.32924 -2.33297,-0.02742c-1.28366,-0.22444 -2.56562,-0.63978 -2.18461,0.70664c0.33491,1.18362 1.3912,1.94098 0.5161,3.82851c-1.66626,3.5939 -6.42313,2.97474 -7.5143,-0.47742c-0.39416,-1.24683 0.46849,-1.72387 0.93516,-3.34265c0.18671,-0.64761 -0.41417,-1.00792 -0.83813,-0.49571c-1.79463,2.16862 -1.86712,2.48761 -2.96859,3.3736c-2.84353,2.28736 -6.45798,-1.35786 -4.47188,-3.99938c1.58865,-2.11311 3.40207,-3.94491 5.93789,-3.2189c0.76532,0.219 1.30659,-0.6326 0.35648,-0.87891c-1.34404,-0.34839 -2.683,-0.45321 -3.99727,-1.18828c-1.19822,-0.67026 -0.81646,-1.05776 -1.58484,-1.3725c-8.9874,-3.68136 -11.21146,-1.71265 -24.11578,5.6468c-2.05555,1.17228 0.36871,0.99039 0.0457,2.50664c-0.22909,1.07565 -0.5941,1.19464 -0.08789,1.5982c0.22886,0.18241 0.37783,0.02164 0.54211,-0.1125c0.82605,-0.67446 1.72553,-0.75226 2.67258,-0.29602c1.45724,0.70199 0.69923,1.79013 -0.01828,3.27375c-0.33831,0.69938 -1.35309,0.76477 -1.70578,0.9218c-0.30738,0.13686 -0.35451,0.43241 -0.09563,0.64687c0.44866,0.37173 1.3866,0.43916 1.33313,1.60102c-0.04135,0.9006 -0.19406,1.77976 -0.49078,2.63391c-0.18841,0.54247 -0.57791,0.82247 -1.12922,0.82758c-0.85902,0.00782 -1.87221,-0.14617 -2.28586,-1.25648c-0.04226,-0.1133 -0.36492,-0.89422 -0.80157,-0.8557c-0.43166,0.03807 -0.45594,0.50439 -0.82336,1.31695c-0.66279,1.46572 -2.78601,1.46645 -3.3082,0.60891c-1.24446,-2.04388 -0.38034,-3.82157 0.83602,-4.19274c0.54258,-0.16553 0.72364,-0.38917 0.62156,-0.69609c-0.19884,-0.59855 -1.14945,-0.01769 -2.3632,-0.13008c-1.30485,-0.12078 -1.97577,-1.52236 -1.23821,-2.59664c0.95566,-1.39208 2.98686,-2.12012 4.22157,-1.04414c0.53374,0.4652 0.93023,0.02035 0.71859,-0.48938c-0.44764,-1.07802 -0.38913,-2.14896 -1.3057,-1.62281c-1.49088,0.85585 -1.22422,0.28857 -4.56399,2.17055c-4.51081,2.54182 -4.95959,1.52484 -4.56328,2.84203c0.56184,1.86702 -1.91542,3.05576 -4.07883,2.4307c-1.16311,-0.33604 -3.38497,-1.76157 -2.6789,-3.22593c0.20915,-0.4337 3.51276,-4.0756 5.72625,-1.68821c0.55368,0.59719 0.0244,0.73628 7.43414,-3.76875c3.26647,-1.98598 18.4955,-10.88267 15.67758,-12.72375c-6.41624,-4.19188 -10.73012,-2.38391 -11.87227,-2.16773c-0.32709,0.06186 -0.84659,0.13758 -0.86063,0.48586c-0.03558,0.88032 2.673,0.44656 2.75696,2.46234c0.04192,1.00562 0.00925,2.0051 -0.30164,2.97141c-0.25911,0.80543 -0.67516,1.10667 -1.51594,1.14609c-0.90615,0.04237 -1.79036,-0.07224 -2.64938,-0.37055c-1.87937,-0.65259 -2.28379,-4.30825 -3.58875,-0.76851c-0.49545,1.34405 -2.40068,1.87014 -3.59438,1.6193c-1.11587,-0.23442 -1.30498,-0.54397 -1.8675,-0.02813c-4.41859,4.05253 -15.5232,13.54153 -23.69883,16.99664c-1.11246,0.47007 0.17564,1.2736 -1.16297,2.05875c-0.57215,0.33558 -0.71125,0.40805 -3.56554,1.11797c-0.63107,0.15703 -1.70739,-0.30126 -2.19797,-0.58008c-0.59334,-0.33728 -1.36986,-0.16245 -1.19391,0.54985c0.28981,1.17285 0.40122,1.54547 -0.82125,2.28937c-2.92171,1.77797 -5.14485,2.69671 -6.30773,0.60117c-1.75939,-3.17049 5.50562,-2.50072 -20.13328,-0.18492c-0.68556,0.06186 -1.38779,-0.00631 -1.87734,0.82336c-0.29854,0.50587 -0.9145,0.69961 -1.395,1.02727c-0.96121,0.65542 -1.93495,0.66288 -2.95734,0.18703c-0.99067,-0.46101 -1.20937,-0.07954 -1.13063,0.32414c0.1176,0.60331 1.5133,1.5135 0.66164,2.76679c-0.61248,0.90139 -1.35273,1.69301 -2.24086,2.33789c-1.40137,1.01752 -3.00726,-0.60857 -3.915,-2.08336c-0.35122,-0.57068 0.67325,-4.13019 -1.78031,-2.13821c-1.11455,0.90489 -2.63846,0.61716 -3.70118,-0.13598zM381.11182,115.735c0.00108,0.08968 -0.0637,0.07294 -0.10688,0.08719c-0.73169,0.24035 -0.37037,0.43748 1.16016,1.85977c1.62882,1.51348 7.62427,7.76037 8.31586,7.37648c0.13173,-2.43864 0.79475,0.41688 1.31273,1.70437c0.1426,0.35624 0.12252,0.22609 0.07735,0.05203c1.90429,1.39214 7.36659,4.8851 10.43086,6.80766c0.19679,0.11933 0.42566,0.3003 0.64265,0.13359c0.21324,-0.16377 0.12744,-0.43121 0.05344,-0.65883c-0.27271,-0.83774 -0.0778,-1.55653 0.51398,-2.19937c1.91629,-2.08161 3.14625,-1.10501 4.96828,0.32484c0.83607,0.65608 -0.18665,2.35685 0.28477,2.65148c0.72773,0.45493 1.52342,-1.97458 3.68297,-1.36055c1.32467,0.37666 3.9918,1.16272 3.57609,2.21484c-0.95575,2.41901 -2.10897,2.30658 -3.91781,2.69648c-0.22714,0.04893 -0.49411,0.07708 -0.56531,0.35016c-0.16408,0.62994 1.22683,1.03774 1.59609,1.47797c1.00882,1.2027 10.20958,4.5149 10.96172,4.21805c13.02226,-4.38523 13.13865,-2.59779 12.79477,-1.95609c0.16964,-0.25385 0.67457,-0.86203 2.28586,-2.35195c1.34415,-3.16322 -4.44032,-11.96501 -6.53485,-14.59125c-0.85095,-1.06684 -0.39053,-1.19643 -0.80789,-1.74937c-0.22425,-0.29721 -0.59081,-0.20889 -0.60609,0.15539c-0.05009,1.19387 -1.27115,1.88515 -2.14805,2.02641c-2.10214,0.33877 -3.53195,-1.39151 -3.51281,-2.72461c0.01271,-0.88725 0.44778,-1.06876 1.45125,-1.78945c0.52418,-0.37652 0.23025,-0.90576 -0.36633,-0.68344c-3.00482,2.854 -7.52927,-1.31172 -4.31508,-2.71195c0.80922,-0.31575 1.65288,-0.53865 2.50031,-0.73617c1.10328,-0.25724 2.26664,0.93173 2.54039,0.51187c0.26523,-0.40673 -1.02001,-1.07571 -1.79225,-1.87055l-46.74653,0c1.22523,0.33827 1.83018,0.34771 2.27034,0.735zM391.87104,126.81484c-0.0155,-0.01133 -0.06232,-0.04098 -0.07735,-0.05203c-0.09951,-0.51738 0.01619,-0.18358 0.07735,0.05203zM217.3329,353.9889c0.9117,0.22716 0.99832,0.37949 1.31906,0.22711c1.79583,-0.85289 -2.86428,-1.30443 -3.65196,-3.63083v3.84473c0.64033,-0.49318 1.46603,-0.65695 2.3329,-0.44101zM215.13845,348.78578c0.31032,-0.73235 1.96397,-1.60206 2.81109,-1.29797c1.2943,0.46463 2.42019,1.16423 3.43477,2.06437c0.50021,0.44379 0.62254,1.3471 0.65742,1.46039c0.14638,0.47426 0.78455,0.53191 0.92039,-0.06188c0.12032,-0.52604 0.02222,-3.89867 2.51227,-3.24914c0.96778,0.25254 1.88869,0.64742 2.57063,1.43789c2.09532,2.42864 -1.39845,2.91037 -1.18828,3.77437c0.09721,0.39948 0.50726,0.38787 1.1475,0.38391c2.54114,-0.01609 2.18123,1.52559 3.83695,1.1925c0,0 11.92181,-2.05971 12.13594,-2.09812c3.01654,-0.54088 3.30934,-0.52456 3.45516,-1.03711c0.4661,-1.63828 1.60756,-2.6176 3.15984,-3.17321c2.59915,-0.93028 4.1525,1.1028 4.61883,0.14907c0.31882,-0.65191 -1.45595,-1.20509 -2.44617,-2.18953c-2.15853,-2.14573 2.4485,-4.86592 5.00414,-3.25687c1.76188,1.10929 2.52173,1.97294 2.03625,3.15633c-0.21798,0.53136 -0.40622,0.89811 -0.07313,1.07508c1.01911,0.54156 1.71775,-3.57854 4.53727,-3.63938c1.85037,-0.03988 5.75164,2.67733 1.12289,4.20469c-0.91895,0.30318 -0.57947,0.97956 0.20601,0.85641c0.97957,-0.15352 1.54909,-0.44363 4.4768,-1.84149c6.88076,-3.28528 14.37203,-12.22242 21.25336,-17.61469c0.55731,-0.43664 0.55361,-1.17846 2.1375,-1.45898c0.33763,-0.05982 0.61124,-0.2585 0.91125,-0.39797c0.18433,-0.08577 0.25288,-0.27312 0.21164,-0.4732c-0.20359,-0.98841 -3.86219,0.90559 -5.90063,-0.64828c-1.86918,-1.42482 -1.00199,-3.89558 0.78188,-4.28203c1.65221,-0.3579 4.57454,-0.49018 5.72484,0.91969c0.27112,0.3323 0.6197,0.66207 0.91688,0.40149c0.55969,-0.49046 -0.63343,-1.06155 -1.50469,-3.27164c-0.91635,-2.3244 3.88954,-3.0901 5.72133,-1.39008c1.0096,0.93697 -0.60307,2.62806 -0.03375,3.09937c0.27735,0.22965 0.54685,0.0666 0.80086,-0.08929c0.59413,-0.36459 2.12171,-1.62066 4.56258,-0.54774c1.95719,0.86038 1.13108,1.28961 1.97015,1.29516c6.9484,0.04588 12.98311,2.32493 15.82664,3.31945c10.00719,3.49975 10.6142,4.72657 11.53055,4.23633c2.69568,-1.44238 3.39275,1.81349 3.75258,2.25422c0.43654,0.53487 0.8306,0.27476 0.89226,-0.21797c0.277,-2.2128 0.99088,-3.67452 3.38485,-4.4557c1.12425,-0.36686 1.66111,-0.39168 2.34633,0.45351c0.62517,0.7711 1.0778,2.33042 1.14679,2.48485c0.72159,1.61505 -1.77529,3.33953 -1.20586,3.94804c0.57351,0.61271 2.74389,-1.68078 4.28836,-0.2939c2.55406,2.29347 2.01113,3.01831 3.16336,3.36726c1.93545,0.58631 9.13458,3.42431 13.69547,2.42016c3.19996,-0.7046 5.87131,-3.17814 4.81289,-6.83367c-1.07315,-3.70629 -6.19545,-9.38636 -8.86008,-12.18797c-1.68133,-1.76778 -1.71257,-1.88861 -2.35758,-1.89563c-3.17413,-0.03444 -4.2402,-1.29139 -4.88532,-2.25351c-0.35065,-0.52286 -0.20227,-1.01179 0.03305,-1.68047c0.16847,-0.47868 0.25757,-1.40555 -0.23414,-1.52508c-0.32732,-0.07965 -0.47625,-0.07413 -1.81758,2.15578c-1.91925,3.19079 -6.64431,1.11378 -6.53203,-1.1482c0.03014,-0.60671 1.04883,-2.2923 2.30133,-3.15914c1.56916,-1.08595 3.73893,-0.1355 3.76453,-0.88383c0.00714,-0.21051 -0.06747,-0.37143 -0.27492,-0.43805c-1.04267,-0.33445 -6.82794,-0.22535 -6.06024,-2.84625c1.16243,-3.96857 2.60595,1.62833 -5.36836,-10.12851c-1.9887,-2.93202 -1.79542,-2.9004 -2.45039,-2.67539c-2.64549,0.90876 -5.13378,-0.19018 -6.85125,-2.12133c-0.83387,-0.93776 -0.78408,-1.70558 0.09703,-2.62125c3.16915,-3.29355 4.18187,-0.46016 -0.25031,-7.03899c-9.4662,-14.05133 -11.50759,-15.00535 -32.27484,-0.2714c-2.18301,1.54877 -5.38153,4.17509 -7.02774,6.37101c-1.63862,2.18573 -2.49041,2.11509 -3.08601,3.95367c-0.23826,0.7353 0.41936,0.86812 0.74883,0.41414c1.42165,-1.95936 1.13342,-2.89297 6.06094,-3.44813c1.95188,-0.21991 3.35976,1.48142 2.73516,3.3532c-0.92337,2.76705 -3.50092,2.64686 -5.61516,2.97633c-0.8538,0.13301 -1.39051,0.12252 -1.43367,0.53719c-0.16304,1.56622 3.86081,-0.58063 4.39172,3.1507c0.10537,0.74074 -0.22146,1.79318 -0.48375,2.49539c-0.72793,1.94917 -2.89203,2.81785 -4.83609,2.36953c-1.04131,-0.24019 -1.31549,-0.87348 -1.69946,-1.52437c-1.87235,-3.17458 -1.5967,1.21835 -3.78843,2.47289c-1.34484,0.76974 -0.16591,0.85467 1.38445,2.10445c3.58767,2.89236 -4.09019,8.17586 -7.67672,9.69891c-2.82812,1.20084 -2.01352,-1.50201 -3.20133,-0.77555c-0.1781,0.10899 -1.99727,1.49979 -4.80726,3.5993c-0.99203,0.74119 -0.56882,2.75026 -3.70828,3.43266c-2.50341,0.54405 -6.58577,-1.44507 -7.05868,-0.54141c-0.1227,0.23452 0.02771,0.45457 0.51047,0.74812c1.59296,0.96892 2.63308,0.81402 3.20625,2.00602c1.15336,2.39816 -0.15385,3.63003 -0.78468,4.61039c-1.12913,1.75475 -3.80231,2.78062 -7.01157,1.18336c-1.52464,-0.75887 -1.4002,-2.42288 -1.84851,-3.45094c-0.62597,-1.43524 -1.42833,-0.38477 -3.14297,1.36477c-1.13252,1.15552 -3.98005,1.22328 -5.49914,0.94922c-1.18736,-0.21413 -1.62928,-0.70224 -1.77328,-1.9118c-0.15182,-1.27561 -0.04952,-2.53876 0.15328,-3.79828c0.19238,-1.1946 0.86475,-2.28194 3.94031,-2.68664c0.83693,-0.11012 1.28024,-0.78671 0.07453,-1.09125c-2.2426,-0.56637 -3.27171,-1.02354 -3.57398,-2.21203c-0.33105,-1.30133 -1.8295,-0.84722 -3.6443,-4.15969c-1.6888,-3.08247 -0.97911,-3.68296 -2.4743,-2.90461c-2.45186,1.2764 -4.90746,2.02878 -6.71625,0.01969c-0.84463,-0.93821 -2.46658,-2.77526 -2.62055,-4.59141c-0.1883,-2.22074 1.95293,-3.22512 4.06195,-3.32437c3.76838,-0.1772 4.2464,0.0843 3.94242,-0.90071c-0.0358,-0.11624 -1.96258,-6.75865 -4.23,-12.48117c-0.66052,-1.66705 -2.05057,0.21015 -4.34813,-2.18461c-2.78269,-2.9004 -2.6105,-3.38382 -1.02445,-5.50055c0.29174,-0.3894 0.31142,-0.47441 0.01969,-0.8782c-2.59507,-3.59118 -5.05029,-5.56294 -6.30211,-6.23672c-1.78012,-0.95793 0.55964,3.91563 -4.9057,2.23102c-0.48919,-0.1508 -0.85223,-0.48666 -1.14884,-0.84002l0,72.37037c0.03646,-0.12462 0.08238,-0.25301 0.13845,-0.38535zM293.05244,278.97109c-0.37241,0.39156 -0.66433,-0.26673 -1.45265,0.69188c-3.71946,4.52293 -4.04137,6.25265 -4.21313,6.85336c4.07107,-0.19871 1.75233,1.75769 5.70516,-2.71968c6.64272,-7.52418 6.29153,-5.15246 3.55008,-7.0418c-0.24858,-0.17133 -0.25561,-0.27575 -0.135,-0.42891c-0.37029,0.17693 -2.5183,1.66107 -3.45446,2.64516zM335.08877,281.43062c1.3215,2.19525 5.97003,11.02371 6.85828,10.81899c0.41266,-0.09505 0.35151,-0.55774 0.35367,-0.95203c-0.40333,-1.93248 -1.02697,-3.46586 -1.17351,-3.90094c-0.40118,-1.19166 -0.77874,-1.04533 -3.015,-4.11047c-0.99853,-1.36865 -2.32206,-3.02466 -3.76313,-4.27359c-0.79811,0.04903 -0.46823,0.41132 0.73969,2.41804zM464.05596,384.12765c-0.00637,-0.00968 -0.00558,-0.0071 -0.00774,-0.00703c-0.51015,0.38338 0.18077,0.38928 0.00774,0.00703z" fill="#c71585"/><path d="M200,400v-300h300v300zM485,385v-270h-270v270z" fill="#000000"/></g><g clip-path="url(#clip-1)" id="svg979" fill="none"/><g clip-path="url(#clip-2)" id="Layer_1" fill="none"/><g clip-path="url(#clip-3)" id="svg" fill="none"/><g clip-path="url(#clip-4)" id="svg3762" fill="none"/></g></svg>
