<?xml version="1.0" encoding="UTF-8" standalone="no"?>
<svg
   version="1.1"
   width="800"
   height="800"
   viewBox="0,0,800,800"
   id="svg979"
   sodipodi:docname="mountain.svg"
   inkscape:version="1.1 (c68e22c387, 2021-05-23)"
   xmlns:inkscape="http://www.inkscape.org/namespaces/inkscape"
   xmlns:sodipodi="http://sodipodi.sourceforge.net/DTD/sodipodi-0.dtd"
   xmlns="http://www.w3.org/2000/svg"
   xmlns:svg="http://www.w3.org/2000/svg">
  <defs
     id="defs983" />
  <sodipodi:namedview
     id="namedview981"
     pagecolor="#ffffff"
     bordercolor="#666666"
     borderopacity="1.0"
     inkscape:pageshadow="2"
     inkscape:pageopacity="0.0"
     inkscape:pagecheckerboard="0"
     showgrid="false"
     inkscape:zoom="1.04"
     inkscape:cx="210.09615"
     inkscape:cy="398.55769"
     inkscape:window-width="1920"
     inkscape:window-height="1017"
     inkscape:window-x="-8"
     inkscape:window-y="-8"
     inkscape:window-maximized="1"
     inkscape:current-layer="g977" />
  <g
     fill="#ff0000"
     fill-rule="nonzero"
     stroke="none"
     stroke-width="1"
     stroke-linecap="butt"
     stroke-linejoin="miter"
     stroke-miterlimit="10"
     stroke-dasharray="none"
     stroke-dashoffset="0"
     font-family="none"
     font-weight="none"
     font-size="none"
     text-anchor="none"
     style="mix-blend-mode:normal"
     id="g977"
     transform="translate(58.653846,53.846154)">
    <path
       id="rect36000"
       style="fill:#b3b3b3;stroke-width:45.3543"
       d="M 469.23047,98.076172 C 431.14,104.3176 448.01576,108.14776 404.80859,99.039062 390.771,111.07192 374.20388,123.69702 360.4468,141.73331 c -14.29631,18.74326 -37.29408,29.53422 -57.04917,49.02968 -19.76038,19.50067 -37.76428,37.38917 -54.00742,43.59871 -19.86072,7.5925 -30.72555,25.56331 -43.44294,32.33166 -10.96368,5.835 -41.03037,10.22323 -73.14844,13.79102 1.34325,-0.72644 2.55951,-1.68719 3.87305,-2.4668 0.74388,-0.48421 1.48854,-0.96892 2.23242,-1.45313 -2.36409,-0.0472 -4.74212,0.0358 -7.09766,-0.0918 -1.96724,-0.81193 -3.3654,-2.55143 -4.625,-4.19922 -1.18003,-1.66807 -2.30612,-3.53998 -2.31055,-5.64844 -0.67299,-5.73169 -1.48355,-11.6159 -0.93164,-17.45117 0.18261,-1.39469 0.3029,-2.88025 1.20703,-4.02539 1.53913,-2.49983 3.1935,-4.93078 4.97852,-7.26172 1.69287,1.03936 3.76223,0.51461 5.51758,-0.0684 1.35305,0.40964 3.07001,0.9688 4.25195,-0.13086 0.2159,-0.0964 -0.0229,0.81023 0.16211,1.10742 0.31006,1.55445 2.0424,2.33215 3.50586,2.06055 1.7978,-0.18897 2.90169,-1.99501 2.97461,-3.68164 0.17673,-2.07209 -0.23933,-4.13462 -0.56445,-6.17188 2.29622,1.06973 4.38185,2.84137 6.98437,3.07617 0.58005,-0.0414 1.28246,0.18891 1.59375,-0.45312 0.664,-0.931 2.02873,-0.96639 2.6211,-1.99023 0.70792,-0.88065 0.47163,-2.03491 0.625,-3.06055 0.18131,-0.44893 0.90593,-0.51753 1.28124,-0.47656 1.20028,1.49144 3.55988,1.14876 4.79883,-0.10938 0.84293,-0.73887 1.30365,-2.01064 0.81446,-3.06836 1.86523,-1.32473 3.77779,-2.60288 5.59179,-3.98437 1.07947,-0.45528 1.55926,-1.85256 1.01563,-2.88672 -0.88251,-1.66462 -2.95537,-2.47467 -3.52735,-4.3418 0.0171,-1.29297 -1.13945,-2.25164 -2.35742,-2.39453 -2.32069,-0.30672 -4.66762,0.12587 -6.99414,-0.11523 -0.58236,-0.46538 -0.96571,-1.32195 -1.8125,-1.26758 -3.15699,-0.20771 -6.34353,0.10766 -9.44726,0.69922 -2.11334,0.46819 -4.28615,1.10697 -5.97657,2.51757 -0.72591,0.0508 -0.45031,-0.7283 -0.38476,-1.16406 0.28805,-1.3328 0.79216,-2.61916 0.94726,-3.98047 2.91979,-1.5524 6.11458,-2.49304 9.16797,-3.74218 2.67141,-1.10715 5.50255,-2.07881 7.73047,-3.98438 1.1616,-0.96999 1.67359,-2.65583 1.01758,-4.06055 -0.95319,-2.08192 -3.18555,-3.39644 -5.40234,-3.69336 -1.62411,-0.17354 -3.16634,0.91102 -3.70313,2.42579 -0.26885,0.82797 -0.35457,0.42473 -0.38672,-0.24024 -0.16142,-1.50244 -1.12814,-3.10197 -2.75,-3.2793 -0.8578,-0.14208 -1.71054,0.11785 -2.55859,0.21875 -0.0663,-1.24021 -0.13194,-2.48045 -0.19727,-3.7207 -1.6877,0.0964 -3.39178,0.15494 -5.04297,-0.28125 -0.55724,-0.0488 -1.03412,-0.20765 -1.44531,-0.58203 -1.82714,-0.99943 -4.00529,-0.49523 -5.95703,-0.22266 -1.42704,0.25761 -2.84189,0.57674 -4.25195,0.91407 1.40941,-1.76124 3.09078,-3.38939 3.99609,-5.48633 0.29277,-1.00032 0.23108,-2.07259 0.37891,-3.10156 -1.35932,0.0291 -2.7261,0.25669 -4.08203,0.10546 -0.34589,-1.32116 -0.0683,-2.86749 -1.04297,-3.97656 -0.47698,-0.71632 -1.31789,-1.05481 -1.98242,-1.52148 -0.0806,-0.7202 -0.12742,-1.44434 -0.19532,-2.16602 -1.31174,0.0689 -2.61967,0.0396 -3.92773,-0.0449 -1.47264,0.0282 -2.59793,1.33452 -2.71875,2.75 -0.15552,1.12301 -0.036,2.25675 -0.0488,3.38281 -0.66276,0.29915 -0.79636,-0.29078 -1.03711,-0.76953 -0.60959,-1.0587 -1.57552,-1.91469 -2.67578,-2.41016 -0.4461,-1.56347 -1.76264,-3.11266 -3.51172,-3.05664 -1.73074,0.003 -2.87484,1.75315 -2.85937,3.35743 -0.0667,0.81115 0.16109,1.71586 -0.0723,2.46679 -1.55233,0.18246 -3.25862,0.29413 -4.4707,1.41211 -1.09774,0.90466 -1.52952,2.35494 -1.625,3.71289 -0.90145,1.56122 -0.27212,3.56642 1.03711,4.68946 0.71246,0.70534 1.56167,1.24668 2.33984,1.87304 0.0447,0.41393 -0.16012,0.79799 -0.62305,0.76758 -1.91064,0.23129 -4.14962,-0.21101 -5.703122,1.20899 -1.60483,1.44233 -1.660304,4.35061 0.08594,5.7207 2.151292,1.7492 4.930552,2.40027 7.509762,3.25976 1.24637,0.38508 2.49849,0.75195 3.73633,1.16407 -3.71028,1.33633 -7.49112,2.50366 -11.328124,3.41406 -0.600916,0.004 -1.091863,0.20772 -1.40625,0.73828 -0.794989,1.11469 -2.266782,0.56571 -3.396484,0.56641 -1.16389,-0.0961 -2.289268,0.28777 -3.351562,0.71875 -0.452259,-0.7757 -1.398889,-1.22784 -2.283204,-1.00782 -1.601169,0.40027 -2.146695,2.17793 -2.824218,3.49024 -0.248811,0.46096 -0.421903,0.97445 -0.726563,1.39648 -1.788585,0.0423 -3.819398,-0.47636 -5.382812,0.68164 -1.464869,0.99447 -1.458096,3.17638 -0.386719,4.45899 0.39206,0.56571 0.963784,1.04255 1.480469,1.4375 -1.112222,1.10183 -0.816269,2.91975 0.148437,4.01172 0.694895,0.87622 1.484435,1.7783 2.595703,2.10742 -1.567151,0.53749 -3.297003,0.7816 -4.646484,1.80273 -0.308392,1.02656 -0.615877,2.05339 -0.923828,3.08008 0.936353,0.0639 1.87149,0.17124 2.808593,0.20899 0.0033,0.31352 0.773,0.96292 0.400391,0.89843 -2.543744,-0.41647 -5.118153,0.80652 -7.628906,0.0899 -0.67132,-0.16637 -1.051803,-0.88808 -1.628906,-1.13282 -1.813941,0.0219 -3.506089,0.6936 -5.210938,1.22266 -0.978235,0.20798 -2.004037,0.17817 -2.953125,0.53711 -0.537255,-0.34822 -0.744602,-0.96783 -1.134766,-1.42188 -0.523313,-0.30961 -1.022576,-0.72569 -1.666015,-0.50585 -1.390791,0.10647 -2.09436,1.53776 -2.691406,2.625 -0.503728,0.93867 -0.952807,1.90408 -1.419922,2.86132 -0.788383,0.0915 -1.64923,0.34647 -2.414063,0.13282 -0.136797,-0.7694 -0.144907,-1.55892 -0.232422,-2.33594 -1.384424,-0.0105 -2.848526,0.27808 -4.130859,-0.40039 -1.46218,-0.59891 -3.014959,0.25118 -3.929687,1.39844 -0.372161,0.54335 -1.125966,0.95147 -0.945313,1.70312 -0.235776,1.05422 -1.03275,1.90719 -1.611328,2.80274 -1.350799,1.86729 -2.851157,3.654 -3.851563,5.74218 -1.870534,2.58054 -5.26287,3.41472 -7.248046,5.86914 -1.010551,1.20569 -0.726906,2.84746 -0.833985,4.29688 1.456823,-0.057 2.921048,-0.10661 4.349609,0.24219 1.580974,0.29196 3.192783,0.35742 4.794922,0.24023 0.976834,-1.28142 2.229083,-2.53784 3.921875,-2.70508 2.167026,-0.36025 4.518279,0.2336 6.527344,-0.88476 1.334015,-0.55846 2.596666,-1.64297 4.113281,-1.52539 0.570293,0.24382 1.132118,0.41869 1.757813,0.25585 2.532081,-0.26001 4.906513,-1.36664 7.466797,-1.4414 2.386087,-0.31803 4.763443,-1.0436 7.191406,-0.66992 2.544017,0.22731 5.157034,0.75517 7.666016,-0.008 1.30544,-0.33715 2.749624,-0.96122 4.039062,-0.21484 0.819113,0.37252 1.763334,0.009 2.628906,-0.0586 1.540926,-0.26177 2.984764,-0.74042 4.441407,-1.06055 0.84321,-0.17515 1.710884,-0.19064 2.564453,-0.29492 0.08797,-0.56105 -0.151826,-1.30453 0.136718,-1.75391 2.297884,-1.07995 4.926113,-0.66789 7.361326,-1.1582 1.28747,-0.23133 2.67184,-0.53513 3.63477,-1.48438 1.86117,0.13087 3.77604,0.33695 5.58007,-0.28906 0.93244,-0.32952 1.94956,-0.59692 2.76172,-1.14453 0.91636,-1.02685 2.42507,-1.1243 3.69141,-1.41406 1.29912,-0.22083 2.61474,-0.32798 3.92773,-0.42578 -1.60254,3.70464 -3.7101,7.20797 -6.26562,10.33398 -0.57559,0.60511 -1.11014,1.37162 -1.88867,1.69727 -1.0449,0.0656 -2.08992,0.13085 -3.13477,0.19726 0.29574,3.86228 1.36051,7.59919 2.12305,11.38086 0.299,1.35347 0.69537,2.76794 0.20898,4.13086 -0.56686,1.98142 -1.41787,4.01468 -0.93164,6.11133 0.31584,2.20703 1.42315,4.26164 1.47656,6.50586 -0.58474,1.80487 -2.68986,2.45149 -3.56054,4.05273 -0.30659,0.56174 -0.23467,1.2563 -0.0684,1.83203 0.0118,0.0192 0.0288,0.0338 0.041,0.0527 -40.1602,3.96415 -76.880159,6.80446 -76.900385,9.59765 l -2.53125,349.63086 756.730465,2.88282 1.39844,-354.04297 c 0,0 -29.64841,-0.90766 -64.25,-4.17188 0.0619,-0.0375 0.12126,-0.0806 0.18359,-0.11718 0.80648,-0.521 1.61344,-1.04346 2.41992,-1.56446 -2.28885,-0.0299 -4.58438,-0.0156 -6.86914,-0.0723 -1.66274,-0.76603 -2.80537,-2.33081 -3.79296,-3.81836 -0.66492,-1.00438 -1.10454,-2.15235 -1.11719,-3.36524 -0.51867,-4.61016 -1.21727,-9.29623 -0.5293,-13.92578 0.16811,-1.43939 1.25076,-2.51549 1.94336,-3.73047 0.71893,-1.05899 1.45153,-2.19006 2.25195,-3.14258 1.2838,0.5725 2.72227,0.2363 4,-0.17382 0.90016,0.27017 1.88851,0.5501 2.80664,0.20507 0.23724,1.55368 1.97865,2.38823 3.41993,2.01954 1.70865,-0.29727 2.55558,-2.14667 2.50195,-3.74024 0.0148,-1.08811 -0.12691,-2.17102 -0.30664,-3.24219 1.71672,0.9466 3.5067,2.161 5.56836,1.90625 0.55993,-0.13105 0.7617,-0.955 1.41015,-1.05859 1.26048,-0.49639 1.88425,-1.88576 1.73047,-3.18164 0.10876,-0.61213 0.64359,0.10488 0.95313,0.20312 1.99061,1.03262 4.87874,-0.89413 4.39258,-3.16601 1.47799,-0.99198 2.905,-2.08906 4.36914,-3.07422 0.80187,-0.71709 0.90793,-1.99371 0.27343,-2.85547 -0.69929,-1.04649 -2.06842,-1.64727 -2.43164,-2.9043 -0.0734,-1.40781 -1.54539,-2.18929 -2.83007,-2.16406 -1.4897,-0.0869 -2.98324,0.11003 -4.47266,-0.006 -0.46058,-0.42153 -0.81869,-1.04716 -1.5293,-0.9707 -2.96683,-0.16797 -5.98366,0.12603 -8.84765,0.93164 -0.91046,0.24505 -1.9475,0.78316 -2.64258,1.16992 0.20768,-0.92334 0.54475,-1.8175 0.67578,-2.75781 3.81635,-1.85601 8.04512,-2.82063 11.68555,-5.04688 1.30165,-0.76945 2.43448,-2.24038 2,-3.82812 -0.59317,-2.06433 -2.72947,-3.40664 -4.79102,-3.59766 -1.03708,-0.0516 -2.10339,0.42347 -2.6875,1.29492 -0.3472,-1.47014 -1.90304,-2.42372 -3.37305,-2.10546 -0.72047,0.33146 -0.44486,-0.55546 -0.53125,-1.00782 -0.14759,-0.49824 0.16782,-1.50747 -0.29101,-1.66406 -1.47343,0.11059 -2.95624,0.11729 -4.39453,-0.26758 -0.67074,-0.43004 -1.46037,-0.79702 -2.29883,-0.79297 -1.63145,-0.066 -3.24028,0.30112 -4.82813,0.62891 1.03285,-1.31399 2.37394,-2.65112 2.35938,-4.44141 -0.0167,-0.5252 0.28813,-1.35086 0.084,-1.70117 -1.0507,0.0324 -2.10142,0.0951 -3.15234,0.10742 -0.0538,-1.27074 -0.29308,-2.69137 -1.41797,-3.46875 -0.32111,-0.31579 -0.97494,-0.35659 -0.84961,-0.9414 -0.20395,-0.45149 0.18656,-1.5871 -0.56445,-1.40821 -1.08116,0.10385 -2.16295,-0.0541 -3.23828,0.004 -1.47496,0.1422 -2.33928,1.65628 -2.30664,3.03711 -0.0393,0.50068 0.11434,1.34656 -0.35938,0.50195 -0.40186,-0.56517 -1.08367,-0.88411 -1.57031,-1.29882 -0.46543,-1.32541 -1.74314,-2.53083 -3.22656,-2.33594 -1.66135,0.12479 -2.58086,1.91935 -2.4375,3.4414 -0.0848,0.34897 0.30367,1.14338 -0.31836,1.02539 -1.84413,0.0357 -3.73077,1.20184 -4.14649,3.07813 -0.0806,0.66153 -0.25429,1.26962 -0.46484,1.89844 -0.32307,1.72677 0.97544,3.18665 2.30859,4.07812 0.73444,0.39197 -0.28416,0.28141 -0.64062,0.31055 -1.54183,-0.0549 -3.37612,0.31229 -4.11914,1.83203 -0.78364,1.45214 -0.42532,3.43981 0.97851,4.38086 2.07458,1.48107 4.63555,2.00475 7.01758,2.79492 -2.59989,0.8268 -5.19691,1.73599 -7.89258,2.19336 -0.41777,0.48048 -0.86064,1.14759 -1.60156,0.92969 -1.16304,-0.16534 -2.4043,-0.11407 -3.49609,0.34961 -0.54546,-0.65935 -1.50491,-0.87469 -2.28711,-0.54883 -1.44904,0.62916 -1.83825,2.32768 -2.53907,3.59961 -1.5748,-0.1336 -3.51663,-0.28955 -4.60546,1.10742 -1.07928,1.35174 -0.39781,3.30708 0.83789,4.30664 0.19445,0.32604 -0.37856,0.9349 -0.22852,1.42774 0.0398,1.2632 0.96239,2.26354 1.84375,3.07226 -0.93692,0.32698 -2.02604,0.4788 -2.65039,1.32813 -0.92785,0.92786 -1.85535,1.85534 -2.7832,2.7832 0.66927,0.0527 1.33854,0.10547 2.00781,0.1582 -1.18551,0.12556 -2.64846,0.42575 -3.51758,-0.63281 -0.43181,-0.53166 -1.1795,-0.12837 -1.76562,-0.14062 -1.41522,0.22148 -2.70327,0.96303 -4.1543,0.99414 -0.48233,0.22094 -0.89392,0.1239 -1.05273,-0.41407 -0.24496,-0.45894 -0.84334,-0.68855 -1.28711,-0.875 -0.87587,-0.0541 -1.74353,0.28809 -2.24805,1.02735 -0.71554,0.98358 -1.20051,2.10995 -1.73828,3.19531 -0.52241,0.0724 -1.31088,0.36732 -1.10938,-0.48047 -0.11743,-0.54118 0.16051,-1.52462 -0.71289,-1.21875 -0.9809,0.0104 -2.00987,0.17279 -2.91015,-0.32226 -1.41791,-0.49856 -2.80972,0.4252 -3.63282,1.53125 -0.51683,0.39298 -0.60513,0.91907 -0.65234,1.50781 -1.18009,2.11266 -2.95813,3.84835 -4.00977,6.03711 -1.5847,2.05777 -4.58031,2.61602 -5.80273,5.00195 -0.4511,1.04212 -0.23499,2.21013 -0.34375,3.3125 1.44816,-0.0234 2.89227,0.0166 4.3125,0.32422 1.09375,0.16692 2.20147,0.15252 3.30273,0.084 0.79489,-0.9803 1.73869,-2.05177 3.10938,-2.07422 1.67622,-0.15629 3.47772,0.14863 4.99023,-0.77929 0.84998,-0.36157 1.66822,-1.06427 2.63282,-0.98633 0.93313,0.49364 2.02207,0.05 3.00195,-0.0996 1.43838,-0.37851 2.87858,-0.76985 4.37109,-0.84961 1.80042,-0.31325 3.62309,-0.72912 5.45703,-0.41601 1.95784,0.24186 3.9845,0.47538 5.89454,-0.17579 0.80974,-0.26341 1.71928,-0.49657 2.49414,0.004 0.84452,0.23388 1.77887,-0.0823 2.64257,-0.19727 1.61601,-0.38038 3.20883,-0.8667 4.87696,-0.96874 0.61256,-0.0636 -0.0558,-1.19925 0.39257,-1.45704 1.61275,-0.54615 3.17533,-0.34946 4.84766,-0.64843 1.09025,-0.157 2.23119,-0.41463 3.09766,-1.13477 1.64824,0.18285 3.35092,0.15661 4.90234,-0.5 0.6696,-0.25999 1.39027,-0.45727 1.85352,-1.0293 1.34346,-0.62917 2.85509,-0.74198 4.3125,-0.88672 -1.32882,2.74888 -2.90939,5.43243 -5.01563,7.66016 -0.51625,0.65924 -1.44763,0.31706 -2.16797,0.47461 -0.70473,-0.0241 -1.36376,-0.009 -1.00586,0.86328 0.24822,2.9612 1.08636,5.82596 1.66016,8.73242 0.0977,0.55569 0.38059,1.43177 0.16797,2.1211 -0.44112,1.7405 -1.24902,3.50848 -0.77344,5.33789 0.16871,1.106 0.58859,2.16187 0.85352,3.24609 -34.82911,-4.17234 -68.86454,-12.74432 -83.78907,-21.88476 -22.29643,-13.65533 -47.64603,-30.78662 -77.78798,-74.66916 -20.83778,-30.33694 -55.94526,-57.00806 -71.75303,-90.133578 z"
       transform="translate(-58.653846,-53.846154)"
       sodipodi:nodetypes="ccsssscccccccccccccccccccccccccccccccccccccccccccccccccccccccccccccccccccccccccccccccccccccccccccccccccccccccccccccccccccccccccccccccccccccccccccccccccccccccccccccccccccccccccccccccccccccccccccccccccccccccccccccccccccccccccccccccccccccccccccccccccccccsscc" />
  </g>
</svg>
