<?xml version="1.0" encoding="UTF-8" standalone="no"?>
<!-- Created with Inkscape (http://www.inkscape.org/) -->

<svg
   width="210mm"
   height="297mm"
   viewBox="0 0 210 297"
   version="1.1"
   id="svg1296"
   sodipodi:docname="scene.svg"
   inkscape:version="1.1 (c68e22c387, 2021-05-23)"
   xmlns:inkscape="http://www.inkscape.org/namespaces/inkscape"
   xmlns:sodipodi="http://sodipodi.sourceforge.net/DTD/sodipodi-0.dtd"
   xmlns="http://www.w3.org/2000/svg"
   xmlns:svg="http://www.w3.org/2000/svg">
  <sodipodi:namedview
     id="namedview1298"
     pagecolor="#ffffff"
     bordercolor="#666666"
     borderopacity="1.0"
     inkscape:pageshadow="2"
     inkscape:pageopacity="0.0"
     inkscape:pagecheckerboard="0"
     inkscape:document-units="mm"
     showgrid="false"
     inkscape:snap-global="false"
     inkscape:zoom="1.8246871"
     inkscape:cx="494.05731"
     inkscape:cy="339.51027"
     inkscape:window-width="1920"
     inkscape:window-height="1017"
     inkscape:window-x="-8"
     inkscape:window-y="-8"
     inkscape:window-maximized="1"
     inkscape:current-layer="layer9" />
  <defs
     id="defs1293">
    <clipPath
       id="clipEmfPath1"
       clipPathUnits="userSpaceOnUse">
      <path
         id="path7"
         d="m 0.449699,-0.449699 406.378301,0 0,528.096699 -406.378301,0 z" />
    </clipPath>
    <pattern
       y="0"
       x="0"
       height="6"
       width="6"
       patternUnits="userSpaceOnUse"
       id="EMFhbasepattern" />
    <clipPath
       id="clipEmfPath1-8"
       clipPathUnits="userSpaceOnUse">
      <path
         id="path7-5"
         d="m 0.449699,-0.449699 406.378301,0 0,528.096699 -406.378301,0 z" />
    </clipPath>
    <pattern
       y="0"
       x="0"
       height="6"
       width="6"
       patternUnits="userSpaceOnUse"
       id="EMFhbasepattern-0" />
  </defs>
  <g
     inkscape:groupmode="layer"
     id="layer9"
     inkscape:label="Back"
     style="display:inline">
    <path
       id="rect1345-4-27"
       style="color:#000000;display:inline;fill:#0000ff;stroke-width:1;stroke-miterlimit:10;-inkscape-stroke:none"
       d="M 22.02702,13.500692 V 19.500325 130.80723 H 205.73053 V 13.500692 Z" />
  </g>
  <g
     inkscape:groupmode="layer"
     id="layer7"
     inkscape:label="Mountain"
     style="display:inline">
    <path
       id="rect1345"
       style="color:#000000;fill:#000000;stroke-width:1;stroke-miterlimit:10;-inkscape-stroke:none"
       d="M 22.027274,13.500696 V 19.500848 130.80723 H 205.73027 V 13.500696 Z M 34.027057,25.500997 H 193.73049 v 81.204863 c -13.90846,-32.508285 -27.7729,-16.246528 -34.69556,-27.947645 -29.32648,-14.937402 -17.06973,-67.18853 -73.536079,0 C 46.180626,118.84636 42.034542,105.74483 34.338667,118.80745 h -0.31161 z" />
  </g>
  <g
     inkscape:label="Tree"
     inkscape:groupmode="layer"
     id="layer1"
     style="display:inline">
    <path
       id="rect1426"
       style="display:inline;fill:#00ff00;stroke-width:12.3901;stroke-miterlimit:10"
       d="M 22.027274,13.50069 V 19.500842 130.80723 H 205.73027 V 13.50069 Z m 11.999783,11.999785 h 7.307567 c 0.08011,0.530704 0.203396,1.053589 0.439248,1.538407 0.221461,0.481195 0.444648,0.96212 0.703834,1.42472 0.355976,0.709208 0.969298,1.252162 1.301213,1.975591 0.0045,0.08585 0.0089,0.170958 0.01291,0.257347 -0.219265,-0.163497 -0.399269,-0.3746 -0.628385,-0.526066 -0.755142,-0.530958 -1.630492,-0.848714 -2.503204,-1.12758 -0.0044,0.640853 0.06376,1.284833 0.238744,1.902727 0.190836,0.646332 0.487428,1.28832 0.993222,1.748729 0.375653,0.378392 0.942033,0.583044 1.46916,0.458372 -0.167868,0.651791 -0.342586,1.302253 -0.484209,1.960603 -0.258641,-0.426501 -0.520772,-0.858113 -0.889868,-1.20096 -1.026353,-0.989724 -2.317263,-1.649688 -3.623035,-2.192115 -0.06563,0.392059 -0.05503,0.790601 -0.05633,1.186492 -0.01585,0.887468 0.125987,1.781582 0.438216,2.613276 0.31277,0.820217 0.840259,1.610929 1.639695,2.021584 0.527669,0.286522 1.158721,0.331951 1.739429,0.206187 -0.138346,0.567587 -0.494173,1.038952 -0.802019,1.523423 -0.593836,0.866693 -1.177594,1.741466 -1.715658,2.644799 -1.100717,1.809932 -1.936695,3.778811 -2.484602,5.824966 -0.127405,0.515091 -0.27141,1.032624 -0.287838,1.566315 -0.360896,-0.181547 -0.716372,-0.37364 -1.05265,-0.598932 -0.0016,0.545176 0.06886,1.08622 0.06356,1.631942 0.18864,0.127949 0.396007,0.225438 0.599964,0.326596 0.115927,0.822396 0.21485,1.647947 0.27337,2.475817 0.08696,0.688433 0.131006,1.38243 0.129707,2.076876 -0.0093,0.333005 0.07811,0.664435 0.01085,0.995805 -0.01423,0.507986 -0.01961,1.016166 -0.0956,1.520319 -0.07,0.252079 -0.08643,0.514623 -0.14056,0.76998 -0.09788,0.541891 -0.247986,1.07242 -0.380857,1.606103 -0.03119,0.333552 -0.0093,0.671579 0.01963,1.004592 0.03718,0.838808 -0.0063,1.681022 0.06098,2.518192 0.02241,1.957021 1.149667,3.502802 1.145667,3.358452 0.01863,-0.002 0.05476,-0.007 0.07338,-0.009 0.307856,1.9089 0.671711,3.809479 0.964801,5.720579 -1.083779,0.80085 -2.430418,1.50797 -2.822052,2.859251 -0.576789,1.990319 -0.871347,4.04555 -1.000455,6.110739 -0.07046,1.127085 -0.116853,2.113965 0.151413,3.204465 0.281956,1.14617 0.520959,2.30288 0.716751,3.46697 0.312793,1.86407 0.297362,3.7591 0.363802,5.64307 0.203499,5.77212 0.321484,11.557662 0.176734,17.330722 -0.688867,0.15111 -1.377675,0.28472 -2.066542,0.43925 z m 8.778277,0 h 2.816365 c -0.143256,0.353954 -0.29033,0.706287 -0.42323,1.064535 -0.136702,0.405186 -0.291452,0.809041 -0.347781,1.236099 -0.410655,-0.239503 -0.725845,-0.603401 -1.058852,-0.93586 -0.380574,-0.410853 -0.715577,-0.871098 -0.986502,-1.364774 z m 3.925342,0 h 5.846154 c -0.445764,0.584261 -0.902163,1.160333 -1.386996,1.71359 -1.890866,2.037405 -3.707762,4.152696 -5.307168,6.429581 -0.209976,0.287073 -0.379026,0.603637 -0.609783,0.875401 0.08585,-1.767295 0.28766,-3.529725 0.582393,-5.27513 0.221454,0.0924 0.44531,0.206303 0.692465,0.203604 0.666012,0.05249 1.253569,-0.353869 1.716175,-0.788582 0.544621,-0.532046 1.000897,-1.15428 1.359606,-1.825213 -1.112208,-0.208338 -2.321721,-0.208269 -3.33933,0.34675 0.112096,-0.54189 0.270759,-1.072017 0.42168,-1.60352 0.0077,-0.02564 0.01701,-0.05086 0.02479,-0.07648 z m 7.592301,0 h 1.476396 c -0.429638,0.421974 -0.797785,0.983954 -0.766879,1.608688 0.0038,0.346125 0.19163,0.666215 0.456819,0.880565 0.0044,0.01537 0.01389,0.04517 0.0186,0.06046 -1.024165,0.195212 -2.061179,0.395078 -3.108855,0.33383 0.643533,-0.959551 1.285018,-1.920862 1.923916,-2.883546 z m 3.348633,0 h 3.641638 c 0.136056,0.250428 0.323466,0.47376 0.552936,0.643372 0.06835,0.01476 0.136774,0.03058 0.205674,0.04754 -0.526581,0.220908 -1.082876,0.359023 -1.623674,0.540017 -1.137912,0.348866 -2.279983,0.687443 -3.436482,0.966867 0.177707,-0.266296 0.361397,-0.53484 0.452168,-0.845426 0.132556,-0.439603 0.192743,-0.894763 0.20774,-1.352373 z m 11.520741,0 h 13.23589 c -0.12689,0.714301 -0.15969,1.441641 -0.0527,2.163691 0.13615,0.9602 0.57307,1.906286 1.33532,2.528012 0.51564,0.411199 1.13943,0.712089 1.79834,0.787548 -0.56212,0.955823 -1.12406,1.949585 -1.2914,3.062346 -0.082,-0.05632 -0.1579,-0.11973 -0.21808,-0.197919 -0.44182,-0.532048 -0.97518,-0.983967 -1.56682,-1.340487 -1.39272,-0.848638 -2.95248,-1.38266 -4.52893,-1.771986 0.0623,1.955927 0.51756,3.965221 1.65055,5.590873 0.48283,0.676405 1.11498,1.277737 1.89911,1.582852 0.7032,0.281606 1.51241,0.233018 2.20193,-0.06718 -0.0563,0.247703 -0.0916,0.504775 -0.21188,0.732256 -0.23512,0.487749 -0.64599,0.853173 -1.03094,1.220081 -0.55009,0.462052 -1.08953,0.93944 -1.66915,1.363223 0.0109,-0.770458 -0.20462,-1.523809 -0.51521,-2.222087 -0.43416,-0.969486 -1.03614,-1.853046 -1.69395,-2.682007 -0.57744,0.821309 -1.08698,1.702448 -1.3839,2.667021 -0.25157,0.751866 -0.35061,1.55603 -0.26148,2.345076 0.0815,0.527127 0.28884,1.049002 0.66559,1.435055 0.19794,0.199581 0.44835,0.3341 0.6966,0.460955 -0.3002,0.291999 -0.64826,0.528701 -0.97307,0.791165 -0.55665,0.413938 -1.09616,0.854781 -1.68672,1.220597 -0.45877,0.23677 -0.97828,0.311748 -1.47587,0.431498 -2.14951,0.447828 -4.31231,0.932119 -6.32675,1.827797 -1.433729,0.620628 -2.754841,1.486755 -3.931025,2.511473 -0.596017,0.559387 -1.194454,1.170164 -1.47278,1.956469 -0.146009,-0.128503 -0.243125,-0.298199 -0.332805,-0.467154 -0.385503,-0.730535 -0.66802,-1.511255 -0.887286,-2.306319 -0.247155,-0.941052 -0.425362,-1.909617 -0.427363,-2.884578 0.462601,0.28598 0.965454,0.52428 1.508435,0.603581 0.782489,0.141078 1.589405,-0.0663 2.27893,-0.439767 0.82295,-0.452218 1.516282,-1.106395 2.116664,-1.821077 1.04879,-1.253288 1.86906,-2.683234 2.54765,-4.165637 -0.90278,-0.139946 -1.81808,-0.118017 -2.728514,-0.104386 -1.079396,0.06834 -2.159391,0.260279 -3.168798,0.658358 -0.742024,0.283792 -1.426017,0.709099 -2.013831,1.243335 0.05359,-0.205055 0.09433,-0.417695 0.202055,-0.603065 0.124118,-0.214897 0.244686,-0.435242 0.305408,-0.677479 0.08094,-0.262472 0.04659,-0.541985 0.111104,-0.807185 0.129593,-0.454943 0.331814,-0.885537 0.462505,-1.340488 0.479004,0.09077 0.986565,0.03505 1.418,-0.198437 0.582887,-0.303477 1.001612,-0.834263 1.337902,-1.385443 0.57743,-0.980427 0.921856,-2.07659 1.167371,-3.182237 -0.395338,0.0607 -0.795552,0.09067 -1.185973,0.180351 -1.052066,0.226928 -2.094373,0.623538 -2.932639,1.313617 -0.544071,0.45385 -0.995776,1.091514 -1.014923,1.823143 0.03335,0.436893 0.123854,0.954355 0.52193,1.210262 -0.04977,0.172786 -0.09744,0.347044 -0.14831,0.520383 C 60.944569,38.11403 60.130684,37.330453 59.250326,36.65897 58.454168,36.055294 57.609787,35.515702 56.731614,35.039429 56.54898,34.933897 56.362732,34.83194 56.163691,34.76141 c -0.223641,0.988081 -0.370057,1.998874 -0.350366,3.014286 -0.01696,0.974416 0.152921,1.942793 0.417028,2.878379 -0.417761,0.572505 -0.778552,1.191572 -1.017508,1.860867 -0.252079,0.71741 -0.372155,1.512771 -0.135393,2.252059 0.123582,0.292 0.282046,0.579798 0.528651,0.787033 0.137247,0.11866 0.300363,0.201027 0.448551,0.304374 -0.276691,0.632108 -0.633635,1.226494 -0.942578,1.843299 -0.152564,-0.267394 -0.283946,-0.548053 -0.467672,-0.796851 -0.47846,-0.667107 -1.086221,-1.232239 -1.716691,-1.753899 -0.187558,0.443465 -0.34729,0.90002 -0.440799,1.37356 -0.167872,0.798888 -0.189878,1.661626 0.12454,2.428791 0.202313,0.503065 0.64099,0.918389 1.182872,1.020093 -0.04375,0.101166 -0.08929,0.203091 -0.147277,0.29714 -0.520018,0.841544 -1.05106,1.678165 -1.653646,2.463932 -0.155292,0.208333 -0.310028,0.419 -0.498676,0.599448 0.03226,-0.694446 -0.05736,-1.391475 -0.236162,-2.062408 -0.323707,-1.225947 -0.860523,-2.385524 -1.4888,-3.483507 -1.056984,1.074475 -1.968008,2.329497 -2.472716,3.760493 -0.27282,0.820216 -0.443585,1.713079 -0.242361,2.568834 0.155834,0.666557 0.569306,1.30548 1.20251,1.604036 0.0093,0.03115 0.01863,0.06377 0.02842,0.09715 -0.491579,0.231849 -0.949409,0.532489 -1.455208,0.735356 0.03777,-0.317151 0.09778,-0.636103 0.05788,-0.956532 -0.118108,-1.152128 -0.595228,-2.233374 -1.161169,-3.231843 -0.68898,0.642501 -1.238263,1.434923 -1.603521,2.3027 -0.284345,0.71523 -0.456755,1.54159 -0.166399,2.283066 0.09241,0.261369 0.289391,0.461121 0.468191,0.665075 -0.707567,0.248801 -1.409835,0.514256 -2.132171,0.719855 -0.976596,0.279416 -1.969077,0.559152 -2.990514,0.596863 0.0044,-0.333558 0.06754,-0.663284 0.05994,-0.996839 -0.0055,-0.269576 0.02048,-0.537215 0.04341,-0.804603 0.0177,-0.711391 0.01495,-1.421805 0.01963,-2.133202 -0.01688,-0.692809 0.02072,-1.389381 -0.05529,-2.079459 -0.0104,-0.703192 -0.109879,-1.400347 -0.188619,-2.098064 1.047687,-0.423235 2.077606,-0.887219 3.108336,-1.349271 0.02898,0.260829 0.08929,0.526417 0.241847,0.74569 0.31496,0.477907 0.831379,0.773866 1.341001,1.004072 0.624454,0.263557 1.281859,0.458058 1.953887,0.548288 -0.12686,-0.924099 -0.390342,-1.868365 -0.998389,-2.597258 -0.196853,-0.244975 -0.455131,-0.424752 -0.702281,-0.613399 1.414042,-0.71632 2.808994,-1.499906 4.04368,-2.501656 0.497052,0.02569 1.009719,-0.0011 1.471229,-0.206187 0.654523,-0.270674 1.140018,-0.840609 1.430919,-1.473815 0.505799,-1.06737 0.600411,-2.268223 0.63872,-3.431831 -0.0055,-0.658355 -0.0629,-1.314307 -0.121957,-1.969389 -1.452872,0.594932 -2.811274,1.481733 -3.825605,2.691826 -0.486113,0.596021 -0.878546,1.293143 -0.999939,2.060855 -0.101156,0.651254 0.07578,1.352661 0.521417,1.845882 0.03982,0.0432 0.110778,0.130376 0.03204,0.174667 -0.510167,0.360889 -1.044117,0.689785 -1.584915,1.002006 0.404625,-0.993542 0.246377,-2.10026 -0.03359,-3.104202 -0.268475,-0.902235 -0.622641,-1.785036 -1.093988,-2.600876 -0.785217,0.791779 -1.502598,1.672402 -1.966288,2.694927 -0.369075,0.826229 -0.606552,1.761205 -0.402045,2.662887 0.123584,0.61407 0.505248,1.16752 1.034563,1.503266 -0.01371,0.02241 -0.04011,0.06699 -0.05374,0.0894 -0.143267,0.03828 -0.283337,0.08748 -0.42168,0.141076 -1.107289,0.417219 -2.262235,0.698931 -3.431315,0.872815 -0.105516,-0.522192 -0.02845,-1.053899 0.02894,-1.576647 0.176625,-1.283361 0.628811,-2.510041 1.185457,-3.674194 0.61626,-1.207899 1.357868,-2.349205 2.198315,-3.412195 1.321638,-1.638245 2.631694,-3.285133 3.933094,-4.939232 1.28828,-1.652456 2.591999,-3.294092 3.844727,-4.973342 0.769914,-0.176072 1.531406,-0.393536 2.307868,-0.538985 -0.04265,0.504156 0.09194,1.057638 0.497128,1.390097 0.539702,0.445646 1.270489,0.51744 1.942518,0.552421 0.618434,-5.29e-4 1.234212,-0.07713 1.842264,-0.187587 -0.272859,-0.487753 -0.584475,-0.959427 -0.98857,-1.348753 -0.343945,-0.358709 -0.749305,-0.672089 -1.219565,-0.845429 -0.0044,-0.03828 -0.0079,-0.07649 -0.01188,-0.114204 0.767173,-0.174975 1.517989,-0.413038 2.284616,-0.589111 -0.04812,0.545161 -0.02511,1.109612 0.177766,1.624708 0.265745,0.710854 0.86556,1.247353 1.533758,1.578714 0.962384,0.472441 2.041908,0.631597 3.10162,0.704869 1.077214,0.03116 2.15873,0.01828 3.227192,-0.135911 -0.501968,-1.151025 -1.188662,-2.227662 -2.052072,-3.141927 -0.677494,-0.696082 -1.47697,-1.307486 -2.407089,-1.616438 -0.0024,-0.01696 -0.0059,-0.05124 -0.0072,-0.06873 0.228571,-0.06562 0.454686,-0.140121 0.681612,-0.21394 0.733271,-0.229116 1.457767,-0.489463 2.172993,-0.76998 0.535321,-0.224186 1.085417,-0.436925 1.551845,-0.789614 0.691166,0.142168 1.373829,0.321947 2.064989,0.463021 -0.12795,0.259733 -0.24401,0.535678 -0.2434,0.830955 -0.0558,0.728351 0.32878,1.399596 0.77825,1.941484 0.74312,0.873246 1.69289,1.544309 2.68098,2.114084 0.33847,-1.341324 0.4167,-2.807081 -0.1323,-4.104659 0.40246,0.113187 0.80954,0.21431 1.19942,0.367419 0.20287,0.714682 0.79644,1.32501 1.53737,1.465543 0.94707,0.195213 1.90669,-0.113974 2.77502,-0.475421 0.75733,-0.327541 1.46621,-0.752528 2.15026,-1.211297 -0.96511,-0.759519 -2.08836,-1.34596 -3.29954,-1.584915 -0.62554,-0.115383 -1.28522,-0.12858 -1.89601,0.06718 -0.39808,0.132879 -0.7348,0.39156 -0.9989,0.714169 -0.77757,-0.328075 -1.55276,-0.664424 -2.35438,-0.930175 -0.0855,-0.02811 -0.17227,-0.05456 -0.25838,-0.08217 z m 18.46296,0 h 1.41129 c -0.0143,0.268269 0.0122,0.538967 0.10387,0.794785 -0.0705,0.115382 -0.17529,0.203515 -0.26769,0.299206 -0.31495,0.33355 -0.59309,0.700368 -0.91571,1.026809 0.0151,-0.726335 -0.11648,-1.434584 -0.33176,-2.1208 z m 5.17385,0 h 72.182659 c -0.49369,0.566404 -0.96703,1.150334 -1.39578,1.767851 -0.78576,1.140645 -1.49432,2.389595 -1.69447,3.780131 -0.13779,0.967306 0.16752,2.001393 0.86196,2.698028 0.45331,0.447288 1.00575,0.780274 1.57768,1.053681 -0.2477,0.224187 -0.46231,0.483913 -0.72915,0.686779 -0.25044,0.191389 -0.42817,0.480031 -0.73329,0.593762 -0.34722,0.145455 -0.66649,0.344276 -0.99787,0.520899 0.005,-0.353788 0.0236,-0.709261 -0.0119,-1.06195 -0.15311,-1.139547 -0.63342,-2.206218 -1.20975,-3.191021 -0.73437,-1.241255 -1.63574,-2.37622 -2.61999,-3.427179 -0.79998,1.298662 -1.45574,2.699845 -1.80351,4.190441 -0.24655,1.061363 -0.36237,2.172531 -0.17208,3.253031 0.13779,0.82295 0.46665,1.646674 1.07745,2.234488 0.54462,0.55611 1.31645,0.844773 2.08308,0.903822 0.21544,0.0339 0.3991,-0.102722 0.59376,-0.170532 -0.11811,0.175528 -0.25504,0.337328 -0.40049,0.489892 -0.51235,0.57961 -0.98961,1.189022 -1.50689,1.763718 -0.14326,-1.360458 -0.79154,-2.609368 -1.56528,-3.71502 -0.36473,-0.573045 -0.81534,-1.083754 -1.23144,-1.61799 -0.80765,1.214464 -1.43693,2.578311 -1.63815,4.032829 -0.11757,0.932299 -0.0628,1.93883 0.42272,2.76779 0.37568,0.691706 1.0606,1.195824 1.81901,1.39268 -0.34503,0.492678 -0.70271,0.976474 -1.03353,1.478981 -0.0241,0.0191 -0.0726,0.05731 -0.0971,0.077 -0.0262,-0.298005 -0.0179,-0.600543 -0.0961,-0.890902 -0.22692,-0.959652 -0.80864,-1.789073 -1.46865,-2.503204 -0.90824,-0.950902 -1.97492,-1.74117 -3.10627,-2.405539 -0.75295,-0.454943 -1.52384,-0.885955 -2.33422,-1.2299 -0.18867,1.212284 -0.2626,2.446242 -0.1664,3.671094 0.13944,1.606523 0.5725,3.249369 1.58027,4.538742 0.47736,0.632658 1.13592,1.116372 1.8681,1.414383 0.61298,0.237926 1.27931,0.300106 1.93166,0.237196 -0.84099,1.45342 -1.67552,2.91257 -2.40605,4.425053 -0.72397,1.738297 -1.54682,3.442467 -2.56935,5.026565 -0.36636,0.577982 -0.80035,1.110271 -1.15084,1.698088 -0.24771,0.341204 -0.48486,0.690081 -0.69866,1.053166 -0.15311,0.273952 -0.36048,0.511923 -0.52452,0.778764 -0.27887,0.43253 -0.5892,0.843944 -0.86971,1.275373 -0.36417,0.488302 -0.75059,0.959715 -1.15032,1.419028 -0.55063,0.5479 -1.07585,1.12663 -1.70687,1.58595 -0.7442,0.53423 -1.44677,1.131 -2.06137,1.81178 -0.24224,0.31058 -0.5458,0.57599 -0.73226,0.92759 -0.0404,0.0141 -0.0796,0.0292 -0.11731,0.045 -0.0743,-0.43143 -0.0412,-0.86908 -0.0512,-1.3038 0.008,-0.6928 -0.0225,-1.38784 0.0393,-2.07791 0.012,-0.45931 0.004,-0.91894 0.0269,-1.37717 0.0596,-0.486659 0.016,-0.978432 0.0822,-1.463992 0.007,-0.514001 0.0683,-1.024464 0.0847,-1.537375 0.158,-2.03249 0.36993,-4.062555 0.67179,-6.079731 0.14764,-1.140087 0.34543,-2.274014 0.47284,-3.416845 0.55611,0.211061 1.16363,0.351817 1.75855,0.240811 0.7792,-0.119745 1.45068,-0.611778 1.94665,-1.205611 0.62937,-0.737648 1.05333,-1.62541 1.39836,-2.524911 0.33246,-0.903325 0.59548,-1.835557 0.75241,-2.785359 -0.77974,0.103352 -1.55805,0.233577 -2.31045,0.468704 -1.02692,0.313315 -2.03037,0.758526 -2.87683,1.427822 -0.0224,0.0093 -0.0674,0.02739 -0.0899,0.03669 0.0946,-0.920281 0.15403,-1.849424 0.0594,-2.772441 0.60532,0.03554 1.23649,-0.0484 1.77509,-0.34313 0.45767,-0.247703 0.8269,-0.636728 1.09812,-1.077455 0.45657,-0.743657 0.6606,-1.610754 0.7798,-2.466515 0.16403,-1.257657 0.12718,-2.535057 -0.0434,-3.789434 -1.8154,0.75787 -3.52536,1.93275 -4.60695,3.605983 -0.12084,-0.224182 -0.17991,-0.47375 -0.29146,-0.701768 -0.26794,-0.760063 -0.56308,-1.515615 -0.95239,-2.222085 -0.0815,-0.173339 -0.14595,-0.354295 -0.24495,-0.5178 -0.16952,-0.270118 -0.27319,-0.573868 -0.44597,-0.841809 0.95362,0.03172 1.95905,-0.161083 2.73989,-0.73742 0.64469,-0.459867 1.06897,-1.171442 1.30793,-1.915647 0.36691,-1.16088 0.36075,-2.399535 0.24701,-3.59978 -0.13835,-1.338038 -0.44019,-2.655544 -0.84646,-3.936709 -1.67268,1.079942 -3.18871,2.460299 -4.22765,4.172355 -0.63103,1.049869 -1.07303,2.2645 -0.97513,3.50521 -0.28215,-0.231841 -0.50083,-0.531519 -0.80047,-0.74259 0.30457,-0.300744 0.58173,-0.641019 0.74466,-1.041278 0.25971,-0.614066 0.21458,-1.321586 -0.0135,-1.938385 -0.29691,-0.827318 -0.84245,-1.535877 -1.42316,-2.183845 -0.70429,-0.743114 -1.47081,-1.435909 -2.32493,-2.003496 -0.36691,0.996275 -0.63459,2.037043 -0.69039,3.100586 -0.0126,0.591095 -0.0226,1.189694 0.10593,1.770951 0.16897,0.873252 0.56361,1.764806 1.3193,2.281 0.50634,0.35543 1.14865,0.448294 1.75287,0.377753 0.57579,0.750221 1.08127,1.551239 1.56683,2.361613 0.0924,0.176617 0.19118,0.349753 0.27698,0.530201 -0.27505,-0.07218 -0.51534,-0.231534 -0.786,-0.315743 -0.49049,-0.1974 -0.99382,-0.363723 -1.50946,-0.478007 -1.25273,-0.334648 -2.54344,-0.504587 -3.83336,-0.613399 0.0509,0.485563 0.21507,0.949597 0.3545,1.414383 0.31059,0.926295 0.68189,1.840912 1.21284,2.664954 0.69773,1.173451 1.67652,2.213206 2.9156,2.816882 0.65781,0.309488 1.40253,0.433128 2.12597,0.365868 0.54242,-0.0525 1.04818,-0.26607 1.53375,-0.502293 0.17606,0.842088 0.39286,1.676532 0.51263,2.52956 -0.54188,-0.44292 -1.16367,-0.781504 -1.82366,-1.013891 -1.21065,-0.436909 -2.49555,-0.622793 -3.7729,-0.724503 0.20615,0.894026 0.50148,1.770715 0.93018,2.583822 0.19794,0.342303 0.40968,0.677773 0.63769,1.001488 0.61188,0.810913 1.45598,1.514096 2.47633,1.712039 0.5047,0.112644 1.03331,0.04513 1.51722,-0.127122 -0.0541,0.709216 -0.17017,1.413374 -0.31781,2.108915 -0.26465,1.149942 -0.43562,2.319218 -0.70848,3.466973 -0.50743,-0.195766 -0.98357,-0.460153 -1.47899,-0.681615 0.15311,-0.234579 0.3064,-0.4777 0.3638,-0.756024 0.14984,-0.644682 -0.0592,-1.308847 -0.34468,-1.884642 -0.44182,-0.879267 -1.09873,-1.623176 -1.78387,-2.31872 -0.56759,1.03456 -0.93823,2.206837 -0.87643,3.396692 -0.70811,-0.43307 -1.36422,-0.94373 -2.01383,-1.458826 0.2313,-0.2056 0.44578,-0.446842 0.53278,-0.750859 0.21598,-0.692811 0.0462,-1.430805 -0.17363,-2.100646 -0.14982,-0.479557 -0.39672,-0.919186 -0.62529,-1.363742 -0.67586,0.698277 -1.29407,1.523077 -1.48053,2.49804 -0.0263,-0.0109 -0.0791,-0.03301 -0.10542,-0.04393 -0.15312,-0.21763 -0.3209,-0.423905 -0.49041,-0.627869 -0.26083,-0.404633 -0.54974,-0.793343 -0.74879,-1.233514 0.37347,-0.196305 0.72993,-0.430499 1.0449,-0.712103 0.65015,-0.61024 0.90158,-1.562168 0.75447,-2.427758 -0.10116,-0.582904 -0.30172,-1.147921 -0.57567,-1.671217 -0.44729,-0.926833 -1.06483,-1.758635 -1.70842,-2.556433 -0.69225,-0.813647 -1.4142,-1.606523 -2.21692,-2.313553 -0.53915,0.900599 -0.9255,1.884163 -1.24592,2.880444 -0.32098,1.064093 -0.51277,2.171277 -0.51676,3.284037 0.0295,1.059159 0.2105,2.16906 0.85627,3.040124 0.27067,0.376751 0.67904,0.627681 1.10226,0.800467 0.57963,0.182608 1.22285,0.172589 1.79317,-0.04341 0.12795,0.303479 0.29694,0.587896 0.46044,0.87333 0.54681,0.940512 1.16548,1.840103 1.85829,2.678906 0.21927,0.28325 0.47915,0.532453 0.69349,0.820624 -0.48394,0.127405 -0.93331,0.353322 -1.36529,0.60048 -0.86178,0.515088 -1.63663,1.166987 -2.33216,1.888773 0.62882,0.302932 1.27879,0.569574 1.9601,0.727604 0.96621,0.233469 2.00512,0.310221 2.96313,-0.0031 0.53041,-0.172795 1.02726,-0.51189 1.29139,-1.014408 0.29363,0.127405 0.54212,0.334807 0.82372,0.486275 0.20287,0.129593 0.44711,0.202962 0.61444,0.383956 -0.21708,0.107175 -0.436,0.21395 -0.62684,0.364318 -0.7628,0.588907 -1.32786,1.386454 -1.82108,2.205035 0.64743,0.140888 1.31705,0.206258 1.9787,0.139009 0.65561,-0.07054 1.33043,-0.245467 1.85208,-0.668695 0.29583,-0.233489 0.48431,-0.581382 0.5581,-0.947745 0.29911,0.289261 0.58688,0.640024 0.66508,1.058333 -0.22967,1.647534 -0.34829,3.308914 -0.5178,4.963004 -0.23022,2.520246 -0.45389,5.041023 -0.67644,7.561813 -0.009,0.47353 -0.11017,0.93976 -0.11317,1.41438 -0.0164,0.27723 -0.0799,0.55148 -0.0553,0.83199 -0.26247,0.13725 -0.51561,0.29177 -0.76222,0.45527 -1.25221,0.73928 -2.48763,1.50786 -3.75895,2.21434 -0.76445,0.418311 -1.51363,0.86392 -2.29392,1.2516 -0.30185,0.16022 -0.5891,0.34717 -0.90898,0.47129 -0.45057,0.23349 -0.91367,0.44361 -1.35548,0.6935 -0.7907,0.34941 -1.57596,0.71198 -2.37866,1.03404 -1.19149,0.47627 -2.40566,0.8989 -3.64526,1.233 -1.28884,0.35817 -2.60714,0.59429 -3.92277,0.82941 -2.63726,0.50362 -5.26861,1.03835 -7.89822,1.58078 0.82077,-1.74323 1.618,-3.496629 2.3704,-5.27048 0.005,-0.029 0.0172,-0.0868 0.0222,-0.11575 0.0295,0.007 0.0878,0.0204 0.1168,0.0274 0.34341,0.43963 0.79307,0.81441 1.33222,0.98392 0.7196,0.2472 1.50276,0.15051 2.21743,-0.0682 0.8585,-0.27451 1.65796,-0.7109 2.39779,-1.22163 0.81585,-0.54188 1.57617,-1.17132 2.27117,-1.86139 -1.22703,-0.66656 -2.56126,-1.15399 -3.95015,-1.3317 -1.04112,-0.1285 -2.1469,-0.0926 -3.11092,0.35967 -0.0246,0.008 -0.0741,0.0225 -0.0987,0.0305 0.14546,-0.44292 0.27494,-0.89874 0.29404,-1.36736 1.27898,-1.16853 2.55953,-2.33611 3.82922,-3.51503 0.0186,-0.003 0.0558,-0.011 0.0744,-0.0139 0.053,0.12631 0.10996,0.25174 0.17725,0.37258 0.18264,0.35161 0.52956,0.61195 0.91726,0.69505 0.62555,0.1821 1.28876,0.0805 1.91048,-0.0672 0.50635,-0.11483 1.00152,-0.27762 1.47123,-0.50126 -0.14491,-0.16788 -0.30381,-0.32238 -0.45527,-0.48369 -0.70976,-0.70101 -1.64197,-1.24572 -2.66341,-1.25832 0.009,-0.0224 0.0267,-0.068 0.0357,-0.091 0.50743,-0.4533 1.01175,-0.91096 1.50224,-1.382859 0.0262,-0.0031 0.0781,-0.0099 0.10438,-0.01291 0.40846,0.424329 0.9523,0.722719 1.53738,0.811319 0.57305,0.0891 1.15939,-0.0499 1.68051,-0.28939 0.70702,-0.322065 1.31286,-0.822935 1.87224,-1.354435 0.80053,-0.79779 1.48727,-1.702768 2.09806,-2.652035 -1.58301,-0.421592 -3.27869,-0.561523 -4.88084,-0.160713 -0.82895,0.212709 -1.65055,0.602871 -2.19573,1.283642 -0.39865,0.49158 -0.56259,1.153792 -0.47129,1.777153 -0.68406,0.53095 -1.35283,1.081788 -2.02158,1.632968 -0.38004,0.27231 -0.71484,0.60182 -1.09761,0.8692 -0.004,-1.07392 -0.42288,-2.095541 -0.92759,-3.025652 -0.27231,0.297461 -0.56519,0.577956 -0.79375,0.912607 -0.49596,0.691165 -0.89639,1.514855 -0.85369,2.385385 0.007,0.48063 0.25708,0.96015 0.68523,1.19527 -0.007,0.0323 -0.0125,0.0652 -0.0155,0.10025 -0.37895,0.28872 -0.73592,0.60674 -1.12086,0.8878 -0.3073,-1.86571 -0.64471,-3.72625 -0.95912,-5.590865 -0.0509,-0.24715 -0.11775,-0.491937 -0.11575,-0.746207 0.4008,-0.194109 0.7613,-0.499496 0.93793,-0.917257 0.27993,-0.621729 0.16868,-1.329013 -0.0139,-1.961121 -0.28871,-0.920827 -0.76969,-1.769518 -1.32033,-2.557465 -0.74366,0.903324 -1.35169,1.959869 -1.53324,3.130042 -0.082,0.597111 -0.0464,1.253299 0.30024,1.76785 0.20888,0.330269 0.55713,0.543841 0.92294,0.66249 0.0913,1.02035 0.21295,2.03966 0.22944,3.064923 -0.0864,-0.0454 -0.17181,-0.0911 -0.24391,-0.15451 -0.23513,-0.20888 -0.50395,-0.373 -0.76532,-0.54415 -0.9755,-0.560479 -2.03391,-0.967172 -3.11713,-1.262453 -1.15705,-0.32699 -2.34271,-0.549219 -3.53312,-0.711067 0.22912,1.87009 0.7915,3.71669 1.77302,5.33197 0.5479,0.88857 1.21947,1.72546 2.096,2.3089 0.43964,0.25044 0.89609,0.5121 1.41283,0.5488 0.38987,0.0629 0.7921,0.007 1.16065,-0.13074 0.33355,-0.12358 0.6005,-0.36827 0.90124,-0.55035 -0.0541,0.42651 -0.20685,0.83387 -0.26975,1.26039 -0.28051,1.08869 -0.58678,2.17204 -0.93018,3.2427 -0.13177,-0.23076 -0.2541,-0.4713 -0.44493,-0.6594 -0.56485,-0.61296 -1.33372,-0.98275 -2.09651,-1.28622 -1.2068,-0.44894 -2.47285,-0.7309 -3.74964,-0.88729 0.19521,1.62294 0.72736,3.23733 1.70997,4.55786 0.52822,0.68078 1.20486,1.32919 2.07429,1.51619 0.41393,0.10334 0.83974,-0.003 1.22525,-0.15916 -0.17826,0.38058 -0.40156,0.7388 -0.64544,1.08055 -0.46369,0.64469 -1.05026,1.25927 -1.82728,1.50533 -1.27242,0.4238 -2.62034,0.54735 -3.94963,0.64906 -1.41896,0.087 -2.84328,0.11017 -4.262789,0.0238 -1.17345,-0.0508 -2.34727,-0.16711 -3.50159,-0.38912 -0.5736,-0.12304 -1.15234,-0.25997 -1.68,-0.52297 -0.48611,-0.27833 -0.93534,-0.61538 -1.4056,-0.91829 -0.004,-0.0186 -0.0144,-0.0559 -0.0191,-0.0744 0.96402,0.0607 1.90852,-0.1914 2.81895,-0.47956 -0.29692,-0.36582 -0.59157,-0.73922 -0.96067,-1.03559 -0.30238,-0.28653 -0.66645,-0.4896 -1.0082,-0.72089 0.2149,-0.1657 0.39428,-0.37212 0.54518,-0.59686 0.52002,-0.78741 0.78882,-1.71024 0.97255,-2.62723 -0.50743,0.0695 -1.0114,0.18042 -1.48931,0.36741 -0.7043,0.27506 -1.39043,0.7182 -1.76062,1.39734 -0.21215,0.37839 -0.23953,0.82822 -0.14056,1.24488 -0.2827,0.14326 -0.57864,0.25331 -0.89142,0.30851 -0.27778,0.0459 -0.55182,0.18386 -0.8356,0.14676 -4.03545,-1.11876 -8.07196,-2.23782 -12.12381,-3.29644 -1.12315,-0.27887 -2.23949,-0.5956 -3.38067,-0.79737 -0.0667,-0.0661 -0.13327,-0.13133 -0.19999,-0.19533 -0.12521,-0.31988 -0.006,-0.65804 0.12196,-0.9555 0.22419,-0.49651 0.53762,-0.94641 0.88211,-1.36581 0.5222,-0.6261 1.12307,-1.20693 1.84485,-1.5968 0.36309,-0.23406 0.81019,-0.12281 1.21647,-0.15451 -0.0279,0.35816 -0.11864,0.71714 -0.0563,1.07693 0.0525,0.51729 0.27272,1.01755 0.62322,1.4025 0.63758,0.70374 1.55166,1.07364 2.44843,1.32189 1.34733,0.35002 2.74837,0.45223 4.13617,0.42323 -0.0689,-0.20779 -0.13741,-0.41513 -0.21342,-0.61909 -0.41011,-1.10619 -0.98169,-2.1626 -1.75596,-3.05718 -0.68242,-0.79779 -1.56441,-1.46392 -2.59623,-1.71927 0.21709,-0.12467 0.46662,-0.16793 0.70229,-0.24443 0.68952,-0.21162 1.38146,-0.41436 2.07481,-0.6134 0.13835,0.33355 0.31816,0.67741 0.64078,0.86661 0.46643,0.30677 1.05828,0.2931 1.58595,0.18811 0.90497,-0.19521 1.73963,-0.62919 2.51664,-1.12242 -0.7267,-0.57797 -1.55342,-1.06601 -2.47478,-1.24591 -0.47572,-0.10115 -0.98354,-0.0974 -1.44177,0.077 -0.38386,0.14874 -0.6835,0.47455 -0.82786,0.85732 -1.73885,0.55555 -3.47851,1.11257 -5.25291,1.54564 -0.26848,0.0792 -0.5508,0.0484 -0.82475,0.0227 -0.36199,-0.0383 -0.72683,-0.0133 -1.08882,-0.0537 -0.36144,-0.0399 -0.72748,-0.007 -1.08728,-0.0636 0.0246,-0.0366 0.0502,-0.0725 0.0765,-0.108 2.20528,-0.9602 4.39505,-1.95627 6.5872,-2.94763 0.46151,-0.15256 0.9526,-0.25724 1.35341,-0.550864 0.38549,-0.299109 0.84579,-0.470059 1.28105,-0.680577 0.50142,-0.24279 1.00248,-0.486095 1.50172,-0.733806 0.18592,-0.08802 0.35771,-0.217332 0.56275,-0.259932 0.20724,0.10827 0.37667,0.280654 0.59377,0.374652 0.59492,0.299141 1.3194,0.259816 1.90996,-0.02945 0.65397,-0.302921 1.17537,-0.814694 1.65984,-1.336355 0.57142,-0.654526 1.06305,-1.379103 1.47588,-2.143537 -1.09798,-0.206712 -2.23974,-0.279633 -3.33881,-0.04341 -0.83498,0.17826 -1.69759,0.52302 -2.23346,1.218012 -0.33572,0.427606 -0.43023,0.991563 -0.34985,1.520322 -0.69117,0.34176 -1.36662,0.715987 -2.06654,1.040247 0.59384,-1.083771 0.71765,-2.345018 0.72296,-3.559474 -0.0426,-1.197512 -0.17246,-2.397908 -0.46664,-3.562057 -1.36483,0.752412 -2.61284,1.745872 -3.58014,2.973462 -0.75131,0.976053 -1.33105,2.17198 -1.25832,3.431834 0.0344,0.88583 0.50976,1.717402 1.20147,2.259293 -0.0164,0.0219 -0.0482,0.0649 -0.0646,0.0868 -0.66875,0.26083 -1.31517,0.5795 -1.99212,0.8201 0.2395,-0.39042 0.36712,-0.8486 0.32556,-1.307931 -0.0864,-1.042209 -0.55033,-2.006949 -1.07745,-2.89388 -0.66219,0.732732 -1.239,1.591328 -1.43093,2.575039 -0.11866,0.568142 -0.0511,1.204862 0.3049,1.679482 0.1367,0.19685 0.35405,0.31278 0.52193,0.47956 -0.68406,0.24988 -1.37471,0.48558 -2.07791,0.67696 0.35762,-0.54025 0.37414,-1.21701 0.28009,-1.83709 -0.0973,-0.611337 -0.28611,-1.204255 -0.52452,-1.774575 -0.0148,-0.03828 -0.0447,-0.115713 -0.0599,-0.154514 -0.76773,0.666019 -1.51008,1.457149 -1.75286,2.475309 -0.12741,0.54189 -0.0615,1.20123 0.39945,1.57251 0.003,0.0153 0.01,0.0462 0.0124,0.061 -2.0549,0.21381 -4.12785,0.009 -6.16035,-0.3173 0.15968,-0.35597 0.26713,-0.73408 0.29559,-1.12396 0.0569,-0.79451 -0.0636,-1.59231 -0.26044,-2.36058 -0.647421,0.376208 -1.245607,0.858221 -1.693441,1.46245 -0.341757,0.45987 -0.592262,1.00925 -0.587563,1.59215 -0.643591,-0.14217 -1.284329,-0.29547 -1.920811,-0.46716 -0.207788,-0.0733 -0.475843,-0.0653 -0.609267,-0.26923 -0.63047,-0.77701 -1.36558,-1.461431 -2.140952,-2.091351 -0.201232,0.420489 -0.339612,0.865682 -0.488345,1.305871 -0.202321,-0.0279 -0.383984,-0.12876 -0.571539,-0.20206 -0.571963,-0.238415 -1.13506,-0.501477 -1.657266,-0.836127 0.158031,-0.23731 0.347779,-0.450334 0.526585,-0.671793 1.56551,-1.940621 3.125038,-3.889272 4.560961,-5.92832 0.359254,-0.542436 0.762487,-1.070864 0.983404,-1.689304 0.729432,0.152011 1.464463,0.278744 2.19883,0.406694 -0.142169,0.319884 -0.278577,0.647393 -0.324527,0.997354 -0.121394,0.745295 0.134638,1.510528 0.571542,2.112016 0.633739,0.867232 1.526479,1.503156 2.448949,2.031918 0.92737,0.516739 1.90253,0.950386 2.91248,1.278474 0.005,-0.201768 0.006,-0.403878 0.006,-0.605647 0.0295,-1.402575 -0.19444,-2.829719 -0.78445,-4.110344 -0.17497,-0.396981 -0.42912,-0.749451 -0.66042,-1.113626 1.19369,0.12084 2.38925,0.230489 3.58841,0.2682 -0.17389,0.370181 -0.25835,0.78963 -0.16485,1.193726 0.12631,0.521107 0.48264,0.955074 0.88728,1.29191 0.78904,0.661091 1.74452,1.079651 2.70527,1.425236 0.005,-0.454398 0.02,-0.912167 -0.0522,-1.362191 -0.12085,-0.956919 -0.47405,-1.92945 -1.20458,-2.590538 0.45166,-0.02679 0.89094,-0.147585 1.34152,-0.179835 0.3505,0.386594 0.83014,0.669296 1.35289,0.733806 0.48666,0.07819 0.97915,-0.07061 1.41386,-0.281119 0.46097,-0.240594 0.88054,-0.558613 1.24799,-0.925526 0.7196,-0.673119 1.2942,-1.480706 1.82625,-2.305286 -1.25329,-0.31442 -2.58941,-0.408617 -3.85145,-0.09147 -0.51892,0.130143 -1.02237,0.347374 -1.44177,0.684194 -0.4801,0.373472 -0.79756,0.974344 -0.75706,1.590601 -0.93122,0.08377 -1.86841,0.127495 -2.80345,0.09198 0.216,-0.188103 0.46103,-0.339429 0.67593,-0.529167 0.85411,-0.751321 1.49809,-1.706753 2.0438,-2.696477 0.58728,-1.072838 1.04459,-2.211557 1.42627,-3.371887 -1.43045,-0.01365 -2.87008,0.141253 -4.24367,0.551905 -1.21282,0.36363 -2.39696,0.920655 -3.32434,1.799373 -0.5665,0.558295 -1.01949,1.273611 -1.11518,2.076876 -0.0951,0.5725 0.0694,1.144947 0.2744,1.675349 -1.61745,-0.330821 -3.1812,-0.90112 -4.648292,-1.655712 0.02461,-0.116472 0.07681,-0.22366 0.146246,-0.31936 0.45112,-0.646869 0.994032,-1.227979 1.590596,-1.74253 1.04167,-0.9159 2.23019,-1.650373 3.46542,-2.274279 1.34898,-0.66 2.75869,-1.192011 4.20337,-1.599385 1.18328,-0.329726 2.3746,-0.631089 3.55843,-0.958082 3.76314,-1.01105 7.51371,-2.06973 11.25771,-3.14968 0.1635,-0.03937 0.33859,-0.142578 0.50591,-0.05891 2.23481,0.919183 4.48431,1.801537 6.74481,2.655652 2.11177,0.790681 4.232379,1.561306 6.384619,2.235523 -0.34886,0.388773 -0.73045,0.776049 -0.89503,1.286224 -0.17716,0.453847 -0.17089,0.948298 -0.14522,1.427305 0.0651,0.667644 0.3136,1.298617 0.59739,1.900658 0.25589,0.495956 0.52105,0.988931 0.84749,1.443324 0.59165,0.811463 1.221,1.599898 1.93786,2.305285 0.50142,-0.847556 0.90728,-1.754598 1.18288,-2.701129 0.34996,-1.213358 0.5019,-2.528567 0.15141,-3.759975 -0.0957,-0.368551 -0.27807,-0.70436 -0.44648,-1.042831 0.37347,0.04975 0.74775,0.09709 1.12396,0.117306 0.90551,0.824584 1.80533,1.655929 2.69389,2.498555 0.006,0.0131 0.0188,0.03961 0.0248,0.05271 -0.32754,0.09077 -0.6504,0.223404 -0.91726,0.436666 -0.39314,0.343392 -0.61704,0.841492 -0.71985,1.345655 -0.1176,0.5211 -0.0928,1.059191 -0.0775,1.58905 0.076,0.724525 0.1976,1.447888 0.41031,2.145605 0.70373,-0.414475 1.3246,-0.962978 1.85828,-1.579232 0.56375,-0.682416 1.01072,-1.525749 0.98392,-2.433442 0.3598,0.287615 0.63785,0.659747 0.97358,0.973066 -0.0278,0.285435 -0.0956,0.567529 -0.0791,0.856795 -0.017,0.487204 0.18281,0.973196 0.52348,1.318784 0.31441,0.337918 0.73123,0.557062 1.15445,0.72657 0.63267,0.238955 1.3031,0.360047 1.97404,0.428397 0.65508,0.04974 1.31428,0.09167 1.96991,0.02222 -0.35378,-1.02362 -0.88316,-1.995135 -1.61695,-2.796212 -0.60206,-0.633203 -1.37441,-1.186262 -2.27118,-1.256252 -0.46094,-0.04211 -0.90963,0.121452 -1.29295,0.365868 -0.70647,-1.019788 -1.45366,-2.01664 -2.30012,-2.924886 -0.32699,-0.382768 -0.7342,-0.685028 -1.13119,-0.989603 0.28051,-0.03592 0.56381,-0.02069 0.84542,-0.0016 2.72201,0.261914 5.45745,0.640945 8.1964,0.421679 0.70703,-0.05304 1.40021,-0.206131 2.08153,-0.395324 0.21271,0.723426 0.70235,1.388668 1.38751,1.724959 0.59054,0.280543 1.26657,0.321707 1.90634,0.232026 0.51783,-0.06124 1.02257,-0.204414 1.51361,-0.377753 1.16743,-0.417762 2.25388,-1.031026 3.28352,-1.716175 -0.7874,-0.622816 -1.6486,-1.159717 -2.57762,-1.543574 -1.05863,-0.428691 -2.2249,-0.712647 -3.36827,-0.523999 -0.54299,0.09078 -1.08023,0.304326 -1.48105,0.690914 -0.27175,0.251531 -0.4677,0.57331 -0.59893,0.917255 -0.7196,0.164042 -1.4487,0.313219 -2.18798,0.340548 0.22035,-0.256453 0.49132,-0.467024 0.69091,-0.742074 0.40353,-0.545167 0.69206,-1.166924 0.91571,-1.805057 0.37293,-1.104008 0.59133,-2.259531 0.67283,-3.421496 -1.45287,0.319884 -2.8921,0.843804 -4.08141,1.757516 -0.61079,0.460414 -1.15461,1.032637 -1.49035,1.725991 -0.27011,0.561022 -0.35092,1.229794 -0.14314,1.82418 0.0809,0.242779 0.21936,0.459886 0.33693,0.68626 -1.08979,-0.05686 -2.17114,-0.215198 -3.24889,-0.380338 0.0476,-0.05796 0.0947,-0.118637 0.15916,-0.160195 1.1412,-0.667107 1.85575,-1.849202 2.37195,-3.030307 0.49377,-1.161965 0.84989,-2.382213 1.0697,-3.625101 -1.24016,0.144901 -2.47039,0.426923 -3.62252,0.914672 -0.87271,0.374568 -1.71796,0.854155 -2.40037,1.522905 -0.5736,0.530392 -1.04142,1.209879 -1.18959,1.987992 -0.11211,0.553913 -7.9e-4,1.123656 0.21911,1.637109 -2.11068,-0.557191 -4.19572,-1.207048 -6.27249,-1.876888 -1.14502,-0.370737 -2.27435,-0.789173 -3.411159,-1.182873 -0.63539,-0.259725 -1.27497,-0.508931 -1.91254,-0.764294 -0.97278,-0.405185 -1.92577,-0.856025 -2.85151,-1.35909 -0.43964,-0.267393 -0.90712,-0.511786 -1.2609,-0.894003 1.40091,-0.57798 2.78834,-1.188173 4.19199,-1.759583 0.0279,0.486109 0.0724,0.993199 0.31626,1.426271 0.18045,0.377301 0.42887,0.730464 0.77773,0.969965 0.87052,0.640866 1.988689,0.773108 3.038569,0.810287 1.34351,-0.0098 2.68536,-0.203835 3.97857,-0.566373 -0.70047,-1.148294 -1.59815,-2.192197 -2.69286,-2.980698 -0.66273,-0.483925 -1.42128,-0.823481 -2.21744,-1.015957 0.0995,-0.06398 0.20225,-0.124534 0.31161,-0.172083 0.64469,-0.27669 1.28664,-0.561117 1.92805,-0.844909 0.4544,-0.190839 0.89172,-0.421397 1.35651,-0.586529 -0.0776,0.142714 -0.206,0.27713 -0.18139,0.453202 0.012,0.732182 0.16315,1.476661 0.54209,2.1115 0.43306,0.686247 1.11789,1.188643 1.8774,1.459859 1.2779,0.468056 2.66971,0.504757 4.01268,0.403593 1.27133,-0.09131 2.52941,-0.327893 3.76411,-0.642855 -0.7535,-1.240711 -1.69644,-2.371699 -2.8081,-3.307292 -0.81528,-0.678585 -1.74022,-1.243867 -2.76004,-1.553908 -0.48008,-0.160211 -0.98487,-0.202703 -1.48466,-0.256834 0.1799,-0.154744 0.40442,-0.238718 0.61495,-0.342614 0.58234,-0.279969 1.1614,-0.568153 1.73116,-0.874366 0.15585,-0.08147 0.30312,-0.198379 0.48576,-0.209288 0.41119,0.472448 0.97609,0.831662 1.59835,0.941027 0.60531,0.113732 1.22582,-0.04028 1.77974,-0.285255 0.74639,-0.350507 1.38305,-0.890638 1.97197,-1.459859 0.74859,-0.773737 1.4217,-1.621589 1.9942,-2.534211 -1.51302,-0.396981 -3.11772,-0.567095 -4.65863,-0.224793 -0.83279,0.186455 -1.67168,0.526352 -2.26497,1.160653 -0.45002,0.454946 -0.69511,1.102315 -0.65682,1.740979 -0.48501,0.200684 -0.94325,0.458269 -1.42006,0.676445 -0.51345,0.230211 -1.0121,0.493702 -1.53376,0.706416 0.0394,-0.102253 0.0825,-0.203393 0.13281,-0.301273 0.31496,-0.592193 0.46872,-1.256072 0.55242,-1.917713 0.1684,-1.282814 0.0391,-2.580569 -0.15606,-3.852995 -1.37086,0.662731 -2.65483,1.563629 -3.60081,2.769341 -0.5151,0.67093 -0.93389,1.459198 -0.98909,2.317686 -0.0476,0.574144 0.13645,1.164104 0.50281,1.609204 0.22967,0.277783 0.51507,0.569857 0.9033,0.565859 -0.16732,0.08858 -0.3403,0.164441 -0.51418,0.23771 -1.03893,0.437446 -2.0709,0.896017 -3.12952,1.28261 0.14599,-0.247703 0.3226,-0.47729 0.45165,-0.734838 0.47573,-0.920271 0.66346,-1.957589 0.74931,-2.981214 0.0924,-1.462712 -0.01,-2.932999 -0.26562,-4.374928 -1.813759,0.873806 -3.517179,2.075802 -4.728909,3.703651 -0.62172,0.849736 -1.10722,1.845569 -1.14825,2.914034 -0.0159,0.598749 0.14118,1.209727 0.47801,1.708422 0.22802,0.349957 0.54026,0.635995 0.87436,0.88315 0.10062,0.02246 0.1975,0.04707 0.29921,0.07493 -0.21817,0.143811 -0.47975,0.188865 -0.72089,0.278535 -1.19532,0.406278 -2.41347,0.740743 -3.64215,1.028361 -2.64437,0.512908 -5.28224,1.061485 -7.89926,1.700154 -1.09854,0.253714 -2.18279,0.561819 -3.27422,0.842325 0.40354,-0.824585 0.95319,-1.564793 1.47485,-2.316655 0.43415,-0.515637 0.8289,-1.067366 1.30844,-1.542539 0.10335,0.254265 0.2252,0.510201 0.42479,0.704866 0.32644,0.322072 0.77897,0.481092 1.22679,0.537951 0.66875,0.06726 1.34407,-0.01389 1.99368,-0.174665 0.50579,-0.147643 1.02214,-0.266337 1.50223,-0.488344 -0.42213,-0.560477 -0.96377,-1.015272 -1.53737,-1.413349 -0.63649,-0.409556 -1.37634,-0.700524 -2.14405,-0.667143 0.44454,-0.467519 0.95899,-0.860696 1.44073,-1.288293 0.0164,-0.0044 0.0497,-0.01339 0.0662,-0.0181 0.24825,0.529852 0.66539,1.036392 1.25212,1.191141 0.64686,0.183177 1.32358,-0.01606 1.92288,-0.269232 0.92411,-0.407922 1.73761,-1.024109 2.49494,-1.684652 -0.54244,-0.305666 -1.10554,-0.580379 -1.70429,-0.758095 -0.45495,-0.154196 -0.93267,-0.202737 -1.40457,-0.274918 0.25919,-0.232394 0.57964,-0.378203 0.87437,-0.558104 0.41339,-0.224732 0.81632,-0.47171 1.25212,-0.652158 0.36308,0.283247 0.80559,0.473123 1.26711,0.505911 0.48611,0.0339 0.97036,-0.125771 1.37717,-0.385506 0.52876,-0.33629 0.96079,-0.803068 1.3348,-1.301212 0.56486,-0.742022 0.97991,-1.580531 1.37305,-2.422073 -0.50087,-0.07654 -1.00944,-0.05084 -1.51361,-0.04754 -1.10674,0.07436 -2.24477,0.32008 -3.16725,0.965316 -0.45767,0.310584 -0.83764,0.763916 -0.97926,1.306897 -0.075,0.263018 -0.0388,0.53815 -0.0455,0.807186 -0.48994,0.182084 -0.91905,0.491563 -1.38493,0.724503 -0.46861,0.283247 -0.96078,0.526163 -1.41955,0.825272 -0.94543,0.575791 -1.91558,1.125135 -2.75383,1.856219 -0.28433,-0.94161 -0.3855,-1.930488 -0.34779,-2.911452 0.26903,0.155843 0.54463,0.315836 0.85577,0.371036 0.4194,0.102256 0.85865,0.01892 1.25728,-0.12764 0.50962,-0.200134 0.95549,-0.53345 1.35082,-0.90692 0.80107,-0.740926 1.42107,-1.651482 1.97663,-2.584339 -1.52287,-0.339561 -3.17211,-0.338735 -4.61678,0.305408 0.11866,-0.319338 0.36731,-0.56144 0.5669,-0.829922 0.38713,-0.485569 0.78784,-0.960303 1.19631,-1.427823 0.0492,-0.07163 0.17273,-0.139634 0.21755,-0.02479 0.27778,0.447834 0.82721,0.650216 1.33739,0.591695 0.952,-0.07983 1.8026,-0.579485 2.57142,-1.112075 -0.24388,-0.182637 -0.50501,-0.338543 -0.77515,-0.478526 -0.55883,-0.324805 -1.19971,-0.493185 -1.8433,-0.517798 0.12686,-0.140524 0.26675,-0.268406 0.40618,-0.396358 0.37293,0.01421 0.75696,0.0498 1.11621,-0.07596 0.59656,-0.188102 1.05438,-0.660061 1.37098,-1.183906 0.062,-0.102523 0.11754,-0.208948 0.1726,-0.315227 z m 75.793809,0 h 14.60273 c -0.14271,0.224862 -0.27685,0.455242 -0.3979,0.693497 -0.49924,0.937223 -0.84008,1.9778 -0.85008,3.04736 0.0241,0.529306 0.12664,1.069935 0.40824,1.526521 0.28544,0.465884 0.74327,0.811982 1.25781,0.988055 0.0301,0.0093 0.0893,0.02739 0.11885,0.03669 0.23567,1.590117 0.44008,3.184906 0.62271,4.782138 0.013,0.152556 0.0697,0.315441 -0.004,0.461986 -0.12466,0.292545 -0.25614,0.581919 -0.36277,0.882118 l -0.0667,0.0011 c -0.1974,-1.272421 -0.75307,-2.456895 -1.4087,-3.553788 -0.61407,-1.021985 -1.33718,-1.974411 -2.12184,-2.870626 -1.07558,1.754703 -1.90782,3.716906 -2.05,5.78931 -0.0629,1.164149 0.11999,2.398364 0.7953,3.375507 0.47572,0.714674 1.24488,1.203672 2.07274,1.408181 0.17007,0.0377 0.36453,0.1118 0.5302,0.01447 0.24553,-0.121394 0.46546,-0.290015 0.71262,-0.410311 -0.27012,0.775918 -0.6062,1.526839 -0.8785,2.30167 -0.0246,-0.01805 -0.0741,-0.05329 -0.0987,-0.07132 -0.24442,-0.707027 -0.80777,-1.231126 -1.34256,-1.725991 -0.82348,-0.677494 -1.74885,-1.232299 -2.72489,-1.658813 -0.0126,-0.01151 -0.0375,-0.03353 -0.0501,-0.04444 -0.12249,1.070105 -0.11678,2.167385 0.13694,3.219442 0.23184,0.959107 0.65761,1.942359 1.48002,2.537828 0.44947,0.333036 1.03299,0.428376 1.57871,0.344165 -0.58344,1.529426 -1.15848,3.062269 -1.75286,4.587316 -1.32709,0.839888 -2.6263,1.723777 -3.94137,2.582273 -1.71643,1.147196 -3.42797,2.301388 -5.13457,3.463353 -0.94488,0.646327 -1.87513,1.318049 -2.87579,1.876888 -0.95144,0.526029 -1.93194,1.006401 -2.96158,1.359091 -1.39437,0.472993 -2.88103,0.776581 -4.35632,0.599964 -0.56375,-0.0021 -1.12299,-0.07623 -1.6862,-0.07493 -0.37893,-0.03777 -0.75895,-0.04853 -1.13843,-0.05323 -0.43581,-0.0607 -0.87674,-0.03467 -1.3131,-0.08062 -0.39643,-0.03558 -0.79586,-0.0067 -1.19011,-0.06356 -0.58399,-0.01093 -1.16525,-0.07221 -1.74925,-0.07751 -0.36472,-0.0383 -0.73027,-0.04646 -1.09554,-0.05116 -0.53095,-0.06452 -1.06737,-0.03979 -1.59887,-0.09612 -0.47135,5.29e-4 -0.93996,-0.0528 -1.41076,-0.06149 0,-0.02735 7e-5,-0.08172 0.002,-0.108519 0.34286,-0.549545 0.61146,-1.141786 0.90072,-1.72031 0.41284,-0.866143 0.7726,-1.757738 1.0542,-2.67529 0.0159,-0.07765 0.0285,-0.156485 0.046,-0.233576 1.12807,-0.358707 2.25549,-0.721517 3.36878,-1.123961 0.0432,0.316053 0.0748,0.646406 0.25632,0.920356 0.23348,0.44346 0.65983,0.733824 1.09399,0.959114 1.16962,0.53915 2.48083,0.657458 3.75326,0.661459 -0.0514,-0.139436 -0.10122,-0.278797 -0.15762,-0.414962 -0.20286,-0.620083 -0.50995,-1.20227 -0.8878,-1.733227 -0.34613,-0.522748 -0.81118,-0.960631 -1.34979,-1.28106 0.004,-0.03007 0.012,-0.09026 0.016,-0.120923 1.0187,-0.394245 2.02246,-0.833432 2.97501,-1.371491 0.0366,0.447834 0.0691,0.904793 0.23151,1.329118 0.24168,0.745295 0.75528,1.395794 1.42731,1.799889 0.65944,0.365819 1.38622,0.613559 2.13372,0.714169 0.76168,0.12464 1.53546,0.105844 2.30373,0.08888 1.38507,-0.08585 2.76295,-0.308078 4.10208,-0.673346 -0.43416,-0.721791 -0.94316,-1.396645 -1.49707,-2.029849 -0.85029,-0.947076 -1.82869,-1.800148 -2.96932,-2.378665 -0.21109,-0.109357 -0.44389,-0.176376 -0.63254,-0.324011 0.72835,0.04538 1.46859,0.04783 2.18488,-0.117306 0.24115,0.265742 0.52862,0.492707 0.84905,0.657842 0.62556,0.335737 1.38234,0.342833 2.05001,0.131773 1.0209,-0.323707 1.87561,-1.007026 2.651,-1.724443 0.67694,-0.646877 1.27285,-1.373341 1.83607,-2.120284 -1.59942,-0.52329 -3.32899,-0.785955 -4.99401,-0.438732 0.16733,-0.485563 0.35124,-0.966316 0.47645,-1.465543 0.36583,-1.405853 0.54975,-2.857579 0.59015,-4.308266 -1.39438,0.358709 -2.73269,0.93495 -3.9548,1.694471 -1.14665,0.728888 -2.18815,1.686296 -2.81533,2.907316 -0.40247,0.851924 -0.59031,1.855742 -0.27699,2.767274 0.10608,0.365263 0.3077,0.688544 0.48213,1.023192 -0.10829,-0.0055 -0.21538,-0.0074 -0.32091,-0.0155 -0.76171,-0.09843 -1.53638,0.05315 -2.2505,0.317809 -0.39044,0.135059 -0.73617,0.365499 -1.1069,0.54157 0.16568,-0.544071 0.25583,-1.110284 0.27233,-1.678969 0.0552,-0.459856 -0.01,-0.919405 -0.0248,-1.378725 -0.10388,-1.052603 -0.28727,-2.101393 -0.59842,-3.11299 -0.0137,0.01582 -0.0416,0.04773 -0.0558,0.06356 -0.64688,0.395888 -1.26556,0.841901 -1.82987,1.348237 -1.06901,0.958003 -2.025,2.120794 -2.45204,3.512963 -0.26248,0.842634 -0.25549,1.825855 0.25578,2.57607 0.17771,0.29254 0.45231,0.499743 0.69454,0.734322 -0.41065,0.131231 -0.8188,0.271202 -1.22835,0.404628 -1.02035,0.281059 -2.05052,0.584502 -3.11351,0.630451 -0.25318,-0.0055 -0.19155,-0.303387 -0.18655,-0.471805 0.39426,-1.190402 1.07594,-2.254601 1.72444,-3.318144 1.41187,-2.238635 2.96024,-4.388115 4.55528,-6.499344 0.75406,-1.018154 1.55943,-1.996811 2.34301,-2.993099 0.28599,0.352689 0.65297,0.630973 1.03301,0.875397 0.68898,0.435265 1.52997,0.655821 2.34198,0.532785 0.77536,-0.101702 1.49587,-0.45702 2.12907,-0.904854 1.08978,-0.773731 1.96851,-1.801127 2.74608,-2.878894 0.57962,-0.797786 1.07804,-1.649247 1.5565,-2.509925 -1.71479,-0.342302 -3.49156,-0.372986 -5.21674,-0.09302 0.10391,-0.132326 0.21477,-0.277759 0.37827,-0.338479 0.23458,-0.02296 0.46503,0.05631 0.70125,0.04651 0.58071,-0.02953 1.1758,-0.195866 1.62419,-0.581361 0.54462,-0.421042 0.92615,-1.02038 1.17771,-1.65468 0.48498,-1.235239 0.58469,-2.58966 0.50539,-3.903637 -0.0778,-1.196933 -0.30918,-2.380076 -0.65887,-3.526917 z m 16.85221,0 h 5.70766 c -0.76065,0.367401 -1.46647,0.870291 -1.97972,1.547194 -0.32045,0.44619 -0.55158,0.982665 -0.52038,1.541507 -0.0224,0.376751 0.11272,0.733565 0.25269,1.07642 -1.15648,1.53489 -2.09756,3.216654 -3.19773,4.790922 -0.17771,0.223641 -0.339,0.50234 -0.63046,0.586009 -0.2384,-1.1215 -0.59347,-2.214205 -0.89968,-3.31711 0.60203,-0.199041 1.19205,-0.52687 1.55132,-1.067117 0.39643,-0.57032 0.51392,-1.28184 0.50592,-1.963703 -0.0589,-1.108509 -0.36427,-2.17441 -0.78962,-3.194122 z m 8.25478,2.702161 v 8.455297 c -0.92113,-0.425577 -1.88184,-0.766239 -2.87476,-0.977201 -1.38507,-0.291992 -2.86033,-0.343411 -4.21369,0.122472 -0.38878,0.122484 -0.73831,0.333492 -1.09813,0.518317 0.53041,-1.195877 1.18765,-2.332152 1.86242,-3.451469 0.0236,-0.0024 0.0701,-0.0065 0.093,-0.0078 0.1553,0.405731 0.41089,0.791427 0.7953,1.012341 0.57633,0.34449 1.28439,0.349996 1.92908,0.243914 1.10073,-0.192474 2.13316,-0.655942 3.10265,-1.198377 -0.5326,-0.508532 -1.12862,-0.957356 -1.78697,-1.29036 -0.91591,-0.478459 -2.02205,-0.716034 -3.01997,-0.352952 0.15638,-0.300744 0.38727,-0.552598 0.59015,-0.822171 0.10389,-0.129593 0.19702,-0.272071 0.32608,-0.380339 0.2138,0.04374 0.40681,0.154382 0.62115,0.204121 0.64196,0.183735 1.351,0.09253 1.93114,-0.237194 0.75144,-0.422836 1.29495,-1.115793 1.74253,-1.838647 z m 0,9.540501 v 3.831291 c -0.33815,0.383448 -0.53788,0.879253 -0.56895,1.388547 -1.01597,0.425955 -1.97155,0.98194 -2.96674,1.450557 0.48776,-1.381776 0.52735,-2.880225 0.36277,-4.323249 0.48612,-0.232395 0.92037,-0.556782 1.36219,-0.862997 0.62984,-0.460822 1.2358,-0.955781 1.81073,-1.484149 z m -9.5529,1.829864 c 0.45111,0.684059 1.11236,1.251514 1.90686,1.488281 0.79671,0.244428 1.65709,0.158718 2.4505,-0.05891 -0.0317,0.05687 -0.0621,0.114081 -0.0889,0.172601 -0.0212,0.005 -0.0649,0.01389 -0.0868,0.0186 -0.73327,0.611884 -1.39371,1.358432 -1.7322,2.263945 -0.21755,0.571963 -0.25558,1.239189 0.032,1.794206 0.13396,0.302379 0.3841,0.52446 0.60721,0.760677 -0.9542,0.488302 -1.88099,1.0286 -2.82205,1.541507 -0.0705,0.03169 -0.13944,0.06154 -0.20774,0.0894 0.14491,-0.240046 0.36782,-0.416835 0.53898,-0.636653 0.55228,-0.685699 1.00057,-1.450763 1.37511,-2.246374 -1.14446,-0.147638 -2.34809,-0.143587 -3.43131,0.29714 -0.29801,0.113739 -0.56211,0.29423 -0.83716,0.450617 0.26466,-0.959651 0.62776,-1.889111 0.96842,-2.823599 0.38495,-1.034568 0.81591,-2.050978 1.22163,-3.077331 0.0263,-0.0088 0.0792,-0.02604 0.10542,-0.03411 z M 60.703465,42.464296 c -0.05796,0.289812 -0.07824,0.593551 -0.21549,0.860931 -0.205052,0.417216 -0.315137,0.875794 -0.345199,1.338937 -0.03935,0.496501 0.120798,0.989261 0.02894,1.484664 -0.09845,1.14119 -0.132284,2.29417 -0.02894,3.436998 0.100065,1.26914 0.386741,2.537196 0.966351,3.677296 -0.710295,1.421699 -1.50169,2.803771 -2.357996,4.142899 -0.77099,1.187675 -1.601536,2.350365 -2.625164,3.335713 -0.813099,0.881457 -1.678572,1.713838 -2.522842,2.565217 -1.017058,0.958551 -2.022692,1.934322 -3.131076,2.788982 -0.375116,0.28324 -0.754203,0.56641 -1.173054,0.78186 -2.122173,0.98808 -4.194165,2.08147 -6.233213,3.22978 -0.998469,0.57305 -2.002531,1.1455 -2.913518,1.85363 -0.07382,-0.52276 -0.219228,-1.03247 -0.320391,-1.55029 -0.203957,-0.92411 -0.397592,-1.85101 -0.610299,-2.77348 -0.0241,-0.10663 -0.03717,-0.22023 0.0088,-0.32194 0.220364,-0.58454 0.449773,-1.16596 0.65319,-1.75596 0.283247,0.2827 0.63363,0.51454 1.03663,0.57464 0.69116,0.13125 1.395468,-0.0643 2.040702,-0.30541 0.744757,-0.29255 1.445691,-0.69088 2.09858,-1.15238 -0.795052,-0.600407 -1.70189,-1.080406 -2.68614,-1.271245 -0.567042,-0.11318 -1.164715,-0.09774 -1.711524,0.101286 0.154753,-0.371279 0.297344,-0.748009 0.425297,-1.129131 0.300744,0.181541 0.603065,0.36786 0.941543,0.472839 0.999022,0.329732 2.07372,0.318133 3.109373,0.208772 0.975506,-0.110998 1.942735,-0.308342 2.87941,-0.603062 -1.002294,-1.451241 -2.300808,-2.782562 -3.971851,-3.43545 0.130138,-0.164042 0.334767,-0.227039 0.515213,-0.31781 0.600945,-0.290901 1.205936,-0.573077 1.801958,-0.874365 0.283247,-0.134514 0.55839,-0.289245 0.854213,-0.395325 -0.04043,0.258095 -0.119288,0.52204 -0.05478,0.783416 0.08476,0.527126 0.497946,0.921996 0.925007,1.20251 0.777015,0.476266 1.670158,0.736203 2.564186,0.880568 -0.08148,-0.859582 -0.343223,-1.722776 -0.849562,-2.430345 -0.349411,-0.489943 -0.876829,-0.889078 -1.490347,-0.950329 0.0028,-0.01696 0.0076,-0.05125 0.01035,-0.06821 1.066276,-0.534234 2.121196,-1.090957 3.167248,-1.663465 0.382217,-0.191386 0.73506,-0.441703 1.126029,-0.613399 0.143807,0.162952 0.265544,0.347903 0.43615,0.486794 0.40464,0.345019 0.966354,0.44066 1.48363,0.39584 0.87326,-0.0853 1.689248,-0.446934 2.452047,-0.861962 0.345035,-0.193024 0.680421,-0.40286 1.003038,-0.632521 -0.775925,-0.574694 -1.646571,-1.040932 -2.593639,-1.254186 0.12029,-0.139435 0.25926,-0.265718 0.35605,-0.423746 0.07161,-0.203414 0.07254,-0.421907 0.08837,-0.634071 -0.734362,0.331914 -1.459251,0.687922 -2.204,0.996323 0.114284,-0.313328 0.295656,-0.594535 0.444934,-0.890903 0.573598,-1.101267 1.162962,-2.194538 1.713589,-3.307291 0.247158,0.153654 0.51411,0.315357 0.816489,0.303858 0.539702,0.04101 1.02761,-0.257228 1.426787,-0.588595 0.521099,-0.460957 0.976024,-1.000482 1.326533,-1.60197 -0.850289,-0.210029 -1.757696,-0.262914 -2.600875,0.0078 0.114284,-0.253169 0.247835,-0.497816 0.345715,-0.758094 0.530955,-0.237313 1.008213,-0.654775 1.196311,-1.218531 0.17771,-0.457137 0.163851,-0.955405 0.13539,-1.436603 0.479552,0.118661 0.986216,0.02713 1.433504,-0.165883 0.30457,-0.125764 0.558792,-0.340738 0.828374,-0.52555 z m 132.574325,1.294495 c 0.0505,-0.0079 0.10245,-0.0081 0.15658,0.0026 0.004,0.03008 0.0125,0.09034 0.0165,0.120407 0.0879,0.09084 0.18262,0.176421 0.27905,0.259932 v 0.831991 c -0.42953,-0.355047 -0.92881,-0.618466 -1.48931,-0.698148 0.18537,-0.142178 0.40141,-0.233617 0.6103,-0.336416 0.1382,-0.0648 0.27549,-0.156611 0.42684,-0.180351 z m -2.72231,1.331704 c -0.0399,0.418851 -0.0461,0.864126 0.15348,1.247984 0.28926,0.591653 0.88151,0.958691 1.47588,1.192176 0.49929,0.189116 1.01856,0.308493 1.54512,0.388606 v 9.199957 c -0.44892,0.02072 -0.89648,0.07254 -1.33842,0.170531 -0.85081,0.192477 -1.71343,0.537253 -2.3089,1.198894 -0.42489,0.434713 -0.62597,1.047596 -0.63097,1.647444 -0.26794,0.06288 -0.52744,0.152691 -0.79427,0.213939 -0.66055,0.161856 -1.34791,0.171154 -2.02158,0.122473 -0.33902,-0.07326 -0.69401,-7.94e-4 -1.02319,-0.119888 -1.42498,-0.416118 -2.87047,-0.861319 -4.1336,-1.662948 -0.47299,-0.308944 -0.92738,-0.700866 -1.14773,-1.234549 -0.007,-0.153109 -0.009,-0.305848 -0.007,-0.457853 0.75569,-0.104987 1.49351,-0.301255 2.22622,-0.508498 0.47354,-0.121385 0.93057,-0.308295 1.41231,-0.396875 0.12195,0.505799 0.39072,1.00769 0.8506,1.280544 0.5911,0.369099 1.32904,0.379423 1.99833,0.273883 1.0723,-0.168963 2.08629,-0.592722 3.04374,-1.091406 -0.67039,-0.662736 -1.4353,-1.252741 -2.3151,-1.608169 -0.004,-0.01805 -0.0115,-0.05381 -0.0165,-0.07183 0.21545,-0.07164 0.42553,-0.162261 0.64699,-0.218591 0.34941,0.09461 0.70578,0.220234 1.07487,0.172083 0.66056,-0.04101 1.25617,-0.414759 1.69964,-0.888834 0.36854,-0.348321 0.66252,-0.764331 0.925,-1.196311 0.49869,-0.845365 0.90022,-1.753229 1.17254,-2.696474 -0.27668,0.0159 -0.55606,-0.0085 -0.82837,0.04392 -0.95363,0.05796 -1.90178,0.274717 -2.77503,0.664044 -0.81584,0.37675 -1.62592,0.930785 -1.98954,1.784903 -0.20336,0.448931 -0.18741,0.959408 -0.0496,1.424201 -0.45932,0.222552 -0.91406,0.455721 -1.39578,0.626319 -0.18373,0.05796 -0.37952,0.04435 -0.56379,0.0925 -0.24715,0.05031 -0.47911,0.153715 -0.69401,0.28112 -0.2034,0.123582 -0.43922,0.168952 -0.6656,0.226343 -0.44894,0.109908 -0.89684,0.22442 -1.35288,0.297141 0.20943,-0.256456 0.43903,-0.497883 0.62166,-0.775664 0.38987,-0.573598 0.68088,-1.208645 0.91984,-1.858801 0.35815,-1.002852 0.6053,-2.045819 0.75241,-3.10007 -0.70484,0.10663 -1.39703,0.290516 -2.07016,0.524 -1.0351,0.366913 -2.03144,0.889328 -2.83962,1.642276 -0.67094,0.634302 -1.21235,1.478262 -1.25935,2.422592 -0.0372,0.57087 0.15323,1.126656 0.42116,1.623155 -1.62183,0.146579 -3.25295,0.19146 -4.88135,0.148828 0.007,-0.02135 0.0204,-0.06495 0.0274,-0.0863 2.46009,-1.835092 4.86039,-3.748289 7.27345,-5.644616 0.89076,-0.676404 1.82431,-1.294945 2.77193,-1.888773 1.97672,-1.225949 4.01606,-2.350264 6.08955,-3.403409 z m -9.34361,2.888194 c 0.23512,0.151466 0.47335,0.306866 0.7462,0.383955 0.29309,0.09623 0.60657,0.06373 0.91002,0.05116 -0.58891,0.385498 -1.21864,0.705184 -1.82779,1.056783 -0.0164,-0.503063 0.0633,-1.002501 0.17157,-1.491898 z m -4.0008,9.334315 c 0.42195,-0.01122 0.84782,0.03367 1.23456,0.210838 0.39589,0.192479 0.75924,0.469371 1.00149,0.842844 0.2887,0.429791 0.66311,0.794644 1.07487,1.107426 -0.34067,0.331362 -0.64317,0.713695 -0.80667,1.16427 -0.20349,0.53752 -0.17687,1.137022 -0.005,1.680002 0.26956,0.855739 0.82003,1.588469 1.41386,2.247919 0.70374,0.76171 1.50731,1.426151 2.35541,2.02107 0.23951,-0.69499 0.43334,-1.4084 0.53124,-2.13786 0.18209,-1.2243 0.0908,-2.517234 -0.45165,-3.644216 0.40245,0.06507 0.80768,0.112676 1.21232,0.168466 -0.12131,0.493768 -0.1518,1.03987 0.0811,1.5074 0.27066,0.565391 0.8243,0.929746 1.38751,1.163238 1.11166,0.447288 2.32634,0.549021 3.514,0.564822 -0.35105,-1.131901 -0.90834,-2.24494 -1.81385,-3.032889 -0.0109,-0.02077 -0.0334,-0.06141 -0.045,-0.08217 0.66327,-0.0021 1.32792,0.0055 1.98902,-0.05684 0.28652,0.265204 0.61585,0.492326 0.98496,0.626835 0.60804,0.232899 1.29901,0.193815 1.90324,-0.03256 0.34086,-0.126892 0.65567,-0.304335 0.95756,-0.502813 v 34.855242 c -48.61247,2.01377 -97.225119,3.57179 -145.837601,12.916532 -1.527019,-4.87366 -3.04011,-9.752862 -4.626591,-14.606862 -0.716862,-2.19324 -1.443339,-4.38306 -2.158008,-6.57686 -0.439089,-1.22376 -0.708816,-2.50511 -0.843875,-3.79667 -0.139441,-1.31289 -0.137089,-2.662115 0.204121,-3.946015 0.160213,-0.52002 0.378383,-1.03277 0.733806,-1.45108 0.247165,-0.30568 0.585139,-0.52031 0.930177,-0.70021 1.532702,-0.76936 3.172039,-1.29669 4.805907,-1.80247 2.463919,-0.73819 4.969687,-1.3329 7.500318,-1.79059 2.794191,-0.48775 5.621409,-0.85146 8.460981,-0.846459 2.305891,-0.0344 4.640576,0.15822 6.850226,0.85266 0.20232,0.0722 0.40494,0.143619 0.60617,0.21962 0.93394,0.347219 1.77042,0.90205 2.58899,1.4609 0.80271,0.56648 1.55724,1.196879 2.28668,1.85415 0.002,0.0202 0.007,0.0604 0.008,0.0801 -0.40409,0.12029 -0.75795,0.40807 -0.92966,0.79684 -0.23403,0.52111 -0.2115,1.1163 -0.12402,1.66967 0.10718,0.65945 0.33181,1.29337 0.59428,1.90634 0.23348,-0.1963 0.46278,-0.39875 0.66455,-0.62787 0.60696,-0.67529 1.12897,-1.51687 1.12087,-2.45411 0.35159,0.32261 0.63276,0.71207 0.95756,1.0604 0.001,0.0182 0.003,0.0534 0.004,0.0708 -0.23294,0.20835 -0.40109,0.47418 -0.52193,0.76016 -0.26466,0.7896 5.3e-4,1.636104 0.41444,2.322344 0.57634,0.97387 1.38977,1.78182 2.24224,2.51509 0.0334,0.0191 0.10289,0.10741 0.13075,0.0341 0.26082,-0.55939 0.45618,-1.14876 0.59014,-1.7508 0.20724,-0.94761 0.24865,-1.963404 -0.0729,-2.890784 -0.21763,-0.625 -0.6927,-1.204661 -1.34669,-1.391131 -0.33027,-0.0907 -0.70385,-0.14717 -1.02319,0.0109 -0.73818,-0.92245 -1.50871,-1.81827 -2.26549,-2.72542 1.14337,-0.0673 2.17325,-0.65759 3.09025,-1.301731 -0.17444,-0.1203 -0.35372,-0.23392 -0.50902,-0.37827 0.0891,-0.003 0.17902,-0.005 0.26924,0.007 1.34241,0.225269 2.67882,0.49042 4.00647,0.791169 2.19434,0.53531 4.40049,1.13204 6.41821,2.16989 0.57088,0.28652 1.08375,0.668 1.62729,1.00046 1.16196,0.78193 2.23372,1.68944 3.25407,2.64635 0.004,0.0323 0.0124,0.0969 0.017,0.1297 -0.31552,0.13124 -0.59137,0.363507 -0.74776,0.670257 -0.2439,0.47027 -0.24635,1.02025 -0.19275,1.53479 0.0951,0.73326 0.33499,1.43866 0.62425,2.11615 0.21545,-0.17935 0.429,-0.36261 0.61546,-0.57258 0.60039,-0.65344 1.12128,-1.45738 1.16996,-2.36781 0.0158,0.007 0.0467,0.0199 0.062,0.0269 0.42323,0.45495 0.8489,0.90951 1.25574,1.37976 0.29199,0.31441 0.54775,0.66116 0.84904,0.96739 0.009,0.0333 0.0264,0.10044 0.0351,0.13383 -0.0454,0.0306 -0.0901,0.0623 -0.13384,0.0946 -0.26356,0.48119 -0.46214,1.03876 -0.35605,1.59267 0.0678,0.44948 0.31969,0.85356 0.64286,1.16634 0.31715,0.33246 0.70901,0.58402 1.11311,0.79892 0.96511,0.51016 2.027249,0.79946 3.090249,1.02474 -0.0416,-0.81802 -0.22982,-1.6267 -0.524,-2.39003 -0.32919,-0.8481 -0.8451,-1.64813 -1.594219,-2.18127 -0.41558,-0.29473 -0.92683,-0.41203 -1.42989,-0.41703 -0.004,-0.0257 -0.0144,-0.0776 -0.0191,-0.10335 -0.15857,-0.17552 -0.30716,-0.3607 -0.47284,-0.52968 0.93942,-0.058 1.84184,-0.38678 2.677359,-0.80564 0.12631,-0.0476 -0.0277,-0.14969 -0.0687,-0.19999 -0.733259,-0.6857 -1.640469,-1.26133 -2.660819,-1.35754 -0.57798,-0.0563 -1.17875,0.14675 -1.56424,0.58912 -0.31716,-0.31551 -0.5967,-0.66617 -0.91933,-0.97565 -0.27504,-0.295847 -0.5866,-0.558337 -0.83923,-0.873857 2.07132,0.1952 4.14601,0.35206 6.224429,0.43356 0.60259,-0.011 1.20196,0.0652 1.80454,0.0455 0.70866,-0.012 1.41949,0.0299 2.12597,-0.0346 1.39709,-0.008 2.77674,-0.24701 4.15634,-0.44441 2.33978,-0.35324 4.67533,-0.73707 7.00474,-1.15756 2.38081,-0.43854 4.75948,-0.89739 7.10912,-1.48466 0.99902,-0.26411 2.00578,-0.52265 2.96106,-0.92346 0.20013,-0.0793 0.38192,-0.22462 0.6072,-0.21962 0.66273,0.28051 1.36433,0.45731 2.04949,0.67386 1.87446,0.55064 3.77622,1.01019 5.70043,1.3503 2.03959,0.3516 4.10652,0.59569 6.17946,0.56069 0.87873,0.017 1.75402,-0.076 2.62672,-0.17105 0.44347,0.4369 0.95868,0.79206 1.46502,1.15187 1.07065,0.73326 2.20819,1.372357 3.40186,1.883617 -0.19905,0.33519 -0.36828,0.70361 -0.36328,1.10277 0.007,0.76826 0.42329,1.45689 0.89245,2.0376 0.59603,0.70375 1.29481,1.31715 2.05104,1.84537 0.4522,-1.285 0.66827,-2.72817 0.20567,-4.04161 0.96894,0.25099 1.96472,0.3825 2.96209,0.4563 -0.075,0.36745 -0.17654,0.73723 -0.14314,1.11673 0.0399,0.62937 0.38009,1.22423 0.88315,1.5999 0.38441,0.30456 0.83157,0.51583 1.29088,0.68316 1.23853,0.43581 2.56129,0.54259 3.86488,0.57929 -0.20615,-0.80163 -0.54404,-1.56923 -0.96945,-2.27789 -0.42651,-0.68078 -0.92876,-1.34257 -1.60352,-1.79369 -0.0234,-0.0377 -0.0449,-0.074 -0.0646,-0.11007 0.70702,-0.10116 1.38811,-0.32618 2.08256,-0.48421 0.48885,0.6529 1.21989,1.15962 2.04174,1.26297 0.67257,0.099 1.3506,-0.10235 1.95647,-0.38395 0.90496,-0.44784 1.69173,-1.10179 2.39055,-1.82522 0.67368,-0.656187 1.25497,-1.398917 1.80506,-2.160077 -1.64916,-0.50146 -3.41066,-0.76723 -5.12217,-0.45062 -0.92959,0.18098 -1.87803,0.53555 -2.52491,1.25625 -0.42487,0.42103 -0.61258,1.012477 -0.68368,1.593197 -1.19423,0.3609 -2.42982,0.61824 -3.68091,0.64234 -0.40026,0.0492 -0.80331,0.0236 -1.20303,-0.0119 0.19139,-0.16897 0.42458,-0.28079 0.6258,-0.43719 0.71304,-0.54626 1.26472,-1.271157 1.74098,-2.025207 0.55447,-0.89731 1.00688,-1.85661 1.36942,-2.84633 -0.62717,-0.0142 -1.25608,-0.0174 -1.87998,0.0558 -1.34898,0.147091 -2.71916,0.5197 -3.82044,1.341 -0.69116,0.51018 -1.24614,1.26083 -1.36426,2.12752 -0.069,0.389877 -7.9e-4,0.786157 0.0827,1.168927 -1.69127,-0.54518 -3.2203,-1.520147 -4.54029,-2.699067 -0.008,-0.0262 -0.0235,-0.0797 -0.0315,-0.10645 0.65288,-0.301289 1.29592,-0.621979 1.93786,-0.945679 2.19161,-1.11385 4.35487,-2.28715 6.46008,-3.55793 0.43581,-0.24386 0.83764,-0.54794 1.28984,-0.76119 0.0191,0.188649 0.0436,0.37917 0.10542,0.56017 0.15638,0.48228 0.54467,0.85191 0.9679,1.11001 0.60642,0.36035 1.30161,0.53541 1.99058,0.656809 0.66492,0.10504 1.33859,0.16051 2.01228,0.145211 -0.30348,-1.035111 -0.81282,-2.02682 -1.56632,-2.806031 -0.43307,-0.4183 -0.94841,-0.78496 -1.54771,-0.907439 0.001,-0.0213 0.003,-0.0634 0.005,-0.0842 0.51672,-0.35979 1.02963,-0.72445 1.53324,-1.101741 0.33138,-0.24169 0.64016,-0.513959 0.98082,-0.743619 0.0607,0.48555 0.1785,0.96987 0.40979,1.40405 0.38277,0.739279 1.07168,1.284229 1.83503,1.59318 1.18986,0.48622 2.50013,0.53729 3.76928,0.49299 1.40311,-0.0826 2.79913,-0.30905 4.15685,-0.67541 -0.83771,-1.36101 -1.88768,-2.60671 -3.15846,-3.58221 -0.8831,-0.6682 -1.89072,-1.20207 -2.9838,-1.41697 -0.52985,-0.114901 -1.07589,-0.0887 -1.6123,-0.0532 0.35488,-0.4801 0.76148,-0.9237 1.0573,-1.4459 0.74748,0.18045 1.58603,0.12214 2.23345,-0.3235 0.8295,-0.5643 1.29756,-1.50198 1.60869,-2.42827 0.38714,-1.233061 0.57176,-2.526884 0.58756,-3.817341 -0.017,0.0131 -0.0502,0.04004 -0.0667,0.05374 -1.30907,0.34176 -2.57534,0.90174 -3.65146,1.72961 -0.76005,0.585081 -1.44259,1.338501 -1.73787,2.268071 -0.21764,0.66984 -0.13492,1.46238 0.31729,2.01848 -0.0503,0.22092 -0.21387,0.3869 -0.33745,0.56845 -0.40354,0.55446 -0.83807,1.08735 -1.31051,1.5844 -0.34724,0.39916 -0.72119,0.77622 -1.12035,1.12344 -0.16404,0.14819 -0.31519,0.31239 -0.50384,0.42995 0.21055,-0.8131 0.19,-1.66866 0.0145,-2.48615 -0.27232,-1.29866 -0.79695,-2.53255 -1.43454,-3.69177 -0.94432,0.92793 -1.76673,2.00493 -2.28565,3.22978 -0.31114,0.75405 -0.51141,1.57657 -0.42891,2.39624 0.0509,0.70812 0.36129,1.40738 0.90537,1.87326 0.23732,0.24879 0.56735,0.36579 0.84129,0.56483 -0.95855,0.61735 -1.91622,1.24615 -2.94039,1.74976 0.0793,-0.2231 0.19317,-0.43213 0.27027,-0.65577 0.13229,-0.38441 0.19624,-0.78912 0.22634,-1.19321 0.0694,-1.52286 -0.3502,-3.01744 -0.88935,-4.42712 -0.25263,-0.62719 -0.51166,-1.25606 -0.84904,-1.84278 -0.1624,0.10279 -0.28761,0.25052 -0.42323,0.38396 -1.28554,1.30851 -2.41136,2.85467 -2.88872,4.64984 -0.27612,1.03565 -0.28834,2.1932 0.21963,3.16105 0.29145,0.57907 0.79096,1.0183 1.33067,1.36115 -0.97441,0.39589 -1.9609,0.7615 -2.93367,1.16066 -1.3539,0.52057 -2.71978,1.03144 -4.13929,1.34203 -0.46862,0.11536 -0.95192,0.11124 -1.43092,0.12764 -1.03839,0.0515 -2.07923,0.0191 -3.11764,-0.0181 -0.86559,-0.0115 -1.7287,-0.0754 -2.59157,-0.13178 -1.94718,-0.169511 -3.90615,-0.40621 -5.77897,-0.98857 -0.77537,-0.26137 -1.56096,-0.56562 -2.1947,-1.09657 1.86516,-0.851921 3.70313,-1.76466 5.4994,-2.75384 1.56989,-0.86941 3.11648,-1.78609 4.58629,-2.81791 1.09799,-0.77647 2.16845,-1.60931 3.07888,-2.6045 1.11878,-1.26039 2.15791,-2.59015 3.13779,-3.96099 0.26301,-0.34612 0.43216,-0.75945 0.74931,-1.064019 0.61681,-0.602581 1.47141,-0.896438 2.31459,-0.993738 0.52549,-0.0831 1.06029,-0.04202 1.58905,-0.09612 0.96511,-0.0038 1.93248,-0.02983 2.89595,0.03307 0.43908,-0.0043 0.87811,0.0084 1.31774,0.01344 0.47463,-0.0044 0.94639,0.06318 1.42266,0.05168 2.14568,0.09187 4.27467,0.510998 6.42855,0.437698 0.6567,-0.01641 1.2841,-0.242264 1.87792,-0.507463 0.70538,-0.300199 1.36331,-0.700482 2.01073,-1.109493 1.02745,-0.65727 2.00488,-1.388047 2.98586,-2.112016 0.43143,-0.294732 0.83143,-0.653306 1.32137,-0.848526 0.81912,-0.2559 1.664,-0.415444 2.50062,-0.604097 1.26422,-0.255357 2.5264,-0.533895 3.80649,-0.701768 0.1382,-0.01339 0.27844,-0.02365 0.41909,-0.02739 z M 40.160535,60.791343 c 0.08038,0.417219 0.252775,0.816645 0.514697,1.152385 -0.468072,0.92465 -0.929804,1.85189 -1.397331,2.777095 -0.161853,0.30239 -0.291129,0.62359 -0.485243,0.90847 -0.109908,-0.58945 -0.23,-1.17636 -0.342098,-1.76527 -0.02532,-0.130137 -0.03238,-0.265284 0.0021,-0.393774 0.197398,-0.752959 0.398532,-1.505341 0.659908,-2.238621 h 5.29e-4 c 0.355968,-0.130685 0.68167,-0.3342 1.047483,-0.440285 z m 15.651755,4.72581 c 0.04651,-0.01 0.09565,-0.009 0.148828,0.009 1.141199,0.22474 2.279555,0.46499 3.425116,0.66456 -0.161308,1.24728 -0.103047,2.61219 0.606163,3.69487 0.384406,0.61352 1.024409,1.03862 1.72651,1.19993 -0.0038,0.0229 -0.01132,0.0691 -0.01601,0.092 -0.635936,0.21982 -1.305829,0.32592 -1.964737,0.46044 -2.417442,0.44128 -4.848244,0.80427 -7.275526,1.18649 -2.459551,0.38277 -4.917628,0.77518 -7.370609,1.19786 0.0066,-0.0541 0.01966,-0.16234 0.02635,-0.21704 0.395888,-1.01486 1.229034,-1.76808 2.053621,-2.4412 2.777239,-1.83782 5.517502,-3.73192 8.263578,-5.61568 0.122203,-0.0742 0.237207,-0.20166 0.376719,-0.23099 z m 7.475514,1.40456 c 0.688427,0.12249 1.385334,0.20941 2.064475,0.37673 -0.0421,0.20943 -0.199853,0.36418 -0.315227,0.53588 -0.377296,0.53914 -0.789578,1.05146 -1.204061,1.56218 -0.0208,0.008 -0.06245,0.023 -0.0832,0.031 0.219266,-0.85904 -0.06281,-1.74518 -0.461986,-2.5058 z m 2.899047,0.51315 c 0.43088,0.0219 0.85079,0.13465 1.28002,0.17725 2.40432,0.39753 4.82137,0.7356 7.24866,0.95705 0.19739,0.0158 0.39873,0.0102 0.59066,0.0682 -0.72452,0.81474 -1.45966,1.62355 -2.12183,2.49132 -0.25154,0.34558 -0.52621,0.68777 -0.65526,1.10226 -0.48774,0.21166 -1.02723,0.0923 -1.53686,0.0579 -1.95156,-0.22474 -3.88274,-0.6127 -5.843051,-0.75706 -0.63758,-0.0447 -1.280261,-0.084 -1.915647,0.005 0.01045,-0.0448 0.02156,-0.0881 0.03359,-0.13074 0.500329,-0.50907 0.931846,-1.0794 1.409215,-1.60817 0.193025,0.29255 0.452057,0.55908 0.792716,0.67282 0.540792,0.18429 1.131657,0.0791 1.659327,-0.0997 0.73491,-0.25153 1.41564,-0.64264 2.04174,-1.09813 -0.70757,-0.51073 -1.51219,-0.92284 -2.38435,-1.04696 -0.332454,-0.0497 -0.672827,-0.0356 -1.002008,0.0294 0.13014,-0.27558 0.301368,-0.53138 0.403076,-0.8201 z m 7.27294,7.42332 c 0.47464,5.3e-4 0.95376,0.0305 1.418,0.13333 -0.22255,0.18263 -0.44637,0.37033 -0.59893,0.61856 -0.16951,-0.17006 -0.33686,-0.34217 -0.51676,-0.50074 -0.10444,-0.0804 -0.20443,-0.16475 -0.30231,-0.25115 z m 16.78967,2.51354 c 0.012,0.13124 0.0217,0.26249 0.032,0.39481 -0.11374,-0.076 -0.22286,-0.15841 -0.33331,-0.23771 -0.007,-0.0284 -0.0187,-0.0858 -0.0253,-0.1142 0.10828,-0.0168 0.21669,-0.0308 0.3266,-0.0429 z" />
  </g>
  <g
     inkscape:groupmode="layer"
     id="layer10"
     inkscape:label="Stag"
     style="display:inline">
    <path
       id="rect1345-4-2"
       style="color:#000000;fill:#800000;stroke-width:1;stroke-miterlimit:10;-inkscape-stroke:none"
       d="M 22.027014,13.500696 V 19.500848 130.80723 H 205.73053 V 13.500696 Z m 12.0003,11.999785 H 193.73022 v 88.744459 c -2.87064,-0.0458 -5.88377,-0.16471 -8.94105,-0.30696 0.0806,-0.49457 0.0507,-1.06011 -0.0791,-1.65933 0.36255,-0.62141 0.11657,-1.23673 -0.24598,-1.61231 -1.76096,-3.82626 -3.03018,-7.72987 -5.27668,-11.478378 -0.49851,-1.10703 -0.9581,-2.0456 -1.05523,-3.43751 -0.15538,-1.34665 -1.04244,-2.81664 -2.25308,-2.959 -1.61207,-1.55378 -3.58632,-2.69954 -4.62866,-4.66121 -0.9517,-1.15886 -1.22379,-2.27267 -1.52808,-3.70985 -0.19422,-2.03285 -0.1811,-3.534597 0.15554,-6.098337 0.0777,-0.9322 0.1102,-1.78023 -0.17465,-2.67373 0.58913,-0.14892 1.05517,0.10962 1.76732,-0.44701 -0.7251,-0.47923 -1.20455,-0.55653 -1.56063,-1.80609 -1.14591,-3.54137 -4.84904,-6.03413 -10.97349,-6.78511 -1.64447,-0.51793 -3.16573,-0.54392 -4.81003,-0.33022 l -15.9458,0.58292 c -0.85463,-0.18123 -0.86117,-0.23969 -1.30793,-0.33022 -0.44675,-0.0907 -0.57576,0.14901 -1.37201,-0.20722 -1.04881,-0.6862 -3.11442,-1.61204 -3.15329,-2.05878 0.51154,-1.132953 0.2917,-2.149067 0.32401,-3.32745 1.64449,-0.796242 2.76416,-0.82878 4.24677,-0.453202 1.28826,0.647497 2.2592,0.07783 2.82257,-0.737941 1.16525,-1.34665 0.62151,-1.929712 0.0842,-2.836003 -0.25897,-0.783457 -1.08771,-0.861073 -1.82573,-1.579747 -0.73802,-0.725067 -1.94211,-1.6313 -2.61535,-2.738335 2.05876,-0.90629 3.59293,-3.754813 4.11086,-6.117973 3.64486,-1.00338 6.07297,-0.226835 7.56854,-5.962944 -1.47622,2.615578 -2.71303,4.622787 -6.2544,4.68757 1.2366,-2.634993 2.66788,-4.376584 3.49642,-7.892023 0.11662,-2.129973 -0.21363,-2.926093 -1.02939,-4.687054 -0.20714,0.01296 0.35598,2.732003 0.0258,4.745447 -0.57614,2.906882 -2.57682,5.703586 -3.73569,7.101893 -1.20429,0.433795 -2.09096,1.761188 -3.8194,1.269172 -2.02006,-0.433795 -1.52163,-4.713115 -1.72238,-7.4905 1.41144,-2.434264 4.31171,-4.823171 3.24993,-8.752953 -0.60223,4.421817 -2.60267,7.263587 -3.99458,7.399549 -1.39192,0.135943 -3.63178,-4.046278 -4.35684,-6.571176 -0.006,4.065744 1.9295,5.949778 3.37964,7.671885 0.86759,1.592622 1.36578,8.040608 0.89968,8.182962 -0.62158,0.07135 -0.31715,-1.229617 -0.66042,-1.799373 l -0.56948,2.343525 c -0.61502,0.317357 -1.0617,0.919472 -1.02939,2.168861 l -1.88412,0.08423 -1.65106,-1.974556 0.078,-2.537831 c -0.40789,0.556628 -0.6154,1.722163 -1.23042,1.6769 -0.94516,-0.284879 -3.67732,-2.512565 -3.48971,-2.965709 -0.1294,-0.440224 0.75753,-0.834713 1.83865,-1.113113 l 4.61625,-1.495515 c 1.46966,-0.123004 2.12384,-0.201085 2.3828,-1.78077 -0.78345,0.323715 -0.67381,1.094521 -2.34404,0.971519 -1.53444,0.317216 -4.36347,1.605343 -4.92683,0.789614 -0.48545,-0.919316 1.21075,-4.738806 1.81281,-6.538619 1.16543,-1.637937 1.86486,-3.301775 1.79369,-4.266406 -0.81577,1.204177 -1.26298,2.531266 -2.4412,3.6189 -0.93876,1.663853 -2.22034,6.0077 -2.99723,7.483781 -0.77689,1.482577 -1.30153,1.664068 -1.66398,1.392164 -0.86103,-0.621514 -2.65455,-2.460242 -3.26957,-4.790922 -0.55023,-1.424305 -0.52393,-3.767709 0.16227,-5.619295 0.68619,-1.851588 2.77066,-3.936589 3.79356,-5.373833 0.0582,-0.375496 -2.88082,2.052545 -3.75481,3.10782 -0.87398,1.055277 -1.10734,3.107275 -1.48931,3.230295 -1.02947,-1.482576 0.12952,-4.745542 0.1943,-7.12153 -1.05538,1.715638 -1.04886,3.347194 -1.57975,5.023982 -0.0648,1.443723 0.49219,3.140107 0.7705,4.409036 0.27849,1.268925 0.59565,2.065049 0.89348,3.191536 1.23004,2.453685 2.56367,3.671125 3.92328,5.509741 1.84506,1.916407 6.3641,4.803479 6.31228,5.340758 -0.54385,0.893506 -1.09418,0.570145 -1.7999,0.162264 -0.81576,-0.958118 -1.66386,-1.877886 -2.47323,-2.836003 -0.70554,-0.563192 -2.95195,-2.382425 -3.53467,-2.097545 -0.72506,0.297833 -0.40134,3.140189 0.24598,4.564578 0.66685,1.624965 3.19814,2.725589 3.94912,4.143417 -2.31134,3.541369 -3.59929,7.930494 -3.70934,11.517122 -0.59567,3.30176 -0.4468,5.03044 0.13591,8.31267 -0.86759,4.22774 0.53698,8.89575 3.35328,11.381737 l 1.89033,3.12022 c -0.2524,1.25595 1.48924,3.95588 2.10426,5.95002 0.61502,2.00037 1.29492,5.06922 1.7415,6.57118 -0.25897,0.738018 0.2592,1.877258 0.56999,2.576588 l 0.24081,6.04408 C 87.705641,103.16519 46.572459,96.199052 34.027314,98.195782 Z m 100.016636,21.86895 c 0.15531,0.0064 0.29115,0.03244 0.3948,0.07131 -0.17483,0.388533 -1.08121,1.268566 -1.74149,1.417484 -0.0259,-0.394925 -0.25287,-0.744598 -0.078,-1.178224 0.3044,-0.207309 0.94566,-0.330097 1.42472,-0.310573 z m 15.49207,40.243011 c 1.27548,0.23945 1.41184,0.92576 2.11099,1.85157 2.5119,2.31772 4.53172,5.12079 7.52925,6.95306 0.45332,0.54385 1.55377,1.17188 1.4826,3.703128 -1.04882,3.54138 -2.57664,6.7592 -3.74189,9.44595 -0.53987,0.51822 -1.37834,1.2678 -2.07998,1.97456 -6.847,-0.72022 -13.79886,-1.52806 -20.79563,-2.40813 -0.0239,-2.38741 0.31525,-4.44727 0.41031,-6.72724 0.58911,-0.58272 0.86081,-1.97453 0.60823,-3.165698 0.92581,-2.68674 1.85835,-5.82687 2.54455,-9.60768 4.25987,0.39492 8.03415,-0.34929 11.93157,-2.01952 z m 10.76008,0.25218 c 0.6734,-0.006 3.16574,2.34345 4.68705,2.78381 l 7.91787,6.22184 3.37343,3.489708 c 1.3272,2.14946 4.10418,6.92079 4.77749,9.42631 0.10358,0.9322 0.0195,1.11355 0.66042,1.90996 -0.0644,0.8901 -0.068,1.5341 -0.0357,2.08256 -7.43615,-0.41066 -15.31283,-1.06405 -23.43475,-1.88154 l 0.48783,-1.83916 c 0.36901,-0.0582 0.61489,0.29779 1.1069,-0.16175 l 5.62549,-12.831778 c 1.52805,-1.61201 -0.75714,-2.4602 -1.37873,-3.26957 -1.78683,-1.73501 -3.21103,-3.10752 -3.78736,-5.93039 z m -27.62468,1.17203 c -0.0193,3.06887 -0.557,5.85877 -0.0455,9.21235 -0.5504,1.25595 -0.65368,2.667608 -0.18758,4.001308 -0.005,2.12586 -0.21869,4.41665 -0.33692,6.63423 -0.30008,-0.0382 -0.59964,-0.0764 -0.89969,-0.11472 0.007,-1.98492 0.0155,-3.89127 0.0259,-5.95004 0.34966,-1.08112 0.37558,-2.36279 0,-3.081458 l -0.86093,-10.61744 z" />
  </g>
  <g
     inkscape:groupmode="layer"
     id="layer2"
     inkscape:label="Frame"
     style="display:inline">
    <path
       style="color:#000000;display:inline;fill:#000000;stroke-miterlimit:10;-inkscape-stroke:none"
       d="m 22.027204,13.500638 v 6 111.306642 H 205.73035 V 13.500638 Z m 11.999999,12 H 193.73035 V 118.80728 H 34.027203 Z"
       id="rect1345-4-27-2" />
  </g>
</svg>
