<svg width="210" height="297" viewBox="0 0 210 297" fill="none" xmlns="http://www.w3.org/2000/svg">
<g clip-path="url(#clip0_9_345)">
<path d="M141.331 100H86V151.761H141.331V100Z" fill="#00FF00" stroke="black" stroke-width="0.132292" stroke-miterlimit="10"/>
</g>
<g clip-path="url(#clip1_9_345)">
<path d="M152.488 111.486L118.481 106.857L95.3888 132.246L89.2828 98.4736L58 84.3574L88.2328 68.1138L91.9912 34L116.782 57.7336L150.388 50.7663L135.477 81.678L152.488 111.486Z" fill="#00FF00" stroke="black" stroke-width="0.132292" stroke-miterlimit="10"/>
</g>
<g clip-path="url(#clip2_9_345)">
<path d="M139.626 125.898C158.75 125.898 174.252 111.594 174.252 93.9489C174.252 76.304 158.75 62 139.626 62C120.503 62 105 76.304 105 93.9489C105 111.594 120.503 125.898 139.626 125.898Z" fill="#00FF00" stroke="black" stroke-width="0.132292" stroke-miterlimit="10"/>
</g>
<defs>
<clipPath id="clip0_9_345">
<rect width="83.1442" height="89.6478" fill="white" transform="translate(58.1863 62.113)"/>
</clipPath>
<clipPath id="clip1_9_345">
<rect width="130.246" height="98.357" fill="white" transform="translate(22.2419 33.8892)"/>
</clipPath>
<clipPath id="clip2_9_345">
<rect width="104.252" height="69.8978" fill="white" transform="translate(70 62)"/>
</clipPath>
</defs>
</svg>
